<?xml version="1.0" encoding="utf-8"?>
<!-- Generator: Adobe Illustrator 24.0.0, SVG Export Plug-In . SVG Version: 6.00 Build 0)  -->
<svg version="1.1" id="Layer_1" xmlns="http://www.w3.org/2000/svg" xmlns:xlink="http://www.w3.org/1999/xlink" x="0px" y="0px"
	 viewBox="0 0 256 64" style="enable-background:new 0 0 256 64;" xml:space="preserve">
<style type="text/css">
	.st0{clip-path:url(#SVGID_2_);}
	.st1{fill:#878787;}
	.st2{fill:#FFFFFF;}
	.st3{fill:none;stroke:#666666;stroke-width:3;}
	.st4{fill:#666666;}
	.st5{fill-rule:evenodd;clip-rule:evenodd;fill:#666666;}
</style>
<g>
	<defs>
		<rect id="SVGID_1_" width="256" height="64"/>
	</defs>
	<clipPath id="SVGID_2_">
		<use xlink:href="#SVGID_1_"  style="overflow:visible;"/>
	</clipPath>
	<g class="st0">
		<path class="st1" d="M70.8,24h1.3v-2.7h1.2c1.9,0,2.8-1.1,2.8-2.4c0-1.5-1-2.4-2.9-2.4h-2.5V24z M73.3,17.6c0.9,0,1.5,0.5,1.5,1.3
			c0,0.8-0.5,1.3-1.5,1.3h-1.2v-2.6H73.3z M80.7,24.2c2.2,0,4-1.7,4-4s-1.8-4-4-4c-2.1,0-3.9,1.7-3.9,4S78.5,24.2,80.7,24.2z
			 M80.7,23c-1.5,0-2.6-1.1-2.6-2.7c0-1.6,1.1-2.7,2.6-2.7s2.6,1.1,2.6,2.7C83.3,21.8,82.2,23,80.7,23z M86.3,16.4h-1.4l2.2,7.6h1.7
			l1.5-5.6l1.5,5.6h1.7l2.2-7.6h-1.4l-1.6,6.2l-1.6-6.2h-1.5l-1.6,6.2L86.3,16.4z M96.7,24h4.9v-1.2H98v-2.1h3.4v-1.2H98v-2h3.6
			v-1.2h-4.9V24z M102.7,24h1.3v-2.8h1.6L107,24h1.5l-1.6-3c0.9-0.4,1.4-1.2,1.4-2.1c0-1.4-1-2.4-2.9-2.4h-2.7V24z M105.4,17.6
			c0.9,0,1.5,0.4,1.5,1.3s-0.5,1.2-1.5,1.2H104v-2.5H105.4z M109.6,24h4.9v-1.2h-3.6v-2.1h3.4v-1.2h-3.4v-2h3.6v-1.2h-4.9V24z
			 M115.6,24h2.1c2.9,0,4.6-1.5,4.6-3.8s-1.7-3.8-4.6-3.8h-2.1V24z M117.8,22.8h-0.9v-5.2h0.9c1.9,0,3.1,0.9,3.1,2.6
			C120.9,21.9,119.7,22.8,117.8,22.8z M125.6,24h3c1.7,0,2.5-0.9,2.5-2.2c0-0.6-0.3-1.4-1.3-1.8c0.7-0.4,1-1,1-1.6
			c0-1.2-0.7-2-2.5-2h-2.8V24z M128.2,17.5c0.8,0,1.3,0.3,1.3,1c0,0.8-0.3,1.1-1.3,1.1h-1.3v-2.1H128.2z M128.5,20.7
			c0.9,0,1.4,0.4,1.4,1.1c0,0.7-0.4,1.1-1.4,1.1h-1.6v-2.2H128.5z M134,24h1.3v-3.1l2.6-4.4h-1.5l-1.8,3.2l-1.8-3.2h-1.5l2.7,4.5V24
			z"/>
		<path class="st2" d="M71.1,48h3.7v-6h5.9v6h3.7V32.9h-3.7v5.9h-5.9v-5.9h-3.7V48z M86.1,42.7c0,3.6,2.1,5.6,4.6,5.6
			c1.4,0,2.7-0.6,3.5-1.8V48h3.7V37.4h-3.7v1.4c-0.8-1.2-2-1.8-3.5-1.8C88.2,37.1,86.1,39.1,86.1,42.7z M92,40.1
			c1.3,0,2.2,1,2.2,2.6s-0.9,2.6-2.2,2.6c-1.4,0-2.2-1.1-2.2-2.6C89.8,41.2,90.6,40.1,92,40.1z M103.1,42.7c0-1.8,0.9-2.8,2-2.8
			c0.9,0,1.7,0.6,1.8,1.7h3.8c-0.5-3.5-3.3-4.6-5.5-4.6c-2.8,0-5.7,1.8-5.7,5.6s2.9,5.6,5.7,5.6c2.3,0,5.1-1.1,5.5-4.6h-3.8
			c-0.1,1.2-0.9,1.7-1.8,1.7C104,45.5,103.1,44.6,103.1,42.7z M112.2,48h3.7v-4.6l3.4,4.6h4.5l-4.5-5.6l4.1-5h-4l-3.6,4.2v-9.9h-3.7
			V48z M140.3,42c-0.5,2.5-2.1,3-3.6,3c-2.3,0-3.8-1.9-3.8-4.6c0-2.6,1.5-4.6,3.8-4.6c1.5,0,3,0.6,3.5,3h3.8c-0.9-5-4.1-6.3-7.3-6.3
			c-4.5,0-7.5,3.3-7.5,7.9s3.1,7.9,7.5,7.9c3.2,0,6.4-1.2,7.3-6.3H140.3z M145.6,48h3.7V31.7h-3.7V48z M155,37.4h-3.7v6.7
			c0,2.7,1.5,4.2,3.8,4.2c1.2,0,2.3-0.6,3-1.7V48h3.7V37.4H158v5.4c0,1.7-0.7,2.4-1.5,2.4c-0.9,0-1.5-0.7-1.5-2.1V37.4z M175.6,42.7
			c0-3.6-2.1-5.6-4.6-5.6c-1.4,0-2.7,0.6-3.5,1.8v-7.2h-3.7V48h3.7v-1.4c0.8,1.2,2,1.8,3.5,1.8C173.5,48.4,175.6,46.3,175.6,42.7z
			 M169.7,40.1c1.4,0,2.2,1.1,2.2,2.6c0,1.5-0.8,2.6-2.2,2.6c-1.3,0-2.2-1-2.2-2.6C167.5,41.1,168.4,40.1,169.7,40.1z M182.1,48h6.5
			c3.6,0,5.4-1.9,5.4-4.5c0-1.2-0.5-2.7-2.9-3.4c1.7-0.7,2.3-2,2.3-3.2c0-2.2-1.4-4-5.3-4h-6V48z M187.7,35.6c1.2,0,1.9,0.5,1.9,1.6
			c0,1.2-0.6,1.8-2,1.8h-1.8v-3.4H187.7z M188.1,41.6c1.3,0,2.1,0.6,2.1,1.8c0,1.2-0.8,1.8-2.1,1.8h-2.3v-3.6H188.1z M195.1,42.7
			c0,3.6,2.1,5.6,4.6,5.6c1.4,0,2.7-0.6,3.5-1.8V48h3.7V37.4h-3.7v1.4c-0.8-1.2-2-1.8-3.5-1.8C197.2,37.1,195.1,39.1,195.1,42.7z
			 M201,40.1c1.3,0,2.2,1,2.2,2.6s-0.9,2.6-2.2,2.6c-1.4,0-2.2-1.1-2.2-2.6C198.8,41.2,199.6,40.1,201,40.1z M209,48h3.7v-5.8
			c0-1.5,0.7-2.1,1.8-2.1c1,0,1.6,0.7,1.6,2.1V48h3.7v-6.1c0-3-1.5-4.8-4-4.8c-1.3,0-2.4,0.6-3.1,1.8v-1.4H209V48z M221.8,48h3.7
			v-4.6l3.4,4.6h4.5l-4.5-5.6l4.1-5h-4l-3.6,4.2v-9.9h-3.7V48z"/>
		<circle class="st3" cx="36" cy="32" r="22.5"/>
		<path class="st4" d="M22.5,44c0-0.8,0.7-1.5,1.5-1.5h24c0.8,0,1.5,0.7,1.5,1.5s-0.7,1.5-1.5,1.5H24C23.2,45.5,22.5,44.8,22.5,44z"
			/>
		<path class="st5" d="M36,41c-0.8,0-1.5-0.7-1.5-1.5V29c0-0.8,0.7-1.5,1.5-1.5s1.5,0.7,1.5,1.5v10.5C37.5,40.3,36.8,41,36,41z"/>
		<path class="st5" d="M43.5,41c-0.8,0-1.5-0.7-1.5-1.5V29c0-0.8,0.7-1.5,1.5-1.5S45,28.2,45,29v10.5C45,40.3,44.3,41,43.5,41z"/>
		<path class="st5" d="M28.5,41c-0.8,0-1.5-0.7-1.5-1.5V29c0-0.8,0.7-1.5,1.5-1.5S30,28.2,30,29v10.5C30,40.3,29.3,41,28.5,41z"/>
		<path class="st4" d="M36,20c0.1,0,0.2,0.1,0.3,0.1c0.4,0.2,0.8,0.4,1.3,0.7c1.1,0.6,2.5,1.5,4.1,2.6c3.2,2.2,3.3,2.5,6.7,5.1
			c0.6,0.6,1.5,0.6,2.1,0c0.6-0.6,0.6-1.5,0-2.1c-3.3-2.7-3.9-3.1-7.1-5.4c-1.6-1.1-3.1-2.1-4.3-2.8c-0.6-0.3-1.2-0.6-1.6-0.8
			c-0.4-0.2-1-0.4-1.5-0.4s-1.1,0.2-1.5,0.4c-0.4,0.2-1,0.5-1.6,0.8c-1.2,0.7-2.7,1.7-4.3,2.8c-3.2,2.3-3.8,2.7-7.1,5.4
			c-0.6,0.6-0.6,1.5,0,2.1c0.6,0.6,1.5,0.6,2.1,0c3.4-2.6,3.6-2.9,6.7-5.1c1.6-1.1,3-2,4.1-2.6c0.5-0.3,1-0.5,1.3-0.7
			C35.8,20.1,35.9,20,36,20z"/>
	</g>
</g>
</svg>
