<svg width="3886" height="2186" viewBox="0 0 3886 2186" fill="none" xmlns="http://www.w3.org/2000/svg">
<path d="M1536.91 658.27L1776.61 1180.95L2035.11 574.615L2295.49 1180.95L2532.38 658.27H2769.26L2289.86 1642.52L2035.13 1053.11L1777.56 1642.52L1299.1 658.27H1536.91Z" fill="white"/>
<path d="M3123.63 658.27V1573.88H2912.13V658.27H3123.63Z" fill="white"/>
<path d="M3609.61 855.678V1573.88H3398.1V855.678H3307.86V658.27H3398.1V322.679H3609.61V658.27H3774.11V855.678H3609.61Z" fill="white"/>
<path d="M268.295 2007.17H171.894L146.818 2061.86H110.204L221.643 1822.5L329.136 2061.86H291.935L268.295 2007.17ZM254.452 1975.23L221.056 1898.66L186.042 1975.23H254.452Z" fill="white"/>
<path d="M455.432 1815.51H488.402V2061.86H455.432V2046.99C442.478 2059.6 427.865 2065.95 411.532 2065.95C392.102 2065.95 375.951 2058.85 363.119 2044.66C350.388 2030.15 344.013 2012.05 344.013 1990.39C344.013 1969.16 350.388 1951.49 363.119 1937.3C375.769 1923.01 391.677 1915.87 410.803 1915.87C427.44 1915.87 442.316 1922.65 455.432 1936.29V1815.51V1815.51ZM377.55 1990.39C377.55 2004 381.193 2015.09 388.479 2023.65C395.947 2032.29 405.399 2036.62 416.774 2036.62C428.918 2036.62 438.754 2032.43 446.243 2024.07C453.711 2015.39 457.476 2004.42 457.476 1991.1C457.476 1977.76 453.711 1966.77 446.243 1958.13C438.774 1949.67 429.039 1945.44 417.078 1945.44C405.804 1945.44 396.372 1949.71 388.783 1958.27C381.294 1966.96 377.55 1977.64 377.55 1990.39Z" fill="white"/>
<path d="M547.461 1919.81L584.216 1999.6L620.83 1919.81H657.726L583.933 2071.66L510.706 1919.81H547.461Z" fill="white"/>
<path d="M779.528 1919.81H812.498V2061.88H779.528V2047.01C766.008 2059.62 751.496 2065.97 735.912 2065.97C716.259 2065.97 700.027 2058.87 687.195 2044.68C674.464 2030.17 668.089 2012.07 668.089 1990.41C668.089 1969.12 674.464 1951.37 687.195 1937.18C699.926 1922.95 715.895 1915.89 735.041 1915.89C751.557 1915.89 766.393 1922.67 779.528 1936.31V1919.81ZM701.626 1990.39C701.626 2004 705.269 2015.09 712.555 2023.65C720.024 2032.29 729.476 2036.62 740.85 2036.62C752.994 2036.62 762.83 2032.43 770.319 2024.07C777.787 2015.39 781.552 2004.42 781.552 1991.1C781.552 1977.76 777.787 1966.77 770.319 1958.13C762.851 1949.67 753.115 1945.44 741.154 1945.44C729.88 1945.44 720.449 1949.71 712.859 1958.27C705.39 1966.96 701.626 1977.64 701.626 1990.39Z" fill="white"/>
<path d="M853.908 1919.81H886.879V1932.95C898.354 1921.58 911.267 1915.89 925.678 1915.89C942.193 1915.89 955.106 1921.07 964.335 1931.49C972.33 1940.32 976.297 1954.75 976.297 1974.81V2061.88H943.327V1982.54C943.327 1968.53 941.404 1958.84 937.498 1953.52C933.713 1948.05 926.811 1945.34 916.793 1945.34C905.883 1945.34 898.152 1948.92 893.598 1956.13C889.105 1963.21 886.899 1975.6 886.899 1993.33V2061.88H853.908V1919.81Z" fill="white"/>
<path d="M1128.26 1925.93V1969.55C1120.79 1960.4 1114.07 1954.12 1108.14 1950.72C1102.31 1947.22 1095.45 1945.48 1087.58 1945.48C1075.21 1945.48 1064.97 1949.79 1056.79 1958.45C1048.61 1967.1 1044.55 1977.93 1044.55 1990.98C1044.55 2004.3 1048.49 2015.23 1056.37 2023.79C1064.36 2032.33 1074.48 2036.62 1086.85 2036.62C1094.72 2036.62 1101.68 2034.9 1107.71 2031.52C1113.54 2028.2 1120.4 2021.79 1128.28 2012.27V2055.59C1114.96 2062.47 1101.62 2065.95 1088.3 2065.95C1066.32 2065.95 1047.95 2058.85 1033.17 2044.66C1018.4 2030.37 1011.01 2012.6 1011.01 1991.43C1011.01 1970.19 1018.48 1952.34 1033.47 1937.75C1048.45 1923.15 1066.83 1915.87 1088.61 1915.87C1102.57 1915.87 1115.81 1919.23 1128.26 1925.93Z" fill="white"/>
<path d="M1155.09 1860.73C1155.09 1854.96 1157.18 1850.01 1161.37 1845.86C1165.56 1841.67 1170.56 1839.58 1176.38 1839.58C1182.34 1839.58 1187.35 1841.67 1191.54 1845.86C1195.73 1849.94 1197.82 1854.94 1197.82 1860.87C1197.82 1866.78 1195.73 1871.84 1191.54 1876.03C1187.46 1880.18 1182.46 1882.31 1176.53 1882.31C1170.6 1882.31 1165.56 1880.2 1161.37 1876.03C1157.16 1871.87 1155.09 1866.74 1155.09 1860.73ZM1192.86 1919.82V2061.89H1160.05V1919.82H1192.86Z" fill="white"/>
<path d="M1234.43 1919.81H1267.4V1932.95C1278.88 1921.58 1291.79 1915.89 1306.2 1915.89C1322.72 1915.89 1335.63 1921.07 1344.86 1931.49C1352.85 1940.32 1356.82 1954.75 1356.82 1974.81V2061.88H1323.85V1982.54C1323.85 1968.53 1321.93 1958.84 1318.02 1953.52C1314.24 1948.05 1307.33 1945.34 1297.32 1945.34C1286.41 1945.34 1278.67 1948.92 1274.12 1956.13C1269.63 1963.21 1267.42 1975.6 1267.42 1993.33V2061.88H1234.45V1919.81H1234.43Z" fill="white"/>
<path d="M1535.62 2058.53C1535.62 2065.22 1535.39 2071.13 1534.97 2076.26C1534.52 2081.36 1533.92 2085.85 1533.15 2089.76C1530.82 2100.44 1526.27 2109.63 1519.44 2117.32C1506.61 2132.1 1488.96 2139.49 1466.5 2139.49C1447.53 2139.49 1431.93 2134.39 1419.68 2124.17C1407.03 2113.66 1399.75 2099.11 1397.8 2080.55H1430.78C1432.05 2087.55 1434.13 2092.95 1437.05 2096.74C1443.87 2105.56 1453.79 2110.02 1466.8 2110.02C1490.83 2110.02 1502.83 2095.28 1502.83 2065.81V2045.98C1489.81 2059.29 1474.8 2065.95 1457.75 2065.95C1438.39 2065.95 1422.56 2058.95 1410.21 2044.94C1397.78 2030.71 1391.55 2013 1391.55 1991.71C1391.55 1971 1397.34 1953.39 1408.92 1938.9C1421.34 1923.52 1437.8 1915.85 1458.22 1915.85C1476.13 1915.85 1491.01 1922.49 1502.85 1935.83V1919.77H1535.66V2058.53H1535.62ZM1504.1 1991.14C1504.1 1977.32 1500.42 1966.27 1493.01 1958.03C1485.54 1949.57 1475.95 1945.34 1464.27 1945.34C1451.84 1945.34 1441.99 1949.93 1434.8 1959.2C1428.29 1967.44 1425.03 1978.17 1425.03 1991.29C1425.03 2004.2 1428.27 2014.81 1434.8 2023.08C1441.91 2032.13 1451.72 2036.64 1464.27 2036.64C1476.82 2036.64 1486.74 2032.05 1494.02 2022.94C1500.76 2014.66 1504.1 2004.04 1504.1 1991.14Z" fill="white"/>
<path d="M1686.59 1836.67L1745.22 1987.2L1806.48 1825.74L1865.12 1987.2L1927.4 1836.67H1964.29L1863.66 2076.17L1805.76 1916.6L1745.38 2076.32L1649.71 1836.67H1686.59Z" fill="white"/>
<path d="M1960.77 1989.83C1960.77 1969.3 1968.1 1951.84 1982.79 1937.47C1997.48 1923.05 2015.36 1915.87 2036.47 1915.87C2057.66 1915.87 2075.67 1923.09 2090.42 1937.61C2105.02 1952.08 2112.3 1969.87 2112.3 1991C2112.3 2012.3 2104.98 2030.13 2090.28 2044.54C2075.51 2058.83 2057.35 2065.97 2035.88 2065.97C2014.59 2065.97 1996.76 2058.69 1982.34 2044.09C1967.95 2029.68 1960.77 2011.59 1960.77 1989.83ZM1994.33 1990.39C1994.33 2004.58 1998.11 2015.82 2005.7 2024.1C2013.47 2032.45 2023.76 2036.64 2036.49 2036.64C2049.32 2036.64 2059.56 2032.5 2067.27 2024.24C2074.96 2015.96 2078.79 2004.91 2078.79 1991.12C2078.79 1977.3 2074.96 1966.25 2067.27 1958.01C2059.5 1949.63 2049.22 1945.46 2036.49 1945.46C2023.94 1945.46 2013.78 1949.61 2006.01 1958.01C1998.23 1966.37 1994.33 1977.18 1994.33 1990.39Z" fill="white"/>
<path d="M2147.04 1919.81H2179.84V1932.95C2186.16 1926.31 2191.54 1921.86 2196.04 1919.53C2200.81 1917.08 2206.78 1915.89 2213.97 1915.89C2230.02 1915.89 2242.71 1922.89 2252.04 1936.9C2262.36 1922.89 2276.28 1915.89 2293.89 1915.89C2325.87 1915.89 2341.88 1935.28 2341.88 1974.08V2061.88H2308.91V1982.97C2308.91 1969.32 2307.27 1959.71 2303.95 1954.08C2300.55 1948.31 2294.95 1945.48 2287.17 1945.48C2278.13 1945.48 2271.53 1948.88 2267.42 1955.68C2263.29 1962.46 2261.23 1973.41 2261.23 1988.49V2061.86H2228.26V1983.39C2228.26 1958.09 2220.97 1945.46 2206.38 1945.46C2197.15 1945.46 2190.41 1948.88 2186.18 1955.82C2181.95 1962.71 2179.84 1973.61 2179.84 1988.49V2061.86H2147.04V1919.81Z" fill="white"/>
<path d="M2512.68 1998.57H2410.88C2411.75 2010.25 2415.56 2019.5 2422.25 2026.42C2428.95 2033.2 2437.58 2036.62 2448.08 2036.62C2456.26 2036.62 2463 2034.66 2468.36 2030.8C2473.6 2026.89 2479.59 2019.7 2486.29 2009.2L2514 2024.66C2509.73 2031.95 2505.22 2038.18 2500.44 2043.41C2495.66 2048.59 2490.56 2052.88 2485.12 2056.24C2479.67 2059.6 2473.78 2062.03 2467.47 2063.61C2461.15 2065.14 2454.31 2065.93 2446.91 2065.93C2425.72 2065.93 2408.69 2059.11 2395.86 2045.51C2383.03 2031.81 2376.61 2013.61 2376.61 1990.96C2376.61 1968.49 2382.85 1950.3 2395.28 1936.41C2407.82 1922.71 2424.44 1915.85 2445.17 1915.85C2466.05 1915.85 2482.61 1922.49 2494.75 1935.83C2506.82 1949.02 2512.85 1967.36 2512.85 1990.82L2512.68 1998.57ZM2478.99 1971.73C2474.43 1954.22 2463.38 1945.48 2445.87 1945.48C2441.91 1945.48 2438.14 1946.07 2434.64 1947.3C2431.14 1948.5 2427.96 1950.26 2425.09 1952.54C2422.21 1954.81 2419.77 1957.58 2417.72 1960.78C2415.68 1964 2414.12 1967.64 2413.05 1971.71H2478.99V1971.73Z" fill="white"/>
<path d="M2548.57 1919.81H2581.54V1932.95C2593.01 1921.58 2605.93 1915.89 2620.34 1915.89C2636.85 1915.89 2649.77 1921.07 2658.99 1931.49C2666.99 1940.32 2670.96 1954.75 2670.96 1974.81V2061.88H2637.99V1982.54C2637.99 1968.53 2636.06 1958.84 2632.16 1953.52C2628.37 1948.05 2621.47 1945.34 2611.45 1945.34C2600.54 1945.34 2592.81 1948.92 2588.26 1956.13C2583.76 1963.21 2581.56 1975.6 2581.56 1993.33V2061.88H2548.59V1919.81H2548.57Z" fill="white"/>
<path d="M2844.79 1836.67V2061.89H2810.81V1836.67H2844.79Z" fill="white"/>
<path d="M2892.64 1919.81H2925.61V1932.95C2937.09 1921.58 2950 1915.89 2964.41 1915.89C2980.93 1915.89 2993.84 1921.07 3003.07 1931.49C3011.06 1940.32 3015.03 1954.75 3015.03 1974.81V2061.88H2982.06V1982.54C2982.06 1968.53 2980.14 1958.84 2976.23 1953.52C2972.45 1948.05 2965.54 1945.34 2955.53 1945.34C2944.62 1945.34 2936.88 1948.92 2932.33 1956.13C2927.84 1963.21 2925.63 1975.6 2925.63 1993.33V2061.88H2892.66V1919.81H2892.64Z" fill="white"/>
<path d="M3217 1868.61V2061.86H3183.02V1868.61H3131.25V1836.67H3268.63V1868.61H3217Z" fill="white"/>
<path d="M3409.82 1998.57H3308.02C3308.89 2010.25 3312.69 2019.5 3319.39 2026.42C3326.09 2033.2 3334.71 2036.62 3345.22 2036.62C3353.39 2036.62 3360.13 2034.66 3365.5 2030.8C3370.74 2026.89 3376.73 2019.7 3383.43 2009.2L3411.14 2024.66C3406.87 2031.95 3402.35 2038.18 3397.58 2043.41C3392.8 2048.59 3387.7 2052.88 3382.26 2056.24C3376.83 2059.6 3370.92 2062.03 3364.61 2063.61C3358.29 2065.14 3351.45 2065.93 3344.04 2065.93C3322.85 2065.93 3305.83 2059.11 3293 2045.51C3280.17 2031.81 3273.75 2013.61 3273.75 1990.96C3273.75 1968.49 3279.99 1950.3 3292.41 1936.41C3304.96 1922.71 3321.58 1915.85 3342.3 1915.85C3363.19 1915.85 3379.75 1922.49 3391.89 1935.83C3403.95 1949.02 3409.98 1967.36 3409.98 1990.82L3409.82 1998.57ZM3376.12 1971.73C3371.57 1954.22 3360.52 1945.48 3343.01 1945.48C3339.04 1945.48 3335.28 1946.07 3331.78 1947.3C3328.28 1948.5 3325.1 1950.26 3322.23 1952.54C3319.35 1954.81 3316.9 1957.58 3314.86 1960.78C3312.81 1963.98 3311.26 1967.64 3310.18 1971.71H3376.12V1971.73Z" fill="white"/>
<path d="M3556.26 1925.93V1969.55C3548.79 1960.4 3542.07 1954.12 3536.14 1950.72C3530.31 1947.22 3523.45 1945.48 3515.58 1945.48C3503.21 1945.48 3492.97 1949.79 3484.79 1958.45C3476.61 1967.1 3472.55 1977.93 3472.55 1990.98C3472.55 2004.3 3476.49 2015.23 3484.37 2023.79C3492.36 2032.33 3502.48 2036.62 3514.85 2036.62C3522.72 2036.62 3529.68 2034.9 3535.71 2031.52C3541.54 2028.2 3548.4 2021.79 3556.28 2012.27V2055.59C3542.96 2062.47 3529.62 2065.95 3516.3 2065.95C3494.32 2065.95 3475.95 2058.85 3461.17 2044.66C3446.4 2030.37 3439.01 2012.6 3439.01 1991.43C3439.01 1970.19 3446.48 1952.34 3461.47 1937.75C3476.45 1923.15 3494.83 1915.87 3516.61 1915.87C3530.59 1915.87 3543.83 1919.23 3556.26 1925.93Z" fill="white"/>
<path d="M3595.79 1815.51H3628.59V1931.61C3640.27 1921.11 3653.12 1915.87 3667.25 1915.87C3683.3 1915.87 3696.13 1921.05 3705.75 1931.47C3713.92 1940.52 3717.99 1954.95 3717.99 1974.79V2061.86H3685.18V1977.84C3685.18 1966.47 3683.18 1958.23 3679.13 1953.13C3675.08 1948.03 3668.59 1945.48 3659.66 1945.48C3648.17 1945.48 3640.11 1949.02 3635.45 1956.13C3630.9 1963.31 3628.59 1975.68 3628.59 1993.17V2061.86H3595.79V1815.51V1815.51Z" fill="white"/>
<path d="M794.749 1301.84L1480.85 1633.93L785.317 82.9868L129.777 1629.54L794.749 1301.84Z" fill="#A65ED3"/>
<path d="M298.31 1230.98L127.124 1634.84L794.747 1301.84L1478.22 1639.22L1203.81 1027.34L298.31 1230.98Z" fill="url(#paint0_linear)"/>
<path d="M298.311 1230.98L400.257 990.946L566.849 975.077L298.311 1230.98Z" fill="url(#paint1_linear)"/>
<path d="M1203.81 1027.34L878.862 998.881L1156.53 919.557L1203.81 1027.34Z" fill="url(#paint2_linear)"/>
<path d="M566.852 975.076L878.865 998.879L847.15 869.318L566.852 975.076Z" fill="url(#paint3_linear)"/>
<path d="M1156.53 919.556L847.149 869.318L878.865 998.879L1156.53 919.556Z" fill="url(#paint4_linear)"/>
<path d="M298.311 1230.98L677.904 1041.2L566.849 975.077L298.311 1230.98Z" fill="url(#paint5_linear)"/>
<path d="M878.865 998.88L677.906 1041.2L566.852 975.077L878.865 998.88Z" fill="url(#paint6_linear)"/>
<path d="M1203.81 1027.34L878.863 998.881L863.016 1107.31L1203.81 1027.34Z" fill="url(#paint7_linear)"/>
<path d="M677.906 1041.2L863.017 1107.31L878.865 998.881L677.906 1041.2Z" fill="url(#paint8_linear)"/>
<path d="M298.311 1230.98L677.904 1041.2L863.015 1107.31L298.311 1230.98Z" fill="url(#paint9_linear)"/>
<path d="M566.851 975.076L524.55 692.131L400.259 990.945L566.851 975.076Z" fill="url(#paint10_linear)"/>
<path d="M847.148 869.318L524.549 692.131L654.102 870.634L847.148 869.318Z" fill="url(#paint11_linear)"/>
<path d="M566.852 975.076L654.104 870.634L847.15 869.318L566.852 975.076Z" fill="url(#paint12_linear)"/>
<path d="M524.549 692.131L654.102 870.634L566.85 975.076L524.549 692.131Z" fill="url(#paint13_linear)"/>
<path d="M847.149 869.319L885.483 554.616L941.021 775.443L847.149 869.319Z" fill="url(#paint14_linear)"/>
<path d="M1156.53 919.557L941.021 775.443L847.149 869.319L1156.53 919.557Z" fill="url(#paint15_linear)"/>
<path d="M885.481 554.616L1083.81 756.922L941.019 775.443L885.481 554.616Z" fill="url(#paint16_linear)"/>
<path d="M1156.53 919.557L1083.81 756.922L941.021 775.443L1156.53 919.557Z" fill="url(#paint17_linear)"/>
<path d="M524.549 692.132L740.04 680.23L847.148 869.319L524.549 692.132Z" fill="url(#paint18_linear)"/>
<path d="M885.483 554.616L740.041 680.23L847.149 869.319L885.483 554.616Z" fill="url(#paint19_linear)"/>
<path d="M885.482 554.616L738.725 374.797L740.04 680.23L885.482 554.616Z" fill="url(#paint20_linear)"/>
<path d="M524.549 692.132L738.724 374.797L740.04 680.23L524.549 692.132Z" fill="url(#paint21_linear)"/>
<path d="M863.015 1107.31L781.834 1311.62L1203.81 1027.34L863.015 1107.31Z" fill="url(#paint22_linear)"/>
<path d="M298.311 1230.98L781.834 1311.62L545.699 1176.07L298.311 1230.98Z" fill="url(#paint23_linear)"/>
<path d="M863.015 1107.31L781.834 1311.62L545.699 1176.07L863.015 1107.31Z" fill="url(#paint24_linear)"/>
<path d="M127.124 1634.84L298.31 1230.98L299.788 1546.27L127.124 1634.84Z" fill="url(#paint25_linear)"/>
<path d="M781.834 1311.62L479.596 1369.1L298.311 1230.98L781.834 1311.62Z" fill="url(#paint26_linear)"/>
<path d="M299.787 1546.27L479.596 1369.1L781.833 1311.62L299.787 1546.27Z" fill="url(#paint27_linear)"/>
<path d="M298.311 1230.98L479.596 1369.1L299.788 1546.27L298.311 1230.98Z" fill="url(#paint28_linear)"/>
<path d="M677.904 1041.2L545.699 1176.07L863.015 1107.31L677.904 1041.2Z" fill="url(#paint29_linear)"/>
<path d="M1203.81 1027.34L1106.27 1305.63L794.747 1301.84L1203.81 1027.34Z" fill="url(#paint30_linear)"/>
<path d="M1478.22 1639.22L1106.27 1305.63L794.747 1301.84L1478.22 1639.22Z" fill="url(#paint31_linear)"/>
<path d="M1203.81 1027.34L1478.22 1639.22L1106.27 1305.63L1203.81 1027.34Z" fill="url(#paint32_linear)"/>
<path d="M738.724 374.798L785.316 82.9868L524.549 692.132L738.724 374.798Z" fill="url(#paint33_linear)"/>
<path d="M885.482 554.616L785.316 82.9868L738.725 374.798L885.482 554.616Z" fill="url(#paint34_linear)"/>
<path d="M1083.81 756.922L785.317 82.9868L885.483 554.616L1083.81 756.922Z" fill="url(#paint35_linear)"/>
<path d="M794.749 1301.84L1480.85 1633.93L785.318 82.9868L122.734 1633.59L794.749 1301.84Z" fill="url(#paint36_linear)"/>
<defs>
<linearGradient id="paint0_linear" x1="127.129" y1="1333.28" x2="1478.21" y2="1333.28" gradientUnits="userSpaceOnUse">
<stop stop-color="#FC85F3"/>
<stop offset="1" stop-color="#A65ED3"/>
</linearGradient>
<linearGradient id="paint1_linear" x1="298.317" y1="1103.03" x2="566.849" y2="1103.03" gradientUnits="userSpaceOnUse">
<stop stop-color="#FC85F3"/>
<stop offset="1" stop-color="#A65ED3"/>
</linearGradient>
<linearGradient id="paint2_linear" x1="878.872" y1="973.445" x2="1203.8" y2="973.445" gradientUnits="userSpaceOnUse">
<stop stop-color="#FC85F3"/>
<stop offset="1" stop-color="#A65ED3"/>
</linearGradient>
<linearGradient id="paint3_linear" x1="566.851" y1="934.097" x2="878.874" y2="934.097" gradientUnits="userSpaceOnUse">
<stop stop-color="#FC85F3"/>
<stop offset="1" stop-color="#A65ED3"/>
</linearGradient>
<linearGradient id="paint4_linear" x1="847.143" y1="934.097" x2="1156.52" y2="934.097" gradientUnits="userSpaceOnUse">
<stop stop-color="#FC85F3"/>
<stop offset="1" stop-color="#A65ED3"/>
</linearGradient>
<linearGradient id="paint5_linear" x1="298.317" y1="1103.03" x2="677.908" y2="1103.03" gradientUnits="userSpaceOnUse">
<stop stop-color="#FC85F3"/>
<stop offset="1" stop-color="#A65ED3"/>
</linearGradient>
<linearGradient id="paint6_linear" x1="566.851" y1="1008.14" x2="878.874" y2="1008.14" gradientUnits="userSpaceOnUse">
<stop stop-color="#FC85F3"/>
<stop offset="1" stop-color="#A65ED3"/>
</linearGradient>
<linearGradient id="paint7_linear" x1="863.007" y1="1053.1" x2="1203.81" y2="1053.1" gradientUnits="userSpaceOnUse">
<stop stop-color="#FC85F3"/>
<stop offset="1" stop-color="#A65ED3"/>
</linearGradient>
<linearGradient id="paint8_linear" x1="677.91" y1="1053.1" x2="878.874" y2="1053.1" gradientUnits="userSpaceOnUse">
<stop stop-color="#FC85F3"/>
<stop offset="1" stop-color="#A65ED3"/>
</linearGradient>
<linearGradient id="paint9_linear" x1="298.317" y1="1136.09" x2="863.006" y2="1136.09" gradientUnits="userSpaceOnUse">
<stop stop-color="#FC85F3"/>
<stop offset="1" stop-color="#A65ED3"/>
</linearGradient>
<linearGradient id="paint10_linear" x1="400.262" y1="841.542" x2="566.85" y2="841.542" gradientUnits="userSpaceOnUse">
<stop stop-color="#FC85F3"/>
<stop offset="1" stop-color="#A65ED3"/>
</linearGradient>
<linearGradient id="paint11_linear" x1="524.541" y1="781.382" x2="847.141" y2="781.382" gradientUnits="userSpaceOnUse">
<stop stop-color="#FC85F3"/>
<stop offset="1" stop-color="#A65ED3"/>
</linearGradient>
<linearGradient id="paint12_linear" x1="566.851" y1="922.197" x2="847.143" y2="922.197" gradientUnits="userSpaceOnUse">
<stop stop-color="#FC85F3"/>
<stop offset="1" stop-color="#A65ED3"/>
</linearGradient>
<linearGradient id="paint13_linear" x1="524.541" y1="833.609" x2="654.11" y2="833.609" gradientUnits="userSpaceOnUse">
<stop stop-color="#FC85F3"/>
<stop offset="1" stop-color="#A65ED3"/>
</linearGradient>
<linearGradient id="paint14_linear" x1="847.143" y1="711.967" x2="941.014" y2="711.967" gradientUnits="userSpaceOnUse">
<stop stop-color="#FC85F3"/>
<stop offset="1" stop-color="#A65ED3"/>
</linearGradient>
<linearGradient id="paint15_linear" x1="847.143" y1="847.493" x2="1156.52" y2="847.493" gradientUnits="userSpaceOnUse">
<stop stop-color="#FC85F3"/>
<stop offset="1" stop-color="#A65ED3"/>
</linearGradient>
<linearGradient id="paint16_linear" x1="885.483" y1="665.028" x2="1083.8" y2="665.028" gradientUnits="userSpaceOnUse">
<stop stop-color="#FC85F3"/>
<stop offset="1" stop-color="#A65ED3"/>
</linearGradient>
<linearGradient id="paint17_linear" x1="941.014" y1="838.238" x2="1156.52" y2="838.238" gradientUnits="userSpaceOnUse">
<stop stop-color="#FC85F3"/>
<stop offset="1" stop-color="#A65ED3"/>
</linearGradient>
<linearGradient id="paint18_linear" x1="524.541" y1="774.772" x2="847.141" y2="774.772" gradientUnits="userSpaceOnUse">
<stop stop-color="#FC85F3"/>
<stop offset="1" stop-color="#A65ED3"/>
</linearGradient>
<linearGradient id="paint19_linear" x1="740.05" y1="711.967" x2="885.484" y2="711.967" gradientUnits="userSpaceOnUse">
<stop stop-color="#FC85F3"/>
<stop offset="1" stop-color="#A65ED3"/>
</linearGradient>
<linearGradient id="paint20_linear" x1="738.727" y1="527.519" x2="885.483" y2="527.519" gradientUnits="userSpaceOnUse">
<stop stop-color="#FC85F3"/>
<stop offset="1" stop-color="#A65ED3"/>
</linearGradient>
<linearGradient id="paint21_linear" x1="524.541" y1="533.469" x2="740.048" y2="533.469" gradientUnits="userSpaceOnUse">
<stop stop-color="#FC85F3"/>
<stop offset="1" stop-color="#A65ED3"/>
</linearGradient>
<linearGradient id="paint22_linear" x1="781.843" y1="1169.48" x2="1203.8" y2="1169.48" gradientUnits="userSpaceOnUse">
<stop stop-color="#FC85F3"/>
<stop offset="1" stop-color="#A65ED3"/>
</linearGradient>
<linearGradient id="paint23_linear" x1="298.317" y1="1243.85" x2="781.843" y2="1243.85" gradientUnits="userSpaceOnUse">
<stop stop-color="#FC85F3"/>
<stop offset="1" stop-color="#A65ED3"/>
</linearGradient>
<linearGradient id="paint24_linear" x1="545.695" y1="1209.47" x2="863.007" y2="1209.47" gradientUnits="userSpaceOnUse">
<stop stop-color="#FC85F3"/>
<stop offset="1" stop-color="#A65ED3"/>
</linearGradient>
<linearGradient id="paint25_linear" x1="127.129" y1="1432.91" x2="299.778" y2="1432.91" gradientUnits="userSpaceOnUse">
<stop stop-color="#FC85F3"/>
<stop offset="1" stop-color="#A65ED3"/>
</linearGradient>
<linearGradient id="paint26_linear" x1="298.317" y1="1300.04" x2="781.843" y2="1300.04" gradientUnits="userSpaceOnUse">
<stop stop-color="#FC85F3"/>
<stop offset="1" stop-color="#A65ED3"/>
</linearGradient>
<linearGradient id="paint27_linear" x1="299.777" y1="1428.95" x2="781.842" y2="1428.95" gradientUnits="userSpaceOnUse">
<stop stop-color="#FC85F3"/>
<stop offset="1" stop-color="#A65ED3"/>
</linearGradient>
<linearGradient id="paint28_linear" x1="298.317" y1="1388.63" x2="479.588" y2="1388.63" gradientUnits="userSpaceOnUse">
<stop stop-color="#FC85F3"/>
<stop offset="1" stop-color="#A65ED3"/>
</linearGradient>
<linearGradient id="paint29_linear" x1="545.695" y1="1108.63" x2="863.007" y2="1108.63" gradientUnits="userSpaceOnUse">
<stop stop-color="#FC85F3"/>
<stop offset="1" stop-color="#A65ED3"/>
</linearGradient>
<linearGradient id="paint30_linear" x1="794.752" y1="1166.49" x2="1203.81" y2="1166.49" gradientUnits="userSpaceOnUse">
<stop stop-color="#FC85F3"/>
<stop offset="1" stop-color="#A65ED3"/>
</linearGradient>
<linearGradient id="paint31_linear" x1="794.752" y1="1470.53" x2="1478.21" y2="1470.53" gradientUnits="userSpaceOnUse">
<stop stop-color="#FC85F3"/>
<stop offset="1" stop-color="#A65ED3"/>
</linearGradient>
<linearGradient id="paint32_linear" x1="1106.28" y1="1333.28" x2="1478.21" y2="1333.28" gradientUnits="userSpaceOnUse">
<stop stop-color="#FC85F3"/>
<stop offset="1" stop-color="#A65ED3"/>
</linearGradient>
<linearGradient id="paint33_linear" x1="524.541" y1="387.56" x2="785.323" y2="387.56" gradientUnits="userSpaceOnUse">
<stop stop-color="#FC85F3"/>
<stop offset="1" stop-color="#A65ED3"/>
</linearGradient>
<linearGradient id="paint34_linear" x1="738.727" y1="318.805" x2="885.483" y2="318.805" gradientUnits="userSpaceOnUse">
<stop stop-color="#A65ED3"/>
<stop offset="1" stop-color="#FC85F3"/>
</linearGradient>
<linearGradient id="paint35_linear" x1="785.325" y1="419.954" x2="1083.8" y2="419.954" gradientUnits="userSpaceOnUse">
<stop stop-color="#A65ED3"/>
<stop offset="1" stop-color="#FC85F3"/>
</linearGradient>
<linearGradient id="paint36_linear" x1="801.797" y1="82.9868" x2="801.797" y2="1633.94" gradientUnits="userSpaceOnUse">
<stop stop-color="#FC85F3"/>
<stop offset="1" stop-color="#A65ED3"/>
</linearGradient>
</defs>
</svg>
