<?xml version="1.0" encoding="utf-8"?>
<!-- Generator: Adobe Illustrator 25.0.0, SVG Export Plug-In . SVG Version: 6.00 Build 0)  -->
<svg version="1.1" id="Layer_1" xmlns="http://www.w3.org/2000/svg" xmlns:xlink="http://www.w3.org/1999/xlink" x="0px" y="0px"
	 viewBox="0 0 221.9 48.2" style="enable-background:new 0 0 221.9 48.2;" xml:space="preserve">
<style type="text/css">
	.st0{clip-path:url(#SVGID_2_);}
	.st1{fill:#878787;}
	.st2{fill:#FFFFFF;}
	.st3{fill:none;stroke:#666666;stroke-width:3;}
	.st4{fill:#666666;}
	.st5{fill-rule:evenodd;clip-rule:evenodd;fill:#666666;}
</style>
<g>
	<g>
		<defs>
			<rect id="SVGID_1_" x="-11.9" y="-7.9" width="256" height="64"/>
		</defs>
		<clipPath id="SVGID_2_">
			<use xlink:href="#SVGID_1_"  style="overflow:visible;"/>
		</clipPath>
		<g class="st0">
			<path class="st1" d="M58.9,16.1h1.3v-2.7h1.2c1.9,0,2.8-1.1,2.8-2.4c0-1.5-1-2.4-2.9-2.4h-2.5L58.9,16.1L58.9,16.1z M61.4,9.7
				c0.9,0,1.5,0.5,1.5,1.3s-0.5,1.3-1.5,1.3h-1.2V9.7C60.2,9.7,61.4,9.7,61.4,9.7z M68.8,16.3c2.2,0,4-1.7,4-4s-1.8-4-4-4
				c-2.1,0-3.9,1.7-3.9,4S66.6,16.3,68.8,16.3z M68.8,15.1c-1.5,0-2.6-1.1-2.6-2.7s1.1-2.7,2.6-2.7s2.6,1.1,2.6,2.7
				C71.4,13.9,70.3,15.1,68.8,15.1z M74.4,8.5H73l2.2,7.6h1.7l1.5-5.6l1.5,5.6h1.7l2.2-7.6h-1.4l-1.6,6.2l-1.6-6.2h-1.5l-1.6,6.2
				L74.4,8.5z M84.8,16.1h4.9v-1.2h-3.6v-2.1h3.4v-1.2h-3.4v-2h3.6V8.4h-4.9V16.1z M90.8,16.1h1.3v-2.8h1.6l1.4,2.8h1.5l-1.6-3
				c0.9-0.4,1.4-1.2,1.4-2.1c0-1.4-1-2.4-2.9-2.4h-2.7C90.8,8.6,90.8,16.1,90.8,16.1z M93.5,9.7c0.9,0,1.5,0.4,1.5,1.3
				s-0.5,1.2-1.5,1.2h-1.4V9.7H93.5z M97.7,16.1h4.9v-1.2H99v-2.1h3.4v-1.2H99v-2h3.6V8.4h-4.9V16.1z M103.7,16.1h2.1
				c2.9,0,4.6-1.5,4.6-3.8s-1.7-3.8-4.6-3.8h-2.1V16.1z M105.9,14.9H105V9.7h0.9c1.9,0,3.1,0.9,3.1,2.6S107.8,14.9,105.9,14.9z
				 M113.7,16.1h3c1.7,0,2.5-0.9,2.5-2.2c0-0.6-0.3-1.4-1.3-1.8c0.7-0.4,1-1,1-1.6c0-1.2-0.7-2-2.5-2h-2.8L113.7,16.1L113.7,16.1z
				 M116.3,9.6c0.8,0,1.3,0.3,1.3,1c0,0.8-0.3,1.1-1.3,1.1H115V9.6H116.3z M116.6,12.8c0.9,0,1.4,0.4,1.4,1.1s-0.4,1.1-1.4,1.1H115
				v-2.2H116.6z M122.1,16.1h1.3V13l2.6-4.4h-1.5l-1.8,3.2l-1.8-3.2h-1.5l2.7,4.5V16.1z"/>
			<path class="st2" d="M59.2,40.1h3.7v-6h5.9v6h3.7V25h-3.7v5.9h-5.9V25h-3.7V40.1z M74.2,34.8c0,3.6,2.1,5.6,4.6,5.6
				c1.4,0,2.7-0.6,3.5-1.8v1.5H86V29.5h-3.7v1.4c-0.8-1.2-2-1.8-3.5-1.8C76.3,29.2,74.2,31.2,74.2,34.8z M80.1,32.2
				c1.3,0,2.2,1,2.2,2.6s-0.9,2.6-2.2,2.6c-1.4,0-2.2-1.1-2.2-2.6C77.9,33.3,78.7,32.2,80.1,32.2z M91.2,34.8c0-1.8,0.9-2.8,2-2.8
				c0.9,0,1.7,0.6,1.8,1.7h3.8c-0.5-3.5-3.3-4.6-5.5-4.6c-2.8,0-5.7,1.8-5.7,5.6s2.9,5.6,5.7,5.6c2.3,0,5.1-1.1,5.5-4.6H95
				c-0.1,1.2-0.9,1.7-1.8,1.7C92.1,37.6,91.2,36.7,91.2,34.8z M100.3,40.1h3.7v-4.6l3.4,4.6h4.5l-4.5-5.6l4.1-5h-4l-3.6,4.2v-9.9
				h-3.7L100.3,40.1L100.3,40.1z M128.4,34.1c-0.5,2.5-2.1,3-3.6,3c-2.3,0-3.8-1.9-3.8-4.6c0-2.6,1.5-4.6,3.8-4.6c1.5,0,3,0.6,3.5,3
				h3.8c-0.9-5-4.1-6.3-7.3-6.3c-4.5,0-7.5,3.3-7.5,7.9s3.1,7.9,7.5,7.9c3.2,0,6.4-1.2,7.3-6.3C132.1,34.1,128.4,34.1,128.4,34.1z
				 M133.7,40.1h3.7V23.8h-3.7V40.1z M143.1,29.5h-3.7v6.7c0,2.7,1.5,4.2,3.8,4.2c1.2,0,2.3-0.6,3-1.7v1.4h3.7V29.5h-3.8v5.4
				c0,1.7-0.7,2.4-1.5,2.4c-0.9,0-1.5-0.7-1.5-2.1V29.5z M163.7,34.8c0-3.6-2.1-5.6-4.6-5.6c-1.4,0-2.7,0.6-3.5,1.8v-7.2h-3.7v16.3
				h3.7v-1.4c0.8,1.2,2,1.8,3.5,1.8C161.6,40.5,163.7,38.4,163.7,34.8z M157.8,32.2c1.4,0,2.2,1.1,2.2,2.6s-0.8,2.6-2.2,2.6
				c-1.3,0-2.2-1-2.2-2.6S156.5,32.2,157.8,32.2z M170.2,40.1h6.5c3.6,0,5.4-1.9,5.4-4.5c0-1.2-0.5-2.7-2.9-3.4
				c1.7-0.7,2.3-2,2.3-3.2c0-2.2-1.4-4-5.3-4h-6V40.1z M175.8,27.7c1.2,0,1.9,0.5,1.9,1.6c0,1.2-0.6,1.8-2,1.8h-1.8v-3.4
				C173.9,27.7,175.8,27.7,175.8,27.7z M176.2,33.7c1.3,0,2.1,0.6,2.1,1.8s-0.8,1.8-2.1,1.8h-2.3v-3.6H176.2z M183.2,34.8
				c0,3.6,2.1,5.6,4.6,5.6c1.4,0,2.7-0.6,3.5-1.8v1.5h3.7V29.5h-3.7v1.4c-0.8-1.2-2-1.8-3.5-1.8C185.3,29.2,183.2,31.2,183.2,34.8z
				 M189.1,32.2c1.3,0,2.2,1,2.2,2.6s-0.9,2.6-2.2,2.6c-1.4,0-2.2-1.1-2.2-2.6C186.9,33.3,187.7,32.2,189.1,32.2z M197.1,40.1h3.7
				v-5.8c0-1.5,0.7-2.1,1.8-2.1c1,0,1.6,0.7,1.6,2.1v5.8h3.7V34c0-3-1.5-4.8-4-4.8c-1.3,0-2.4,0.6-3.1,1.8v-1.4h-3.7V40.1z
				 M209.9,40.1h3.7v-4.6l3.4,4.6h4.5l-4.5-5.6l4.1-5h-4l-3.6,4.2v-9.9h-3.7v16.3H209.9z"/>
			<circle class="st3" cx="24.1" cy="24.1" r="22.5"/>
			<path class="st4" d="M10.6,36.1c0-0.8,0.7-1.5,1.5-1.5h24c0.8,0,1.5,0.7,1.5,1.5s-0.7,1.5-1.5,1.5h-24
				C11.3,37.6,10.6,36.9,10.6,36.1z"/>
			<path class="st5" d="M24.1,33.1c-0.8,0-1.5-0.7-1.5-1.5V21.1c0-0.8,0.7-1.5,1.5-1.5s1.5,0.7,1.5,1.5v10.5
				C25.6,32.4,24.9,33.1,24.1,33.1z"/>
			<path class="st5" d="M31.6,33.1c-0.8,0-1.5-0.7-1.5-1.5V21.1c0-0.8,0.7-1.5,1.5-1.5s1.5,0.7,1.5,1.5v10.5
				C33.1,32.4,32.4,33.1,31.6,33.1z"/>
			<path class="st5" d="M16.6,33.1c-0.8,0-1.5-0.7-1.5-1.5V21.1c0-0.8,0.7-1.5,1.5-1.5s1.5,0.7,1.5,1.5v10.5
				C18.1,32.4,17.4,33.1,16.6,33.1z"/>
			<path class="st4" d="M24.1,12.1c0.1,0,0.2,0.1,0.3,0.1c0.4,0.2,0.8,0.4,1.3,0.7c1.1,0.6,2.5,1.5,4.1,2.6c3.2,2.2,3.3,2.5,6.7,5.1
				c0.6,0.6,1.5,0.6,2.1,0s0.6-1.5,0-2.1c-3.3-2.7-3.9-3.1-7.1-5.4c-1.6-1.1-3.1-2.1-4.3-2.8C26.6,10,26,9.7,25.6,9.5
				c-0.4-0.2-1-0.4-1.5-0.4S23,9.3,22.6,9.5c-0.4,0.2-1,0.5-1.6,0.8c-1.2,0.7-2.7,1.7-4.3,2.8c-3.2,2.3-3.8,2.7-7.1,5.4
				C9,19.1,9,20,9.6,20.6s1.5,0.6,2.1,0c3.4-2.6,3.6-2.9,6.7-5.1c1.6-1.1,3-2,4.1-2.6c0.5-0.3,1-0.5,1.3-0.7
				C23.9,12.2,24,12.1,24.1,12.1z"/>
		</g>
	</g>
</g>
</svg>
