<svg width="636" height="231" viewBox="0 0 636 231" fill="none" xmlns="http://www.w3.org/2000/svg">
<path d="M405.571 93.3662H388.912V165.506H405.571V93.3662Z" fill="#6C6E70"/>
<path d="M431.621 93.3662L465.613 165.506H482.269L516.66 93.3662H498.39L474.21 146.834L449.893 93.3662H431.621V93.3662Z" fill="#6C6E70"/>
<path d="M200.473 165.636H216.862V156.368C220.356 159.994 228.953 168.055 245.477 168.055C265.897 168.055 283.495 153.547 283.495 129.097C283.495 107.199 268.584 91.0785 244.805 91.0785C230.968 91.0785 224.25 95.9151 217.13 101.02V67.9717H200.473V165.636V165.636ZM217.13 115.259C222.236 111.095 229.088 105.318 241.179 105.318C253.941 105.318 266.569 113.379 266.569 129.635C266.569 145.486 254.613 153.815 241.716 153.815C230.296 153.815 223.58 148.305 217.13 143.338V115.259V115.259Z" fill="#6C6E70"/>
<path d="M572.77 168.034C592.52 168.034 613.209 158.227 613.209 129.478C613.209 110.133 601.52 91.0576 572.77 91.0576C544.021 91.0576 532.333 110.133 532.333 129.478C532.333 158.227 553.021 168.034 572.77 168.034V168.034ZM572.451 154.257C557.542 154.257 548.948 144.988 548.948 129.679C548.948 112.754 559.692 105.769 572.451 105.769C585.076 105.769 595.956 112.754 595.956 129.679C595.956 144.988 587.36 154.257 572.451 154.257Z" fill="#6C6E70"/>
<path d="M310.42 165.615H327.078V127.33C327.213 122.224 327.213 108.118 348.44 107.985C353.946 107.985 357.038 108.926 358.649 109.328V91.327C356.903 91.0576 355.157 91.0576 352.738 91.0576C338.363 91.0576 331.109 98.3104 327.481 104.222H327.078V93.4752H310.42V165.615Z" fill="#6C6E70"/>
<path d="M39.4789 115.968C39.4789 147.662 65.1726 173.356 96.8679 173.356C128.562 173.356 154.254 147.662 154.254 115.968C154.254 84.2741 128.562 58.5804 96.8679 58.5804C65.1726 58.5804 39.4789 84.2741 39.4789 115.968V115.968ZM170.904 115.951C170.904 156.794 137.794 189.902 96.9498 189.902C56.1087 189.902 23 156.794 23 115.951C23 75.1087 56.1087 42 96.9498 42C137.794 42 170.904 75.1087 170.904 115.951Z" fill="#739DD2"/>
<path d="M86.6457 132.391C86.6457 149.393 100.429 163.177 117.431 163.177C134.433 163.177 148.215 149.393 148.215 132.391C148.215 115.39 134.433 101.607 117.431 101.607C100.429 101.607 86.6457 115.39 86.6457 132.391V132.391ZM165.115 132.391C165.115 158.725 143.767 180.073 117.431 180.073C91.0972 180.073 69.7493 158.725 69.7493 132.391C69.7493 106.057 91.0972 84.709 117.431 84.709C143.767 84.709 165.115 106.057 165.115 132.391V132.391Z" fill="#739DD2"/>
</svg>
