<?xml version="1.0" encoding="utf-8"?>
<!-- Generator: Adobe Illustrator 25.0.0, SVG Export Plug-In . SVG Version: 6.00 Build 0)  -->
<svg version="1.1" id="Layer_1" xmlns="http://www.w3.org/2000/svg" xmlns:xlink="http://www.w3.org/1999/xlink" x="0px" y="0px"
	 viewBox="0 0 132.9 38.5" style="enable-background:new 0 0 132.9 38.5;" xml:space="preserve">
<style type="text/css">
	.st0{fill:#8C8C8C;}
	.st1{fill:#E31837;}
	.st2{fill:#B3B3B3;}
</style>
<g>
	<g>
		<g>
			<path class="st0" d="M154,4.6h1.3c0,0-1.6,7.6-1.7,7.9c0,0.1-0.1,0.2-0.2,0.2h-2.1c-0.1,0-0.2-0.1-0.2-0.2c0-0.2-1-6.4-1-6.4H150
				c0,0-1,6.1-1,6.4c0,0.1-0.1,0.2-0.2,0.2h-2.1c-0.1,0-0.2-0.1-0.2-0.2c-0.1-0.3-1.7-7.9-1.7-7.9h1.3l1.4,7h0.5l1.2-7h1.9l1.2,7
				h0.5L154,4.6z"/>
			<path class="st0" d="M156.7,4.6h5.5v1h-4.4V8h3.9v1.1h-3.9v2.5h4.4v1.1h-5.5V4.6z"/>
			<path class="st0" d="M164.4,4.6v0.9c0,0.7-0.1,0.7-1,1.9l-0.5-0.3c0.4-0.9,0.5-0.9,0.5-1.6V4.6H164.4z"/>
			<path class="st0" d="M166.7,12.7h-1.2V4.6h4.1c1.4,0,2.2,0.8,2.2,2.1v0.9c0,1.1-0.5,1.7-1.4,1.9l1.6,3.1h-1.3l-1.6-3h-2.6v3.1
				H166.7z M170.7,7.3V6.8c0-0.9-0.4-1.3-1.3-1.3h-2.8v3.1h2.8C170.4,8.6,170.7,8.2,170.7,7.3z"/>
			<path class="st0" d="M173.6,4.6h5.5v1h-4.4V8h3.9v1.1h-3.9v2.5h4.4v1.1h-5.5V4.6z"/>
			<path class="st0" d="M188.6,10.3h-3.5l-0.8,2.3H183c0,0,2.6-7.7,2.6-7.9c0-0.2,0.1-0.2,0.3-0.2h1.8c0.2,0,0.3,0,0.3,0.2
				c0.1,0.2,2.6,7.9,2.6,7.9h-1.2L188.6,10.3z M185.4,9.2h2.9l-1.2-3.7h-0.5L185.4,9.2z"/>
			<path class="st0" d="M192.1,4.6h1.2v7h4.2v1.1h-5.4V4.6z"/>
			<path class="st0" d="M198.6,4.6h1.2v7h4.2v1.1h-5.4V4.6z"/>
			<path class="st0" d="M210.8,8.2h3.5l-0.1,4.2c0,0.2-0.2,0.2-0.2,0.2s-2.2,0.1-4.1,0.1c-1.4,0-2.2-0.9-2.2-2.2V6.6
				c0-1.3,0.8-2.2,2.2-2.2c2.2,0,3.9,0.1,3.9,0.1v1h-3.6c-0.9,0-1.3,0.4-1.3,1.3v3.5c0,0.9,0.4,1.3,1.3,1.3h2.9l0.1-2.3l-2.4-0.1
				V8.2L210.8,8.2z"/>
			<path class="st0" d="M221.1,10.3h-3.5l-0.8,2.3h-1.3c0,0,2.6-7.7,2.6-7.9c0-0.2,0.1-0.2,0.3-0.2h1.8c0.2,0,0.3,0,0.3,0.2
				c0.1,0.2,2.6,7.9,2.6,7.9h-1.3L221.1,10.3z M217.8,9.2h2.9l-1.2-3.7H219L217.8,9.2z"/>
			<path class="st0" d="M231.3,4.6c0,0,0-0.1,0.1-0.1h1.6v8.1h-1.2V6.5h-0.1l-2.3,6c0,0,0,0.1-0.1,0.1h-1.2c-0.1,0-0.1-0.1-0.1-0.1
				l-2.3-6h-0.1v6.1h-1.2V4.5h1.6c0.1,0,0.1,0.1,0.1,0.1l2.5,6.4h0.2L231.3,4.6z"/>
			<path class="st0" d="M235,4.6h5.5v1h-4.4V8h3.9v1.1h-3.9v2.5h4.4v1.1H235V4.6z"/>
			<path class="st0" d="M243.4,12.7h-1.2V4.6h4.1c1.4,0,2.2,0.8,2.2,2.1v0.9c0,1.1-0.5,1.7-1.4,1.9l1.6,3.1h-1.3l-1.6-3h-2.4V12.7z
				 M247.5,7.3V6.8c0-0.9-0.4-1.3-1.3-1.3h-2.8v3.1h2.8C247.1,8.6,247.5,8.2,247.5,7.3z"/>
			<path class="st0" d="M255.9,5.6h-3.5c-1,0-1.2,0.1-1.2,0.9v0.3c0,0.4,0.1,0.5,0.6,0.6c0,0,2.4,0.5,3.1,0.6c1,0.2,1.4,0.6,1.4,1.6
				v1.1c0,1.4-0.6,2-2.4,2c-2,0-3.9-0.1-3.9-0.1v-1h3.8c1.1,0,1.4-0.2,1.4-1.1V9.8c0-0.4-0.1-0.6-0.6-0.7c-0.7-0.1-2.4-0.5-2.9-0.5
				c-1.1-0.2-1.7-0.3-1.7-1.5V6.4c0-1.4,0.6-1.9,2.4-1.9c2,0,3.4,0.1,3.4,0.1L255.9,5.6z"/>
			<path class="st0" d="M258.2,11.3c0.4,0,0.7,0.3,0.7,0.7c0,0.4-0.3,0.7-0.7,0.7c-0.4,0-0.7-0.3-0.7-0.7
				C257.5,11.6,257.9,11.3,258.2,11.3z"/>
		</g>
	</g>
	<rect x="138.1" y="2.6" class="st0" width="0.5" height="12.1"/>
	<g>
		<g>
			<g>
				<g>
					<g>
						<g>
							<path class="st1" d="M29.5,14.7h4.4c0,0,1-3.3,1.1-3.6c0.2-0.1,9.3-5.3,9.3-5.3l1-3.2h-4.4c0,0-0.4,1.3-0.5,1.6
								c-0.2,0.1-6.6,3.8-6.9,3.9c-0.2-0.2-4-3.5-4.3-3.8c0.1-0.4,0.5-1.7,0.5-1.7h-0.4h-4l-0.9,3c0,0,5.8,5.1,6.2,5.4
								C30.5,11.5,29.5,14.7,29.5,14.7z"/>
							<path class="st1" d="M66.7,9.8l-1.5,4.9h20l1-3.2c0,0-13.7,0-15.2,0c1-0.4,6.7-2.8,6.7-2.8s-4.6-2.5-5.2-2.9
								c0.6,0,15.4,0,15.4,0l1-3.2h-0.5H68.8l-1.4,4.8c0,0,1.4,0.8,2.2,1.2C68.6,9,66.7,9.8,66.7,9.8z"/>
						</g>
						<g>
							<polygon class="st1" points="8,2.6 3.6,2.6 0,14.7 4.4,14.7 							"/>
							<path class="st1" d="M23.1,2.6h-4c0,0-1.2,4-1.3,4.4c-0.3,0-7.2,0-10,0l-1,3.2c2.7,0,9.4,0,10,0c-0.3,0.8-1.3,4.5-1.3,4.5
								h4.4l3.6-12.1H23.1z"/>
						</g>
						<path class="st1" d="M50.3,5.8c0.3,0,10.4,0,11.2,0c-0.1,0.2-0.2,0.8-0.3,1c-0.2,0.1-3.7,1.5-3.8,1.6c-0.1,0-4.5,0-6.7,0
							l-1,3.2c2.5,0,8.4,0,8.4,0L65,8.7l1.8-6.1h-0.4H46.8l-3.6,12.1h4.4L50.3,5.8z"/>
					</g>
					<g>
						<path class="st1" d="M88.4,10.6l-1.2,4h4.4c0,0,0.8-2.5,0.9-3.1C91.2,11.2,89.9,10.9,88.4,10.6z"/>
						<path class="st1" d="M102.6,11.4l6.4-2.6l1.9-6.2h-0.5H90.8L88.9,9C92.9,9.1,97.7,9.7,102.6,11.4z M94.3,5.8
							c0.3,0,10.4,0,11.2,0c-0.1,0.5-0.3,0.9-0.3,1.1c-0.2,0.1-3.4,1.4-3.4,1.4c-0.1,0-7.4,0-8.2,0C93.7,7.8,94.2,6.1,94.3,5.8z"/>
					</g>
				</g>
				<g>
					<path class="st2" d="M130.4,38.5c-3-8.9-7.5-15.2-12.7-19.7c4.6-4.5,7.8-10.6,8.3-18.8c0,0-1.9,8.2-12,16
						C99,5.8,81.1,8.7,81.1,8.7c11.9,0.9,21.7,5,29.3,9.9c-9.5,6-24.4,11.2-48,11.4c0,0,33.8,5.1,52.2-8.4
						C125.1,29.6,130.4,38.5,130.4,38.5z"/>
				</g>
			</g>
		</g>
	</g>
	<g>
		<path d="M129.6,2.6V3h-0.8v2.1h-0.5V3h-0.8V2.6H129.6z M132.4,5.1l-0.1-1.5c0-0.2,0-0.4,0-0.7l0,0c-0.1,0.2-0.1,0.5-0.2,0.8
			l-0.5,1.4h-0.5l-0.5-1.5c0-0.2-0.1-0.5-0.2-0.7l0,0c0,0.2,0,0.5,0,0.7l-0.1,1.5h-0.5l0.2-2.6h0.8l0.4,1.3c0.1,0.2,0.1,0.4,0.2,0.6
			l0,0c0.1-0.2,0.1-0.5,0.2-0.6l0.4-1.3h0.7l0.2,2.6C132.9,5.1,132.4,5.1,132.4,5.1z"/>
	</g>
</g>
</svg>
