<?xml version="1.0" encoding="utf-8"?>
<!-- Generator: Adobe Illustrator 24.0.0, SVG Export Plug-In . SVG Version: 6.00 Build 0)  -->
<svg version="1.1" id="Layer_1" xmlns="http://www.w3.org/2000/svg" xmlns:xlink="http://www.w3.org/1999/xlink" x="0px" y="0px"
	 viewBox="0 0 331.7 162.9" style="enable-background:new 0 0 331.7 162.9;" xml:space="preserve">
<style type="text/css">
	.st0{fill:#8C8C8C;}
	.st1{fill:#E31837;}
	.st2{fill:#B3B3B3;}
</style>
<g>
	<g>
		<g>
			<path class="st0" d="M192.6,65.4h1.3c0,0-1.6,7.6-1.7,7.9c0,0.1-0.1,0.2-0.2,0.2h-2.1c-0.1,0-0.2-0.1-0.2-0.2c0-0.2-1-6.4-1-6.4
				h-0.1c0,0-1,6.1-1,6.4c0,0.1-0.1,0.2-0.2,0.2h-2.1c-0.1,0-0.2-0.1-0.2-0.2c-0.1-0.3-1.7-7.9-1.7-7.9h1.3l1.4,7h0.5l1.2-7h1.9
				l1.2,7h0.5L192.6,65.4z"/>
			<path class="st0" d="M195.3,65.4h5.5v1h-4.4v2.4h3.9v1.1h-3.9v2.5h4.4v1.1h-5.5V65.4z"/>
			<path class="st0" d="M203,65.4v0.9c0,0.7-0.1,0.7-1,1.9l-0.5-0.3c0.4-0.9,0.5-0.9,0.5-1.6v-0.9H203z"/>
			<path class="st0" d="M205.3,73.5h-1.2v-8.1h4.1c1.4,0,2.2,0.8,2.2,2.1v0.9c0,1.1-0.5,1.7-1.4,1.9l1.6,3.1h-1.3l-1.6-3h-2.6V73.5z
				 M209.3,68.1v-0.5c0-0.9-0.4-1.3-1.3-1.3h-2.8v3.1h2.8C209,69.4,209.3,69,209.3,68.1z"/>
			<path class="st0" d="M212.2,65.4h5.5v1h-4.4v2.4h3.9v1.1h-3.9v2.5h4.4v1.1h-5.5V65.4z"/>
			<path class="st0" d="M227.2,71.1h-3.5l-0.8,2.3h-1.3c0,0,2.6-7.7,2.6-7.9c0-0.2,0.1-0.2,0.3-0.2h1.8c0.2,0,0.3,0,0.3,0.2
				c0.1,0.2,2.6,7.9,2.6,7.9H228L227.2,71.1z M224,70h2.9l-1.2-3.7h-0.5L224,70z"/>
			<path class="st0" d="M230.7,65.4h1.2v7h4.2v1.1h-5.4V65.4z"/>
			<path class="st0" d="M237.2,65.4h1.2v7h4.2v1.1h-5.4V65.4z"/>
			<path class="st0" d="M249.4,69h3.5l-0.1,4.2c0,0.2-0.2,0.2-0.2,0.2c0,0-2.2,0.1-4.1,0.1c-1.4,0-2.2-0.9-2.2-2.2v-3.9
				c0-1.3,0.8-2.2,2.2-2.2c2.2,0,3.9,0.1,3.9,0.1l0,1h-3.6c-0.9,0-1.3,0.4-1.3,1.3v3.5c0,0.9,0.4,1.3,1.3,1.3l2.9,0l0.1-2.3
				l-2.4-0.1V69z"/>
			<path class="st0" d="M259.7,71.1h-3.5l-0.8,2.3h-1.3c0,0,2.6-7.7,2.6-7.9c0-0.2,0.1-0.2,0.3-0.2h1.8c0.2,0,0.3,0,0.3,0.2
				c0.1,0.2,2.6,7.9,2.6,7.9h-1.3L259.7,71.1z M256.4,70h2.9l-1.2-3.7h-0.5L256.4,70z"/>
			<path class="st0" d="M269.9,65.4c0,0,0-0.1,0.1-0.1h1.6v8.1h-1.2v-6.1h-0.1l-2.3,6c0,0,0,0.1-0.1,0.1h-1.2
				c-0.1,0-0.1-0.1-0.1-0.1l-2.3-6h-0.1v6.1h-1.2v-8.1h1.6c0.1,0,0.1,0.1,0.1,0.1l2.5,6.4h0.2L269.9,65.4z"/>
			<path class="st0" d="M273.6,65.4h5.5v1h-4.4v2.4h3.9v1.1h-3.9v2.5h4.4v1.1h-5.5V65.4z"/>
			<path class="st0" d="M282,73.5h-1.2v-8.1h4.1c1.4,0,2.2,0.8,2.2,2.1v0.9c0,1.1-0.5,1.7-1.4,1.9l1.6,3.1h-1.3l-1.6-3H282V73.5z
				 M286.1,68.1v-0.5c0-0.9-0.4-1.3-1.3-1.3H282v3.1h2.8C285.7,69.4,286.1,69,286.1,68.1z"/>
			<path class="st0" d="M294.5,66.4H291c-1,0-1.2,0.1-1.2,0.9v0.3c0,0.4,0.1,0.5,0.6,0.6c0,0,2.4,0.5,3.1,0.6c1,0.2,1.4,0.6,1.4,1.6
				v1.1c0,1.4-0.6,2-2.4,2c-2,0-3.9-0.1-3.9-0.1l0-1h3.8c1.1,0,1.4-0.2,1.4-1.1v-0.7c0-0.4-0.1-0.6-0.6-0.7
				c-0.7-0.1-2.4-0.5-2.9-0.5c-1.1-0.2-1.7-0.3-1.7-1.5v-0.7c0-1.4,0.6-1.9,2.4-1.9c2,0,3.4,0.1,3.4,0.1L294.5,66.4z"/>
			<path class="st0" d="M296.8,72.1c0.4,0,0.7,0.3,0.7,0.7c0,0.4-0.3,0.7-0.7,0.7c-0.4,0-0.7-0.3-0.7-0.7
				C296.1,72.4,296.5,72.1,296.8,72.1z"/>
		</g>
	</g>
	<rect x="176.7" y="63.4" class="st0" width="0.5" height="12.1"/>
	<g>
		<g>
			<g>
				<g>
					<g>
						<g>
							<path class="st1" d="M68.1,75.5h4.4c0,0,1-3.3,1.1-3.6c0.2-0.1,9.3-5.3,9.3-5.3l1-3.2h-4.4c0,0-0.4,1.3-0.5,1.6
								c-0.2,0.1-6.6,3.8-6.9,3.9c-0.2-0.2-4-3.5-4.3-3.8c0.1-0.4,0.5-1.7,0.5-1.7h-0.4h-4l-0.9,3c0,0,5.8,5.1,6.2,5.4
								C69.1,72.3,68.1,75.5,68.1,75.5z"/>
							<path class="st1" d="M105.3,70.6l-1.5,4.9h20l1-3.2c0,0-13.7,0-15.2,0c1-0.4,6.7-2.8,6.7-2.8s-4.6-2.5-5.2-2.9
								c0.6,0,15.4,0,15.4,0l1-3.2H127h-19.6l-1.4,4.8c0,0,1.4,0.8,2.2,1.2C107.2,69.8,105.3,70.6,105.3,70.6z"/>
						</g>
						<g>
							<polygon class="st1" points="46.6,63.4 42.2,63.4 38.6,75.5 43,75.5 							"/>
							<path class="st1" d="M61.7,63.4h-4c0,0-1.2,4-1.3,4.4c-0.3,0-7.2,0-10,0l-1,3.2c2.7,0,9.4,0,10,0c-0.3,0.8-1.3,4.5-1.3,4.5
								h4.4l3.6-12.1H61.7z"/>
						</g>
						<path class="st1" d="M88.9,66.6c0.3,0,10.4,0,11.2,0c-0.1,0.2-0.2,0.8-0.3,1c-0.2,0.1-3.7,1.5-3.8,1.6c-0.1,0-4.5,0-6.7,0
							l-1,3.2c2.5,0,8.4,0,8.4,0l6.9-2.9l1.8-6.1H105H85.4l-3.6,12.1h4.4L88.9,66.6z"/>
					</g>
					<g>
						<path class="st1" d="M127,71.4l-1.2,4h4.4c0,0,0.8-2.5,0.9-3.1C129.8,72,128.5,71.7,127,71.4z"/>
						<path class="st1" d="M141.2,72.2l6.4-2.6l1.9-6.2H149h-19.6l-1.9,6.4C131.5,69.9,136.3,70.5,141.2,72.2z M132.9,66.6
							c0.3,0,10.4,0,11.2,0c-0.1,0.5-0.3,0.9-0.3,1.1c-0.2,0.1-3.4,1.4-3.4,1.4c-0.1,0-7.4,0-8.2,0
							C132.3,68.6,132.8,66.9,132.9,66.6z"/>
					</g>
				</g>
				<g>
					<path class="st2" d="M169,99.3c-3-8.9-7.5-15.2-12.7-19.7c4.6-4.5,7.8-10.6,8.3-18.8c0,0-1.9,8.2-12,16
						c-15-10.2-32.9-7.3-32.9-7.3c11.9,0.9,21.7,5,29.3,9.9c-9.5,6-24.4,11.2-48,11.4c0,0,33.8,5.1,52.2-8.4
						C163.7,90.4,169,99.3,169,99.3z"/>
				</g>
			</g>
		</g>
	</g>
	<g>
		<path d="M168.2,63.4v0.4h-0.8v2.1h-0.5v-2.1h-0.8v-0.4H168.2z M171,65.9l-0.1-1.5c0-0.2,0-0.4,0-0.7h0c-0.1,0.2-0.1,0.5-0.2,0.8
			l-0.5,1.4h-0.5l-0.5-1.5c0-0.2-0.1-0.5-0.2-0.7h0c0,0.2,0,0.5,0,0.7l-0.1,1.5h-0.5l0.2-2.6h0.8l0.4,1.3c0.1,0.2,0.1,0.4,0.2,0.6h0
			c0.1-0.2,0.1-0.5,0.2-0.6l0.4-1.3h0.7l0.2,2.6H171z"/>
	</g>
</g>
</svg>
