<svg width="1311" height="494" viewBox="0 0 1311 494" fill="none" xmlns="http://www.w3.org/2000/svg">
<g clip-path="url(#clip0)">
<path d="M664.713 348.12L735.459 490.856C735.879 491.503 736.372 492.099 736.928 492.632C736.372 492.099 735.879 491.503 735.459 490.856L664.713 348.12Z" fill="white"/>
<path d="M737.684 106.183C738.571 105.617 739.514 105.145 740.5 104.774C739.514 105.145 738.571 105.617 737.684 106.183V106.183Z" fill="white"/>
<path d="M733.174 110.595C733.789 109.558 734.568 108.627 735.48 107.838C734.568 108.627 733.789 109.558 733.174 110.595V110.595Z" fill="white"/>
<path d="M755.702 493.347C798.298 494.928 840.952 493.884 883.421 490.223V490.223C840.952 493.884 798.298 494.928 755.702 493.347V493.347Z" fill="white"/>
<path d="M547.177 476.397C586.702 480.747 625.963 484.851 664.713 488.016C625.943 484.851 586.702 480.747 547.177 476.397Z" fill="white"/>
<path d="M1199.71 109.287C1199.74 110.55 1199.41 111.796 1198.77 112.881C1199.41 111.796 1199.74 110.55 1199.71 109.287V109.287Z" fill="white"/>
<path d="M762.272 291.597L850.119 150.862L955.126 340.115L850.119 150.862L762.272 291.597Z" fill="white"/>
<path d="M491.775 103.733H390.849C388.689 103.911 386.672 104.888 385.193 106.474C383.714 108.06 382.878 110.141 382.85 112.31V288.738L284.148 111.085C282.804 108.804 280.884 106.917 278.581 105.612C276.278 104.308 273.673 103.632 271.027 103.652H172.305C171.212 103.694 170.139 103.951 169.146 104.41C168.153 104.868 167.26 105.518 166.519 106.322C165.777 107.127 165.202 108.07 164.826 109.097C164.45 110.125 164.28 111.217 164.326 112.31V451.016C202.975 449.362 242.235 449.811 281.863 451.669V312.712L362.587 457.122C408.439 461.001 454.515 466.066 500.387 471.191V112.31C500.409 111.174 500.201 110.045 499.776 108.992C499.35 107.939 498.716 106.982 497.912 106.181C497.107 105.38 496.148 104.75 495.094 104.329C494.039 103.908 492.91 103.706 491.775 103.733V103.733Z" fill="white"/>
<path d="M1192.48 103.733H1073.81C1070.24 103.834 1066.86 105.295 1064.34 107.817C1066.86 105.295 1070.24 103.834 1073.81 103.733H1192.48C1196.34 103.733 1199.54 105.98 1199.71 109.288C1199.54 105.98 1196.34 103.733 1192.48 103.733Z" fill="white"/>
<path d="M733.174 110.595L664.713 240.2L733.174 110.595Z" fill="white"/>
<path d="M555.155 103.733H656.163C657.871 103.697 659.548 104.186 660.968 105.136C662.388 106.086 663.482 107.45 664.101 109.043C663.482 107.45 662.388 106.086 660.968 105.136C659.548 104.186 657.871 103.697 656.163 103.733H555.155C553.565 103.842 552.037 104.398 550.749 105.338C549.46 106.277 548.462 107.561 547.871 109.043C548.462 107.561 549.46 106.277 550.749 105.338C552.037 104.398 553.565 103.842 555.155 103.733V103.733Z" fill="white"/>
<path d="M811.205 103.733H954.045C956.159 103.794 958.233 104.324 960.117 105.285C962.002 106.245 963.649 107.612 964.941 109.288C963.647 107.61 961.996 106.241 960.108 105.28C958.22 104.32 956.142 103.791 954.024 103.733H746.295C744.312 103.756 742.349 104.137 740.5 104.856C742.349 104.137 744.312 103.756 746.295 103.733H811.205Z" fill="white"/>
<path d="M735.48 107.838C736.16 107.241 736.898 106.714 737.684 106.266C736.898 106.714 736.16 107.241 735.48 107.838V107.838Z" fill="white"/>
<path d="M1192.48 103.733H1073.81C1070.24 103.833 1066.86 105.295 1064.34 107.817C1062.79 109.275 1061.55 111.023 1060.68 112.963L1013.89 215.737L967.227 112.882C966.652 111.588 965.904 110.379 965.002 109.288C963.71 107.612 962.062 106.245 960.178 105.285C958.294 104.324 956.22 103.794 954.106 103.733H746.295C744.311 103.756 742.348 104.137 740.5 104.856C739.515 105.227 738.571 105.699 737.684 106.265C736.898 106.714 736.16 107.241 735.48 107.838C734.568 108.627 733.789 109.557 733.174 110.594L664.713 240.2V112.31C664.719 111.192 664.512 110.083 664.101 109.043C663.482 107.45 662.388 106.086 660.968 105.136C659.548 104.186 657.871 103.697 656.163 103.733H555.155C553.565 103.842 552.037 104.398 550.749 105.338C549.46 106.277 548.462 107.561 547.871 109.043C547.417 110.072 547.181 111.184 547.177 112.31V476.398C586.702 480.747 625.963 484.852 664.713 488.017V348.12L735.46 490.855C735.879 491.502 736.372 492.098 736.929 492.632C743.214 492.918 749.458 493.142 755.702 493.346C798.299 494.927 840.952 493.884 883.421 490.222L762.272 291.597L850.119 150.863L955.126 340.115V479.869C995.739 472.012 1035.22 459.137 1072.66 441.541V340.115L1198.77 112.882C1199.42 111.796 1199.74 110.55 1199.71 109.288C1199.54 105.98 1196.34 103.733 1192.48 103.733Z" fill="white"/>
<path d="M108.986 103.734H7.9786C5.82175 103.916 3.80997 104.895 2.33508 106.481C0.860193 108.066 0.0277928 110.144 0 112.31L0 474.05C38.5774 464.249 77.8847 457.591 117.536 454.14V112.31C117.558 111.179 117.353 110.056 116.931 109.007C116.509 107.958 115.881 107.004 115.083 106.204C114.285 105.403 113.333 104.772 112.286 104.347C111.238 103.923 110.116 103.714 108.986 103.734V103.734Z" fill="white"/>
<path d="M1205.24 8.27009H1221.22V49.9881H1231.13V8.27009H1247.09V0H1205.24V8.27009Z" fill="white"/>
<path d="M1307.14 0H1292.86L1284.23 24.6265C1283.13 28.3021 1282.02 32.529 1280.74 37.1235H1280.55C1279.27 31.9777 1278.35 28.3021 1277.25 24.4427L1268.58 0H1253.7L1250.03 49.9881H1259.58L1261.41 20.5833C1261.6 15.9888 1261.78 11.2106 1261.78 6.61607H1262.33C1263.43 11.0268 1264.9 16.8261 1265.82 20.7671L1274.82 49.3551H1285.02L1294.02 21.6043C1295.49 17.0098 1296.96 11.1289 1298.25 6.71817H1298.8C1298.98 12.0478 1298.98 16.8261 1299.16 20.6854L1301 50.0902H1310.92L1307.14 0Z" fill="white"/>
</g>
<defs>
<clipPath id="clip0">
<rect width="1311" height="494" fill="white"/>
</clipPath>
</defs>
</svg>
