<svg width="961" height="344" viewBox="0 0 961 344" fill="none" xmlns="http://www.w3.org/2000/svg">
<path d="M57.6999 53.6C56.8999 54.5 56.7999 190.7 57.5999 193.7C58.1999 195.9 58.6999 196 68.0999 196H77.9999V124.5V53H68.1999C62.7999 53 57.9999 53.3 57.6999 53.6Z" fill="white"/>
<path d="M382 53.5C382 53.8 382 85.3 382 123.5C382 161.7 382 193.7 382 194.5C382 195.7 383.7 196 391 196H400V163.6V131.2L395.4 130.1C390 128.7 386 124.8 386 120.8C386 116.6 389.5 110 395 103.8L400 98.2V75.6V53H391C386.1 53 382 53.2 382 53.5Z" fill="white"/>
<path d="M427 65.1002V77.2002L429.3 75.8002C430.5 75.0002 434.8 72.4002 438.8 70.1002L446 65.8002V59.4002V53.0002H436.5H427V65.1002Z" fill="white"/>
<path d="M522 69.6002V86.2002L525.8 83.9002C527.8 82.6002 530.3 81.1002 531.3 80.6002C532.7 79.7002 533 78.0002 533 70.8002V62.0002H543.4H553.8L556.9 58.1002C558.6 56.0002 560 53.9002 560 53.6002C560 53.3002 551.5 53.0002 541 53.0002H522V69.6002Z" fill="white"/>
<path d="M730 61.5V70H734.5H739V61.5V53H734.5H730V61.5Z" fill="white"/>
<path d="M564.8 57.8L561.2 61.6L569.2 62.8C586.6 65.3 596 75.2 596 91C596 103.3 589.7 112.7 578.5 117.1C573.1 119.2 570.5 119.4 552.8 119.8L533 120.2V102.1C533 92.1 532.8 84 532.5 84C532.2 84 529.8 85.4 527 87.1L522 90.2V142.6V195H527.5H533.1L532.8 162.1L532.5 129.2L553 128.8C572 128.4 574.1 128.1 581.4 125.6C599.8 119.3 607.8 107.6 606.8 88.1C606.5 81.1 605.9 78.6 603.7 74.5C598.3 64.8 592.8 60.3 581.8 56.6C571.3 53 569.2 53.2 564.8 57.8Z" fill="white"/>
<path d="M478.1 63.2998C471.2 66.7998 469.7 75.4998 475.1 80.8998C483.6 89.3998 497.7 79.5998 492.5 68.6998C490.8 65.1998 486 61.9998 482.3 61.9998C481.3 61.9998 479.4 62.5998 478.1 63.2998Z" fill="white"/>
<path d="M439 72.1C435.4 74.3 431.3 76.9 429.8 77.8L427 79.5V102.2C427 114.8 427.3 125 427.6 125C428 125 432.2 124.1 437.1 122.9L446 120.8V94.4C446 79.9 445.9 68 445.8 68C445.6 68 442.6 69.8 439 72.1Z" fill="white"/>
<path d="M881.6 75.4004L878 79.7004V90.9004V102H865.5H853V106V110H865.5H878V145.3C878 165.3 878.4 182 879 183.9C880.2 188.1 884.2 192.5 889.2 195.1C894 197.5 905.5 197.6 912.5 195.2L917.5 193.5L917.8 188.6C918.1 184.2 917.9 183.8 916.3 184.5C911 186.7 905.2 188 901.1 187.9C893.7 187.7 891.7 186.8 889.5 182.5C887.7 178.8 887.5 175.9 887.2 144.2L886.8 110H900.4H914V106V102H900.5H887V86.5004C887 77.6004 886.6 71.0004 886.1 71.0004C885.6 71.0004 883.5 73.0004 881.6 75.4004Z" fill="white"/>
<path d="M215.8 99.6997C206.5 108.9 199 117 199 117.7C199 118.7 201.1 119 207 119H215V147C215 172.7 215.2 175.4 217.1 180.4C219.6 187.2 226 193.2 233.2 195.6C240.1 197.9 254.3 197.1 262.3 194.1L268 191.9V183V174.1L262.3 176.7C254.8 180 243.2 181 239.5 178.6C234.1 175 233.6 172.7 233.2 144.7L232.8 119H247.9H263V110.5V102H248.6C238 102 234.1 101.7 233.7 100.7C233.5 100.1 233.3 95.7997 233.4 91.1997C233.4 86.6997 233.3 82.9997 233 82.9997C232.7 82.9997 225 90.4997 215.8 99.6997Z" fill="white"/>
<path d="M142.5 101.7C137.6 103.7 133.5 106.4 129.3 110.4L126 113.4V107.7V102H116.5H107V149V196H116.5H126V162.2V128.5L129 124.8C133.3 119.6 141.4 115.9 148.5 115.9C156.4 115.9 160.9 118.3 164 124.6C166.5 129.5 166.5 129.6 166.8 162.7L167.1 196H176.6H186V165.7C186 149.1 185.5 132.3 185 128.5C183.2 116.1 177.8 108 167.7 102.8C162 99.9 148.3 99.2 142.5 101.7Z" fill="white"/>
<path d="M305.5 102C294.3 105.7 284.8 115.3 279.8 127.9C276.5 136.4 276 155.4 278.9 164.9C282.6 176.9 291.2 187.6 301.5 192.8C313.8 198.9 335.7 198.3 351 191.4C359.4 187.7 359.8 187 359.7 177.2C359.7 172.7 359.3 169 358.8 169C358.3 169 356.2 170.1 354 171.5C347 175.9 336 179 327.3 179C312.7 179 304.5 174.6 299.3 164C297.6 160.4 295.9 156 295.6 154.2L295.1 151H328H361V145.7C361 126.8 352.2 110.7 338.3 103.8C332.3 100.9 330.6 100.5 321.6 100.3C313.7 100.1 310.2 100.4 305.5 102ZM327.3 117.1C334.7 119.1 340.3 126.2 342.4 136.2L343 139H319.4H295.8L296.5 136.2C300.1 121.4 313.3 113.2 327.3 117.1Z" fill="white"/>
<path d="M647 101.4C635.3 103.9 625.1 111.3 618.2 122.3C613.3 130.2 611 138.5 611 148.6C611 168.7 620.3 184.1 637.8 192.7L645.4 196.5H658.4C671.3 196.5 671.6 196.4 678.5 193.1C703 181.1 712.6 151.8 700.5 126.2C691.2 106.6 669.4 96.5 647 101.4ZM674.7 113.6C698.2 124.8 703 159.6 683.7 177.8C675.3 185.6 670.7 187.4 658.4 187.5C648.8 187.5 648 187.3 641.4 184C636.3 181.4 633.4 179 629.8 174.6C623.3 166.4 621.5 160.9 621.5 148.5C621.6 136 623.9 129.4 631.1 121.5C642.5 109.1 659 106.1 674.7 113.6Z" fill="white"/>
<path d="M800.5 100.9C793.6 102.9 789.1 105.6 783.3 111.5L777.1 117.8L776.8 110.2L776.5 102.5H772H767.5L767.2 148.7L767 195H772H777V161.7V128.3L782.6 122.2C789.3 114.7 794.6 111.5 802.3 110.1C815.9 107.6 826.5 113 831.2 124.9C833.3 130.2 833.4 132.2 833.8 162.7L834.2 195H838.6H843.1L842.8 160.7C842.5 127.4 842.4 126.3 840.1 120.6C835.4 108.8 824.2 101.2 810.7 100.5C806.8 100.3 802.2 100.5 800.5 100.9Z" fill="white"/>
<path d="M730 148.5V195H734.5H739V148.5V102H734.5H730V148.5Z" fill="white"/>
<path d="M482 110.1L473.5 113.9L473.2 155L473 196H482.5H492V151C492 126.2 491.7 106 491.3 106.1C490.8 106.2 486.7 107.9 482 110.1Z" fill="white"/>
<path d="M435.3 126.4L427 128.5V162.2V196H436.5H446V160C446 131.8 445.7 124 444.8 124.2C444.1 124.2 439.8 125.2 435.3 126.4Z" fill="white"/>
<path d="M92.416 266.926V274.445C87.403 277.18 81.6152 278.547 75.0527 278.547C69.7207 278.547 65.1976 277.476 61.4834 275.334C57.7692 273.192 54.8298 270.241 52.665 266.481C50.5003 262.722 49.418 258.654 49.418 254.279C49.418 247.329 51.8903 241.485 56.835 236.745C61.8024 232.006 67.9206 229.636 75.1895 229.636C80.2025 229.636 85.7738 230.946 91.9033 233.566V240.915C86.3206 237.725 80.8633 236.13 75.5312 236.13C70.0625 236.13 65.5166 237.862 61.8936 241.325C58.2933 244.766 56.4932 249.084 56.4932 254.279C56.4932 259.52 58.2705 263.827 61.8252 267.199C65.3799 270.572 69.9258 272.258 75.4629 272.258C81.2507 272.258 86.9017 270.48 92.416 266.926ZM143.754 229.567C151.137 229.567 157.278 231.903 162.177 236.574C167.099 241.245 169.56 247.102 169.56 254.143C169.56 261.184 167.076 267.017 162.108 271.643C157.164 276.245 150.92 278.547 143.378 278.547C136.177 278.547 130.173 276.245 125.365 271.643C120.58 267.017 118.188 261.229 118.188 254.279C118.188 247.147 120.603 241.245 125.434 236.574C130.264 231.903 136.371 229.567 143.754 229.567ZM144.027 236.062C138.559 236.062 134.058 237.771 130.526 241.188C127.017 244.606 125.263 248.97 125.263 254.279C125.263 259.429 127.029 263.713 130.561 267.131C134.092 270.549 138.513 272.258 143.822 272.258C149.154 272.258 153.598 270.515 157.152 267.028C160.73 263.542 162.519 259.201 162.519 254.006C162.519 248.947 160.73 244.698 157.152 241.257C153.598 237.793 149.223 236.062 144.027 236.062ZM235.355 230.251H241.85V278H235.971L204.047 241.257V278H197.621V230.251H203.158L235.355 267.302V230.251ZM283.412 257.971L278.217 254.826C274.958 252.844 272.634 250.896 271.244 248.981C269.877 247.045 269.193 244.823 269.193 242.316C269.193 238.557 270.492 235.503 273.09 233.156C275.71 230.809 279.105 229.636 283.275 229.636C287.263 229.636 290.92 230.752 294.247 232.985V240.744C290.806 237.44 287.104 235.788 283.139 235.788C280.906 235.788 279.071 236.312 277.636 237.36C276.2 238.386 275.482 239.707 275.482 241.325C275.482 242.761 276.007 244.105 277.055 245.358C278.103 246.612 279.8 247.922 282.147 249.289L287.377 252.365C293.21 255.829 296.127 260.249 296.127 265.627C296.127 269.455 294.84 272.565 292.265 274.958C289.713 277.351 286.386 278.547 282.284 278.547C277.567 278.547 273.272 277.1 269.398 274.206V265.524C273.09 270.196 277.362 272.531 282.216 272.531C284.358 272.531 286.135 271.939 287.548 270.754C288.983 269.546 289.701 268.042 289.701 266.242C289.701 263.326 287.605 260.568 283.412 257.971ZM356.352 230.251H363.222V257.355C363.222 261.024 362.948 263.793 362.401 265.661C361.877 267.53 361.216 269.09 360.419 270.344C359.644 271.574 358.687 272.679 357.548 273.659C353.765 276.918 348.821 278.547 342.714 278.547C336.493 278.547 331.503 276.929 327.743 273.693C326.604 272.691 325.635 271.574 324.838 270.344C324.063 269.09 323.414 267.564 322.89 265.764C322.388 263.964 322.138 261.138 322.138 257.287V230.251H329.008V257.355C329.008 261.844 329.521 264.966 330.546 266.721C331.571 268.475 333.132 269.888 335.229 270.959C337.325 272.007 339.797 272.531 342.646 272.531C346.701 272.531 350.006 271.472 352.558 269.353C353.902 268.213 354.87 266.869 355.463 265.319C356.055 263.77 356.352 261.115 356.352 257.355V230.251ZM392.172 230.251H399.008V271.779H420.507V278H392.172V230.251ZM433.153 230.183H473.041V236.267H456.396V278H449.525V236.267H433.153V230.183ZM499.086 230.251H505.922V278H499.086V230.251ZM573.939 230.251H580.434V278H574.555L542.631 241.257V278H536.205V230.251H541.742L573.939 267.302V230.251ZM635.976 254.484H652.006V274.719C646.127 277.271 640.294 278.547 634.506 278.547C626.599 278.547 620.276 276.245 615.536 271.643C610.819 267.017 608.461 261.32 608.461 254.553C608.461 247.421 610.91 241.485 615.81 236.745C620.709 232.006 626.85 229.636 634.232 229.636C636.921 229.636 639.473 229.932 641.889 230.524C644.304 231.094 647.357 232.154 651.049 233.703V240.676C645.352 237.372 639.701 235.72 634.096 235.72C628.878 235.72 624.48 237.497 620.902 241.052C617.325 244.606 615.536 248.97 615.536 254.143C615.536 259.566 617.325 263.998 620.902 267.438C624.48 270.879 629.083 272.6 634.711 272.6C637.445 272.6 640.715 271.973 644.521 270.72L645.17 270.515V260.568H635.976V254.484ZM679.623 286.271V285.007C680.648 284.027 681.366 283.036 681.776 282.033C682.187 281.053 682.426 279.709 682.494 278C680.079 277.294 678.871 275.801 678.871 273.522C678.871 272.292 679.281 271.232 680.102 270.344C680.945 269.432 681.936 268.977 683.075 268.977C684.465 268.977 685.604 269.592 686.493 270.822C687.382 272.053 687.826 273.625 687.826 275.539C687.826 278.068 687.097 280.29 685.639 282.204C684.18 284.118 682.175 285.474 679.623 286.271ZM748.324 230.251H755.16V278H748.324V230.251ZM823.178 230.251H829.672V278H823.793L791.869 241.257V278H785.443V230.251H790.98L823.178 267.302V230.251ZM900.561 266.926V274.445C895.548 277.18 889.76 278.547 883.197 278.547C877.865 278.547 873.342 277.476 869.628 275.334C865.914 273.192 862.974 270.241 860.81 266.481C858.645 262.722 857.562 258.654 857.562 254.279C857.562 247.329 860.035 241.485 864.979 236.745C869.947 232.006 876.065 229.636 883.334 229.636C888.347 229.636 893.918 230.946 900.048 233.566V240.915C894.465 237.725 889.008 236.13 883.676 236.13C878.207 236.13 873.661 237.862 870.038 241.325C866.438 244.766 864.638 249.084 864.638 254.279C864.638 259.52 866.415 263.827 869.97 267.199C873.524 270.572 878.07 272.258 883.607 272.258C889.395 272.258 895.046 270.48 900.561 266.926ZM913.104 270.378C914.267 270.378 915.258 270.777 916.078 271.574C916.898 272.372 917.309 273.352 917.309 274.514C917.309 275.653 916.898 276.61 916.078 277.385C915.281 278.16 914.289 278.547 913.104 278.547C911.942 278.547 910.963 278.16 910.165 277.385C909.368 276.61 908.969 275.653 908.969 274.514C908.969 273.352 909.368 272.372 910.165 271.574C910.963 270.777 911.942 270.378 913.104 270.378Z" fill="white"/>
<mask id="path-19-inside-1" fill="white">
<path fill-rule="evenodd" clip-rule="evenodd" d="M488.724 110.147C540.113 87.0019 576.045 55.7781 568.982 40.4062C561.918 25.0344 514.533 31.3356 463.144 54.4803C411.755 77.6251 375.822 108.849 382.886 124.221C389.95 139.593 437.335 133.291 488.724 110.147ZM486.843 104.477C529.227 85.3877 558.864 59.6348 553.038 46.9563C547.212 34.2779 508.129 39.475 465.744 58.5644C423.36 77.6539 393.723 103.407 399.549 116.085C405.375 128.764 444.458 123.567 486.843 104.477Z"/>
</mask>
<path fill-rule="evenodd" clip-rule="evenodd" d="M488.724 110.147C540.113 87.0019 576.045 55.7781 568.982 40.4062C561.918 25.0344 514.533 31.3356 463.144 54.4803C411.755 77.6251 375.822 108.849 382.886 124.221C389.95 139.593 437.335 133.291 488.724 110.147ZM486.843 104.477C529.227 85.3877 558.864 59.6348 553.038 46.9563C547.212 34.2779 508.129 39.475 465.744 58.5644C423.36 77.6539 393.723 103.407 399.549 116.085C405.375 128.764 444.458 123.567 486.843 104.477Z" fill="white"/>
<path d="M568.982 40.4062L569.89 39.9887V39.9887L568.982 40.4062ZM463.144 54.4803L462.733 53.5686L463.144 54.4803ZM382.886 124.221L381.978 124.638L382.886 124.221ZM553.038 46.9563L552.129 47.3739V47.3739L553.038 46.9563ZM486.843 104.477L486.432 103.565L486.843 104.477ZM465.744 58.5644L466.155 59.4762L465.744 58.5644ZM399.549 116.085L400.458 115.668L399.549 116.085ZM568.073 40.8238C569.636 44.2246 568.901 48.685 565.784 54.0297C562.683 59.3477 557.337 65.3322 550.117 71.6068C535.685 84.147 513.945 97.6909 488.313 109.235L489.135 111.058C514.892 99.4576 536.812 85.8172 551.428 73.1164C558.731 66.7705 564.256 60.6202 567.512 55.0372C570.752 49.4808 571.859 44.2737 569.89 39.9887L568.073 40.8238ZM463.554 55.3921C489.186 43.8483 513.784 36.5218 532.816 33.9909C542.339 32.7246 550.411 32.6668 556.501 33.8473C562.623 35.034 566.508 37.4193 568.073 40.8238L569.89 39.9887C567.923 35.7072 563.236 33.1158 556.881 31.8839C550.494 30.6458 542.183 30.7277 532.553 32.0083C513.279 34.5712 488.491 41.9677 462.733 53.5686L463.554 55.3921ZM383.795 123.803C382.232 120.402 382.967 115.942 386.084 110.597C389.185 105.279 394.53 99.2948 401.751 93.0202C416.183 80.4799 437.923 66.9361 463.554 55.3921L462.733 53.5686C436.976 65.1693 415.055 78.8098 400.439 91.5105C393.136 97.8565 387.612 104.007 384.356 109.59C381.116 115.146 380.009 120.353 381.978 124.638L383.795 123.803ZM488.313 109.235C462.682 120.779 438.084 128.105 419.051 130.636C409.529 131.902 401.457 131.96 395.367 130.78C389.245 129.593 385.359 127.208 383.795 123.803L381.978 124.638C383.945 128.92 388.631 131.511 394.987 132.743C401.374 133.981 409.685 133.899 419.315 132.619C438.588 130.056 463.377 122.659 489.135 111.058L488.313 109.235ZM552.129 47.3739C553.383 50.1014 552.809 53.7148 550.249 58.1045C547.705 62.4675 543.312 67.3889 537.363 72.5578C525.477 82.8867 507.561 94.0491 486.432 103.565L487.253 105.389C508.509 95.8158 526.604 84.5569 538.675 74.0674C544.706 68.8271 549.278 63.74 551.977 59.1119C554.66 54.5106 555.606 50.1505 553.946 46.5388L552.129 47.3739ZM466.155 59.4762C487.284 49.96 507.556 43.9233 523.232 41.8387C531.077 40.7955 537.713 40.75 542.71 41.7186C547.739 42.6934 550.874 44.6427 552.129 47.3739L553.946 46.5388C552.288 42.9306 548.353 40.7752 543.091 39.7552C537.797 38.729 530.921 38.7987 522.969 39.8561C507.051 41.9728 486.589 48.0794 465.334 57.6526L466.155 59.4762ZM400.458 115.668C399.204 112.94 399.778 109.327 402.338 104.937C404.882 100.574 409.275 95.6527 415.224 90.4838C427.11 80.1548 445.026 68.9925 466.155 59.4762L465.334 57.6526C444.078 67.2258 425.983 78.4846 413.912 88.9741C407.881 94.2145 403.309 99.3016 400.61 103.93C397.927 108.531 396.981 112.891 398.64 116.503L400.458 115.668ZM486.432 103.565C465.303 113.082 445.031 119.118 429.355 121.203C421.51 122.246 414.874 122.292 409.877 121.323C404.848 120.348 401.713 118.399 400.458 115.668L398.64 116.503C400.299 120.111 404.234 122.266 409.496 123.286C414.79 124.313 421.666 124.243 429.618 123.185C445.536 121.069 465.998 114.962 487.253 105.389L486.432 103.565Z" fill="white" mask="url(#path-19-inside-1)"/>
</svg>
