<svg id="Logo" xmlns="http://www.w3.org/2000/svg" viewBox="0 0 607.99 156.01"><defs><style>.cls-1{fill:#fff;}</style></defs><g id="Logo-2" data-name="Logo"><path class="cls-1" d="M127.94,105.47a18,18,0,1,1,18-18,17.78,17.78,0,0,1-18,18m33-36.69V56.39H139.11a34.15,34.15,0,0,0-11.17-2c-18.84,0-33.66,14.34-33.66,33.05s14.82,33.05,33.66,33.05,33.65-14.34,33.65-33.05c0-6.32-1.7-12.51-5.1-17.13ZM55.28,105.47a18,18,0,1,1,18-18,17.79,17.79,0,0,1-18,18m0-51c-18.83,0-33.65,14.34-33.65,33.05s14.82,33.05,33.65,33.05S88.93,106.2,88.93,87.49s-14.82-33-33.65-33M0,118.71H15.55V30H0Zm167.79,0h15.55V56.39H167.79Zm-39.85,22.12A17.66,17.66,0,0,1,110.08,123H94.28c0,18.71,14.82,33,33.66,33s33.65-14.33,33.65-33H145.8a17.66,17.66,0,0,1-17.86,17.86M240.56,81.05c2.07-8.26,8.38-12.88,16.52-12.88s14.22,4.5,16.16,12.88Zm16.89-26.61c-18.71,0-32.93,14.34-32.93,33.41,0,18.84,13,32.69,33.17,32.69,11.18,0,21.14-4.13,28.43-11.91L275.67,98.3c-5.1,4.86-10.57,8.39-17.61,8.39-8.51,0-14.95-4.86-17.13-13H289.4V89.92c0-21.26-13.12-35.48-31.95-35.48m137.65,0a25.17,25.17,0,0,0-18.83,7.9V30H360.72v88.69h15.55V84.82c0-9,5.71-15.19,15.19-15.19,8.87,0,13.73,5.47,13.73,15.19v33.89h15.55V82c0-17.25-10.81-27.58-25.64-27.58M328,69.51c6.56,0,11.91,3.4,16,8.14L354.89,67a33.69,33.69,0,0,0-26.61-12.52c-18.83,0-33.65,14.34-33.65,33.05s14.82,33.05,33.65,33.05A33.69,33.69,0,0,0,354.89,108L344.08,97.33c-4,4.62-9.48,8.14-16.16,8.14-10,0-17.62-7.77-17.62-18s7.65-18,17.74-18M214,37.19H198.4v19.2H190V70.24h8.38v48.47H214V70.24h8.51V56.39H214Zm-38.51-8.87a10.27,10.27,0,1,0,10.45,10.33,10.15,10.15,0,0,0-10.45-10.33M538.94,0V31.46a44.34,44.34,0,1,0,0,88.67v31.45c-42.08,0-76.33-34-76.33-75.79S496.86,0,538.94,0ZM540,62.17V93.46H576.7v36.68H608v-68Z"/></g></svg>