<?xml version="1.0" encoding="UTF-8"?>
<svg width="1100px" height="400px" viewBox="0 0 1100 400" version="1.1" xmlns="http://www.w3.org/2000/svg" xmlns:xlink="http://www.w3.org/1999/xlink">
    <!-- Generator: Sketch 50.2 (55047) - http://www.bohemiancoding.com/sketch -->
    <title>Modus-Logo-Primary-White</title>
    <desc>Created with Sketch.</desc>
    <defs></defs>
    <g id="Modus-Logo-Primary-White" stroke="none" stroke-width="1" fill="none" fill-rule="evenodd">
        <path d="M165.625,200.583 C165.625,208.93 164.061,216.907 161.218,224.248 C128.613,207.774 106.25,173.984 106.25,134.958 C106.25,123.151 108.303,111.824 112.06,101.308 C121.647,102.46 130.814,104.973 139.369,108.642 C136.158,116.794 134.375,125.666 134.375,134.958 C134.375,159.423 146.609,181.017 165.283,193.995 C165.5,196.163 165.625,198.358 165.625,200.583 Z M145.037,111.281 C177.642,127.756 200,161.557 200,200.583 C200,255.812 155.229,300.583 100,300.583 L100,272.458 C139.696,272.458 171.875,240.278 171.875,200.583 C171.875,176.112 159.636,154.51 140.955,141.53 C140.74,139.368 140.625,137.177 140.625,134.958 C140.625,126.608 142.192,118.626 145.037,111.281 Z M248.16,232.617 C259.939,256.23 284.318,272.458 312.5,272.458 L312.5,300.583 C271.358,300.583 236.025,275.735 220.674,240.229 C230.307,238.922 239.528,236.326 248.16,232.617 Z M241.347,190.389 C232.854,195.78 223.047,199.276 212.507,200.276 C212.662,149.268 251.001,107.251 300.444,101.309 C303.566,110.043 305.486,119.345 306.054,129.011 C272.764,131.972 246.001,157.617 241.347,190.389 Z M277.391,145.164 C285.887,139.766 295.698,136.26 306.246,135.261 C306.083,190.35 261.377,234.958 206.25,234.958 C204.36,234.958 202.483,234.901 200.619,234.798 C203.629,225.942 205.499,216.561 206.063,206.828 C206.125,206.829 206.187,206.833 206.25,206.833 C242.479,206.833 272.434,180.023 277.391,145.164 Z" id="Icon" fill="#FFFFFF"></path>
        <path d="M502.558,187.577 L475.494,250.583 L462.176,250.583 L435.255,187.577 L435.255,250.583 L412.917,250.583 L412.917,150.488 L443.131,150.488 L468.907,213.781 L494.826,150.488 L524.897,150.488 L524.897,250.583 L502.558,250.583 L502.558,187.577 Z M646.835,238.478 C636.113,248.632 622.915,253.708 607.238,253.708 C591.56,253.708 578.36,248.632 567.641,238.478 C556.92,228.323 551.56,215.693 551.56,200.583 C551.56,185.476 556.92,172.844 567.641,162.69 C578.36,152.536 591.56,147.458 607.238,147.458 C622.915,147.458 636.113,152.536 646.835,162.69 C657.554,172.844 662.917,185.476 662.917,200.583 C662.917,215.693 657.554,228.323 646.835,238.478 Z M638.794,200.658 C638.794,191.485 635.76,183.66 629.691,177.185 C623.623,170.709 616.163,167.472 607.313,167.472 C598.462,167.472 591.005,170.709 584.937,177.185 C578.867,183.66 575.834,191.485 575.834,200.658 C575.834,209.831 578.867,217.631 584.937,224.057 C591.005,230.482 598.462,233.694 607.313,233.694 C616.163,233.694 623.623,230.482 629.691,224.057 C635.76,217.631 638.794,209.831 638.794,200.658 Z M766.463,163.59 C776.319,172.326 781.25,184.475 781.25,200.035 C781.25,215.596 776.443,227.911 766.832,236.979 C757.221,246.05 742.557,250.583 722.841,250.583 L687.5,250.583 L687.5,150.488 L724.023,150.488 C742.457,150.488 756.604,154.856 766.463,163.59 Z M749.532,223.089 C755.199,217.934 758.034,210.44 758.034,200.607 C758.034,190.776 755.199,183.208 749.532,177.911 C743.861,172.612 735.162,169.963 723.433,169.963 L710.568,169.963 L710.568,230.821 L725.206,230.821 C735.755,230.821 743.861,228.244 749.532,223.089 Z M834.871,226.954 C838.688,231.586 843.824,233.899 850.282,233.899 C856.74,233.899 861.853,231.586 865.62,226.954 C869.386,222.325 871.271,216 871.271,207.98 L871.271,150.583 L894.167,150.583 L894.167,208.696 C894.167,223.209 890.058,234.354 881.838,242.134 C873.619,249.915 863.1,253.804 850.282,253.804 C837.462,253.804 826.921,249.891 818.652,242.062 C810.383,234.235 806.25,223.112 806.25,208.696 L806.25,150.583 L829.146,150.583 L829.146,207.98 C829.146,216 831.056,222.325 834.871,226.954 Z M950.262,170.12 C948.077,171.934 946.984,174.333 946.984,177.32 C946.984,180.31 948.318,182.684 950.99,184.448 C953.659,186.211 959.824,188.293 969.487,190.694 C979.147,193.095 986.648,196.696 991.989,201.494 C997.328,206.296 1000,213.302 1000,222.51 C1000,231.72 996.577,239.189 989.731,244.921 C982.887,250.652 973.879,253.518 962.715,253.518 C946.596,253.518 932.079,247.492 919.167,235.441 L932.712,218.689 C943.684,228.389 953.83,233.237 963.152,233.237 C967.326,233.237 970.603,232.333 972.982,230.519 C975.361,228.707 976.551,226.257 976.551,223.171 C976.551,220.085 975.288,217.637 972.764,215.822 C970.238,214.012 965.239,212.175 957.763,210.312 C945.915,207.472 937.249,203.772 931.766,199.217 C926.278,194.661 923.536,187.511 923.536,177.761 C923.536,168.014 927.007,160.494 933.949,155.203 C940.891,149.913 949.557,147.268 959.948,147.268 C966.743,147.268 973.541,148.443 980.338,150.794 C987.134,153.146 993.057,156.478 998.106,160.788 L986.601,177.541 C977.764,170.781 968.636,167.4 959.219,167.4 C955.433,167.4 952.446,168.308 950.262,170.12 Z" id="Modus" fill="#FFFFFF"></path>
    </g>
</svg>