<?xml version="1.0" encoding="utf-8"?>
<!-- Generator: Adobe Illustrator 22.0.1, SVG Export Plug-In . SVG Version: 6.00 Build 0)  -->
<svg version="1.1" id="Layer_1" xmlns="http://www.w3.org/2000/svg" xmlns:xlink="http://www.w3.org/1999/xlink" x="0px" y="0px"
	 viewBox="0 0 365.3 114.3" style="enable-background:new 0 0 365.3 114.3;" xml:space="preserve">
<style type="text/css">
	.st0{fill:#EF7878;}
	.st1{fill:#FFFFFF;}
	.st2{fill:#222222;}
</style>
<g>
	<g>
		<path class="st0" d="M76,23.8c-18.7,0-33.8,15.1-33.8,33.8S57.3,91.5,76,91.5s33.8-15.1,33.8-33.8S94.7,23.8,76,23.8z"/>
	</g>
	<g>
		<g>
			<path class="st1" d="M67.1,43.5c-2.6-1.4-5.5-2.5-8.5-3.2c-0.6,1.3-0.9,2.6-0.9,4.1c0,2.2,0.7,4.2,1.9,5.8
				C61.5,47.4,64,45.1,67.1,43.5z"/>
			<path class="st1" d="M92.4,50.3c1.2-1.6,1.9-3.6,1.9-5.8c0-1.5-0.3-2.9-0.9-4.1c-3,0.6-5.9,1.7-8.5,3.2
				C87.9,45.1,90.5,47.4,92.4,50.3z"/>
		</g>
		<g>
			<path class="st1" d="M79.9,56.1c-0.5,0-0.9,0.4-0.9,0.9c0,0.2,0.1,0.4,0.2,0.5l0,0c0.3,0.4,0.8,0.8,1.3,0.9
				c0.2-0.3,0.3-0.7,0.3-1.1c0-0.1,0-0.3,0-0.4C80.8,56.5,80.4,56.1,79.9,56.1z"/>
			<path class="st1" d="M75.3,42.6c-9.9,0.4-17.6,8.8-17.6,18.7v10.3c0,1.8,1.5,3.3,3.3,3.3c1.8,0,3.3-1.5,3.3-3.3v-2.7h23.2v2.7
				c0,1.8,1.5,3.3,3.3,3.3c1.8,0,3.3-1.5,3.3-3.3V60.9C94.2,50.6,85.7,42.3,75.3,42.6z M84.1,57.9c-0.4,0.8-1.2,1.4-2.1,1.6
				c-0.6,1.1-1.7,1.9-3.1,1.9c-0.1,0-0.3,0-0.4,0c-0.5,0-0.9-0.4-0.9-0.9c0-0.5,0.4-0.9,0.9-0.9v0c0.4,0,0.8-0.1,1.1-0.3
				c-0.5-0.2-1-0.6-1.3-1C78,58,77.9,57.5,77.9,57c0-1.1,0.9-2.1,2.1-2.1c0.7,0,1.3,0.3,1.7,0.8c0.5,0.6,0.8,1.4,0.8,2.2
				c0,0.1,0,0.2,0,0.3c0.4-0.2,0.7-0.5,0.9-0.8c0.1-0.2,0.4-0.3,0.6-0.1C84.2,57.4,84.3,57.7,84.1,57.9z"/>
		</g>
	</g>
	<g>
		<g>
			<path class="st2" d="M128,44.8h4.5v2.2c0,1-0.1,1.9-0.1,1.9h0.1c0,0,2.2-4.6,8.5-4.6c6.8,0,11.1,5.4,11.1,13.3
				c0,8.1-4.9,13.3-11.5,13.3c-5.6,0-7.8-4.2-7.8-4.2h-0.1c0,0,0.1,0.9,0.1,2.2v11.4H128V44.8z M139.9,66.5c4,0,7.3-3.3,7.3-9.1
				c0-5.5-3-9.1-7.2-9.1c-3.8,0-7.3,2.7-7.3,9.1C132.7,62,135.2,66.5,139.9,66.5z"/>
			<path class="st2" d="M170.9,44.2c7.6,0,13.7,5.6,13.7,13.2c0,7.7-6.1,13.3-13.7,13.3s-13.7-5.6-13.7-13.3
				C157.2,49.7,163.3,44.2,170.9,44.2z M170.9,66.5c4.8,0,8.7-3.8,8.7-9.1c0-5.3-3.9-9-8.7-9c-4.8,0-8.7,3.8-8.7,9
				C162.2,62.7,166.1,66.5,170.9,66.5z"/>
			<path class="st2" d="M191.3,44.8h4.7v4.4c0,1.1-0.1,1.9-0.1,1.9h0.1c1.2-3.7,4.1-6.6,8-6.6c0.7,0,1.3,0.1,1.3,0.1v4.8
				c0,0-0.7-0.1-1.4-0.1c-3.1,0-6,2.2-7.1,6c-0.5,1.5-0.6,3-0.6,4.6v10.4h-4.9V44.8z"/>
			<path class="st2" d="M211,34.8h4.9v19.3h3.6l6.9-9.3h5.5l-8.4,11.2V56l9.4,14.1h-5.7l-7.6-11.9h-3.7v11.9H211V34.8z"/>
			<path class="st2" d="M238.3,34.8h4.9v11.6c0,1.3-0.1,2.2-0.1,2.2h0.1c0,0,2.2-4.3,8.1-4.3c6.8,0,11.1,5.4,11.1,13.3
				c0,8.1-4.9,13.3-11.5,13.3c-5.7,0-8-4.4-8-4.4h-0.1c0,0,0.1,0.8,0.1,1.9v1.9h-4.6V34.8z M250.2,66.5c4,0,7.3-3.3,7.3-9.1
				c0-5.5-3-9.1-7.2-9.1c-3.8,0-7.3,2.7-7.3,9.1C243,62,245.4,66.5,250.2,66.5z"/>
			<path class="st2" d="M269,44.8h4.9v15.1c0,3.5,0.7,6.3,4.8,6.3c5.2,0,8.2-4.6,8.2-9.6V44.8h4.9v25.3H287v-3.4
				c0-1.1,0.1-1.9,0.1-1.9H287c-1.1,2.5-4.4,5.8-9.3,5.8c-5.7,0-8.7-3-8.7-9.7V44.8z"/>
			<path class="st2" d="M300.3,44.8h4.7v3.4c0,1-0.1,1.9-0.1,1.9h0.1c1-2.2,4-5.8,9.5-5.8c6,0,8.7,3.3,8.7,9.7v16.2h-4.9V55
				c0-3.6-0.8-6.4-4.8-6.4c-3.9,0-7,2.6-8,6.2c-0.3,1-0.4,2.2-0.4,3.4v11.9h-4.9V44.8z"/>
		</g>
	</g>
</g>
</svg>
