<?xml version="1.0" encoding="utf-8"?>
<!-- Generator: Adobe Illustrator 25.0.0, SVG Export Plug-In . SVG Version: 6.00 Build 0)  -->
<svg version="1.1" id="Layer_1" xmlns="http://www.w3.org/2000/svg" xmlns:xlink="http://www.w3.org/1999/xlink" x="0px" y="0px"
	 viewBox="0 0 281 67.7" style="enable-background:new 0 0 281 67.7;" xml:space="preserve">
<style type="text/css">
	.st0{fill:#EF7878;}
	.st1{fill:#FFFFFF;}
	.st2{fill:#222222;}
</style>
<g>
	<g>
		<path class="st0" d="M33.8,0C15.1,0,0,15.1,0,33.8s15.1,33.9,33.8,33.9s33.8-15.1,33.8-33.8S52.5,0,33.8,0z"/>
	</g>
	<g>
		<g>
			<path class="st1" d="M24.9,19.7c-2.6-1.4-5.5-2.5-8.5-3.2c-0.6,1.3-0.9,2.6-0.9,4.1c0,2.2,0.7,4.2,1.9,5.8
				C19.3,23.6,21.8,21.3,24.9,19.7z"/>
			<path class="st1" d="M50.2,26.5c1.2-1.6,1.9-3.6,1.9-5.8c0-1.5-0.3-2.9-0.9-4.1c-3,0.6-5.9,1.7-8.5,3.2
				C45.7,21.3,48.3,23.6,50.2,26.5z"/>
		</g>
		<g>
			<path class="st1" d="M37.7,32.3c-0.5,0-0.9,0.4-0.9,0.9c0,0.2,0.1,0.4,0.2,0.5l0,0c0.3,0.4,0.8,0.8,1.3,0.9
				c0.2-0.3,0.3-0.7,0.3-1.1c0-0.1,0-0.3,0-0.4C38.6,32.7,38.2,32.3,37.7,32.3z"/>
			<path class="st1" d="M33.1,18.8c-9.9,0.4-17.6,8.8-17.6,18.7v10.3c0,1.8,1.5,3.3,3.3,3.3s3.3-1.5,3.3-3.3v-2.7h23.2v2.7
				c0,1.8,1.5,3.3,3.3,3.3s3.3-1.5,3.3-3.3V37.1C52,26.8,43.5,18.5,33.1,18.8z M41.9,34.1c-0.4,0.8-1.2,1.4-2.1,1.6
				c-0.6,1.1-1.7,1.9-3.1,1.9c-0.1,0-0.3,0-0.4,0c-0.5,0-0.9-0.4-0.9-0.9s0.4-0.9,0.9-0.9l0,0c0.4,0,0.8-0.1,1.1-0.3
				c-0.5-0.2-1-0.6-1.3-1c-0.3-0.3-0.4-0.8-0.4-1.3c0-1.1,0.9-2.1,2.1-2.1c0.7,0,1.3,0.3,1.7,0.8c0.5,0.6,0.8,1.4,0.8,2.2
				c0,0.1,0,0.2,0,0.3c0.4-0.2,0.7-0.5,0.9-0.8c0.1-0.2,0.4-0.3,0.6-0.1C42,33.6,42.1,33.9,41.9,34.1z"/>
		</g>
	</g>
	<g>
		<g>
			<path class="st2" d="M85.8,21h4.5v2.2c0,1-0.1,1.9-0.1,1.9h0.1c0,0,2.2-4.6,8.5-4.6c6.8,0,11.1,5.4,11.1,13.3
				c0,8.1-4.9,13.3-11.5,13.3c-5.6,0-7.8-4.2-7.8-4.2h-0.1c0,0,0.1,0.9,0.1,2.2v11.4h-4.8V21z M97.7,42.7c4,0,7.3-3.3,7.3-9.1
				c0-5.5-3-9.1-7.2-9.1c-3.8,0-7.3,2.7-7.3,9.1C90.5,38.2,93,42.7,97.7,42.7z"/>
			<path class="st2" d="M128.7,20.4c7.6,0,13.7,5.6,13.7,13.2c0,7.7-6.1,13.3-13.7,13.3S115,41.3,115,33.6S121.1,20.4,128.7,20.4z
				 M128.7,42.7c4.8,0,8.7-3.8,8.7-9.1s-3.9-9-8.7-9s-8.7,3.8-8.7,9C120,38.9,123.9,42.7,128.7,42.7z"/>
			<path class="st2" d="M149.1,21h4.7v4.4c0,1.1-0.1,1.9-0.1,1.9h0.1c1.2-3.7,4.1-6.6,8-6.6c0.7,0,1.3,0.1,1.3,0.1v4.8
				c0,0-0.7-0.1-1.4-0.1c-3.1,0-6,2.2-7.1,6c-0.5,1.5-0.6,3-0.6,4.6v10.4h-4.9V21z"/>
			<path class="st2" d="M168.8,11h4.9v19.3h3.6l6.9-9.3h5.5l-8.4,11.2l0,0l9.4,14.1H185l-7.6-11.9h-3.7v11.9h-4.9V11z"/>
			<path class="st2" d="M196.1,11h4.9v11.6c0,1.3-0.1,2.2-0.1,2.2h0.1c0,0,2.2-4.3,8.1-4.3c6.8,0,11.1,5.4,11.1,13.3
				c0,8.1-4.9,13.3-11.5,13.3c-5.7,0-8-4.4-8-4.4h-0.1c0,0,0.1,0.8,0.1,1.9v1.9h-4.6L196.1,11L196.1,11z M208,42.7
				c4,0,7.3-3.3,7.3-9.1c0-5.5-3-9.1-7.2-9.1c-3.8,0-7.3,2.7-7.3,9.1C200.8,38.2,203.2,42.7,208,42.7z"/>
			<path class="st2" d="M226.8,21h4.9v15.1c0,3.5,0.7,6.3,4.8,6.3c5.2,0,8.2-4.6,8.2-9.6V21h4.9v25.3h-4.8v-3.4
				c0-1.1,0.1-1.9,0.1-1.9h-0.1c-1.1,2.5-4.4,5.8-9.3,5.8c-5.7,0-8.7-3-8.7-9.7V21z"/>
			<path class="st2" d="M258.1,21h4.7v3.4c0,1-0.1,1.9-0.1,1.9h0.1c1-2.2,4-5.8,9.5-5.8c6,0,8.7,3.3,8.7,9.7v16.2h-4.9V31.2
				c0-3.6-0.8-6.4-4.8-6.4c-3.9,0-7,2.6-8,6.2c-0.3,1-0.4,2.2-0.4,3.4v11.9H258L258.1,21L258.1,21z"/>
		</g>
	</g>
</g>
</svg>
