<svg width="1045" height="382" viewBox="0 0 1045 382" fill="none" xmlns="http://www.w3.org/2000/svg">
<path d="M393.669 176.559C394.143 181.814 394.474 187.119 394.474 192.5C394.474 187.117 394.143 181.814 393.669 176.559Z" fill="#989BA1"/>
<path d="M136.226 175.641C136.226 175.641 87.9714 353.547 281.391 355.096C311.728 343.823 338.31 324.285 358.134 298.69C377.957 273.096 390.232 242.464 393.571 210.257C394.04 205.635 394.181 200.923 394.283 196.199C394.303 194.954 394.468 193.75 394.468 192.499C394.468 187.116 394.138 181.814 393.662 176.558C342.569 377.84 116.507 298.998 136.226 175.641Z" fill="#989BA1"/>
<path d="M236.24 109.603C236.24 109.603 56.1676 59.293 58.9219 255.763C68.1522 279.508 82.4781 300.938 100.889 318.539C101.652 319.271 102.462 319.963 103.245 320.685C108.455 325.489 113.953 329.972 119.709 334.106C120.598 334.745 121.442 335.442 122.338 336.072C128.424 340.235 134.769 344.005 141.336 347.358C143.245 348.342 145.194 349.239 147.143 350.154C152.795 352.817 158.588 355.169 164.496 357.2C165.945 357.696 167.333 358.313 168.802 358.776C175.881 360.946 183.094 362.656 190.393 363.896C192.6 364.287 194.843 364.608 197.068 364.915C204.643 366.011 212.282 366.606 219.935 366.696C220.228 366.696 220.513 366.741 220.807 366.741C226.578 366.741 232.276 366.433 237.898 365.877C35.8193 317.642 112.649 91.5671 236.24 109.603Z" fill="#929497"/>
<path d="M306.434 202.777C306.434 202.777 349.041 23.05 157.257 31.0796C120.963 45.1139 90.507 71.0629 70.8762 104.677C51.2455 138.292 43.6036 177.58 49.2019 216.107C89.5668 12.7588 319.511 78.6003 306.434 202.777Z" fill="#989BA1"/>
<path d="M214.351 280.122C214.351 280.122 394.753 303.687 383.46 132.07C369.396 93.6963 342.182 61.5589 306.661 41.3761C271.14 21.1932 229.614 14.2738 189.473 21.849C390.492 46.5387 338.247 281.881 214.351 280.122Z" fill="#989BA1"/>
<path d="M271.023 192.503C271.023 202.123 268.172 211.526 262.83 219.524C257.488 227.521 249.896 233.755 241.013 237.435C232.131 241.115 222.357 242.077 212.928 240.199C203.499 238.321 194.839 233.687 188.042 226.884C181.245 220.081 176.617 211.414 174.744 201.979C172.87 192.544 173.835 182.765 177.517 173.878C181.198 164.992 187.43 157.398 195.425 152.056C203.421 146.714 212.819 143.864 222.433 143.867C235.322 143.871 247.682 148.997 256.794 158.117C265.906 167.238 271.025 179.607 271.023 192.503V192.503Z" fill="#989BA1"/>
<path d="M862.317 215.176H843.469V234.035H862.317V215.176Z" fill="#989BA1"/>
<path d="M882.419 235.289H863.604V254.149H882.419V235.289Z" fill="#989BA1"/>
<path d="M862.317 255.398H843.469V274.258H862.317V255.398Z" fill="#989BA1"/>
<path d="M535.738 159.705V176.308H533.735C528.069 176.197 522.459 177.447 517.374 179.952C512.29 182.457 507.879 186.145 504.512 190.706C497.347 200.107 493.599 211.671 493.887 223.49V272.224H477.283V161.477H493.887V188.725C496.667 180.155 502.129 172.707 509.465 167.481C516.801 162.255 525.622 159.529 534.625 159.705H535.738Z" fill="#989BA1"/>
<path d="M600.164 258.943C615.069 258.943 625.77 252.74 632.266 240.335H650.421C646.823 250.057 640.477 258.523 632.157 264.702C623.817 270.905 613.079 274.007 599.944 274.007C583.264 274.007 569.685 268.469 559.207 257.393C549.024 246.615 543.932 233.102 543.932 216.856C543.932 200.464 548.802 186.952 558.542 176.319C568.871 165.243 582.302 159.705 598.834 159.705C615.366 159.705 628.796 165.243 639.125 176.319C648.865 186.952 653.736 200.464 653.736 216.856V223.501H560.978C561.875 233.108 566.197 242.072 573.155 248.754C576.759 252.156 581.002 254.808 585.639 256.557C590.275 258.306 595.212 259.117 600.164 258.943V258.943ZM598.829 174.767C589.36 174.501 580.156 177.915 573.148 184.292C566.539 190.568 562.313 198.946 561.194 207.994H636.467C635.343 198.946 631.117 190.569 624.508 184.292C617.502 177.918 608.302 174.504 598.836 174.767H598.829Z" fill="#989BA1"/>
<path d="M690.71 179.201C699.565 166.208 712.774 159.71 730.339 159.707C746.279 159.707 759.193 165.245 769.082 176.32C778.967 187.251 783.912 200.763 783.915 216.858C783.918 232.953 778.973 246.465 769.082 257.395C759.192 268.471 745.909 274.009 729.233 274.009C712.557 274.009 699.717 267.437 690.712 254.294V316.098H674.108V161.477H690.712L690.71 179.201ZM728.125 174.771C716.17 174.771 706.724 178.906 699.787 187.177C693.146 195.006 689.825 204.9 689.825 216.86C689.825 228.82 693.146 238.715 699.787 246.543C706.723 254.815 716.169 258.951 728.125 258.949C733.539 259.13 738.927 258.112 743.902 255.967C748.877 253.822 753.317 250.604 756.905 246.543C763.989 238.315 767.705 227.713 767.311 216.86C767.704 206.007 763.988 195.406 756.905 187.177C753.317 183.116 748.877 179.897 743.902 177.752C738.927 175.606 733.54 174.587 728.125 174.767V174.771Z" fill="#989BA1"/>
<path d="M822.215 272.236H805.609V117.174H822.213L822.215 272.236Z" fill="#989BA1"/>
<path d="M915.415 121.162V142.871H897.483V121.162H915.415ZM898.146 161.477H914.75V272.235H898.146V161.477Z" fill="#989BA1"/>
<path d="M955.482 272.235V176.096H932.9V161.478H955.482V121.826H972.086V161.478H997.544V176.096H972.086V272.233L955.482 272.235Z" fill="#989BA1"/>
</svg>
