<?xml version="1.0" encoding="utf-8"?>
<!-- Generator: Adobe Illustrator 25.0.0, SVG Export Plug-In . SVG Version: 6.00 Build 0)  -->
<svg version="1.1" id="Layer_1" xmlns="http://www.w3.org/2000/svg" xmlns:xlink="http://www.w3.org/1999/xlink" x="0px" y="0px"
	 viewBox="0 0 607.7 352" style="enable-background:new 0 0 607.7 352;" xml:space="preserve">
<style type="text/css">
	.st0{fill:#FFFFFF;}
	.st1{fill:#F26922;}
	.st2{fill-rule:evenodd;clip-rule:evenodd;fill:#FFFFFF;}
</style>
<path class="st0" d="M27.7,352c-10.3,0-19.5-1.2-27.7-9.3L10.7,332c5.3,5.3,12.4,6.2,17.4,6.2c5.7,0,11.5-1.9,11.5-6.7
	c0-3.3-1.7-5.5-6.9-6l-10.3-1c-11.7-1.2-18.9-6.2-18.9-18.3c0-13.4,11.9-20.8,25.1-20.8c10.2,0,18.6,1.7,25,7.6l-10,10.2
	c-3.8-3.4-9.5-4.3-15.2-4.3c-6.5,0-9.3,2.9-9.3,6.2c0,2.4,1,5.2,6.7,5.7l10.3,1c12.9,1.2,19.5,8.1,19.5,19.1
	C55.3,345.1,43.1,352,27.7,352z"/>
<path class="st0" d="M83.7,351.3c-13.3,0-18.9-9.3-18.9-18.6v-32.2h-6.9v-12.6h6.9v-19.3h16.2v19.3h11.5v12.4H80.9v31.3
	c0,3.8,1.7,5.9,5.7,5.9h5.9v13.8H83.7L83.7,351.3z"/>
<path class="st0" d="M99.7,275v-13.3h16.7V275H99.7z M100,351.3v-65.1h16.2v65.1H100z"/>
<path class="st0" d="M153.1,352c-13.1,0-29.1-7.1-29.1-33.4c0-26.3,16.2-33.2,29.1-33.2c9,0,15.8,2.8,21.5,8.8l-11,11
	c-3.4-3.6-6.2-5.2-10.5-5.2c-4,0-6.9,1.4-9.3,4.3c-2.6,3.1-3.6,7.6-3.6,14.5s1.2,11.4,3.6,14.5c2.4,2.9,5.3,4.3,9.3,4.3
	c4.3,0,7.1-1.5,10.5-5.2l11,10.8C168.8,349.2,162,352,153.1,352z"/>
<path class="st0" d="M219.4,351.3l-16-27.2l-6.9,7.7v19.5h-16.2v-89h16.2v50.5l21.7-26.7h19.6l-23.2,26.3l25,38.9H219.4L219.4,351.3
	z"/>
<path class="st0" d="M253.1,323.7c0,8.4,5.2,14.5,14.3,14.5c7.1,0,10.7-2.1,14.8-6.2l9.8,9.6c-6.5,6.5-13.1,10.3-24.8,10.3
	c-15.3,0-30.1-7.1-30.1-33.4c0-21.2,11.5-33.2,28.4-33.2c18.1,0,28.4,13.3,28.4,31.2v7.2H253.1z M276.4,305.7
	c-1.7-4-5.3-6.7-10.8-6.7c-5.5,0-9.1,2.9-10.8,6.7c-1,2.4-1.4,4.1-1.6,7.1h24.8C277.8,309.8,277.4,308.1,276.4,305.7z"/>
<path class="st0" d="M337,303.9c-2.6-2.6-4.6-4-8.6-4c-5,0-10.5,3.8-10.5,12.1v39.3h-16.2v-65.1h15.8v6.2c3.1-3.8,9.5-7.1,16.4-7.1
	c6.4,0,10.8,1.5,15.3,6.2L337,303.9z"/>
<path class="st1" d="M422.4,285.3c-8.1,0-13.9,2.6-19.5,8.3c-4.1-5.7-10-8.3-17.2-8.3c-6,0-12.1,2.4-16.2,6.7v-5.9h-15.8v65.1h16.2
	v-39.4c0-9,5.7-11.9,10.8-11.9c5.2,0,10.7,2.9,10.7,11.9v39.4h16.2v-39.8c0-8.4,5.9-11.5,10.8-11.5c5.2,0,10.7,2.9,10.7,11.9v39.4
	h16.2v-41.7c0-7.1-1.9-13.3-7.1-18.6C434.8,287.6,429,285.3,422.4,285.3z"/>
<path class="st1" d="M493,325.5c0,9-5.7,11.9-10.8,11.9s-10.7-2.9-10.7-11.9v-39.3h-16.2v41.7c0,7.1,1.4,13.3,6.5,18.4
	c3.6,3.6,9,5.7,15.3,5.7c6,0,12.1-2.2,16.2-6.7v6h15.8v-65.1H493V325.5z"/>
<path class="st1" d="M535.9,331.7v-69.4h-16.2v70.4c0,9.3,5.7,18.6,18.9,18.6h9.3v-13.8h-6.2C537.6,337.5,535.9,335.6,535.9,331.7z"
	/>
<path class="st1" d="M607.7,316.5c0-17.9-10.3-31.2-28.4-31.2c-16.9,0-28.4,12.1-28.4,33.2c0,26.3,14.8,33.4,30.1,33.4
	c11.7,0,18.1-3.6,24.8-10.3L596,332c-4.1,4.1-7.6,6.2-14.8,6.2c-9.1,0-14.3-6.2-14.3-14.5h40.8V316.5L607.7,316.5z M566.9,312.7
	c0.2-2.9,0.5-4.6,1.5-7.1c1.7-4,5.3-6.7,10.8-6.7s9.1,2.9,10.8,6.7c1,2.4,1.4,4.1,1.5,7.1H566.9z"/>
<path class="st2" d="M333.9,243.2c-2.2,1-5.3,0.9-8.6,1c-2.8,0-6.7,0.2-8.3-1.4c-0.9-0.9-1.2-2.4-1.2-3.4c0-1.2,0.2-2.6,0.5-4
	c0.3-1.5,0.7-3.6,0-4.3c-0.7-1-3.3-0.5-4.5-1.4c-1.4-0.9-1.7-2.6-2.2-4.8c-0.2-0.7-0.5-1.2-0.7-1.7c-0.3-3.3,0.7-7.6,1.4-10.8
	c0.9-3.4,1.7-6.7,2.4-10c0.9-4.8,1.2-10.3,0.9-15.5c-0.2-2.6-0.5-4.6-0.2-6.9c0.3-2.1,1.2-3.8,1.7-5.9c0.2-0.7,0-1.4,0.2-2.1
	c0-0.7,0.5-1.2,0.5-1.7c0-1.4-0.3-3.1-0.5-4.8c-0.3-4.6,0-11,0.3-15c0.2-1.4,0.7-2.9-0.2-3.6c-4.8,0-9.1,0.9-13.6,1.4
	c-11.9,1.5-26.9,1.7-38.4-0.5c-1-0.2-2.2-0.2-3.3-0.5c-8.1-1.9-15.7-5.3-21.5-10c-0.9-0.7-1.9-1.5-2.9-2.2c-1-0.7-2.1-1.9-2.9-2.2
	c-4.6-2.2-10.8,0.3-12.7,3.3c-0.7,1.2-1.4,2.8-2.1,4.1c-0.7,1.4-1.4,2.8-1.9,4.1c-3.1,7.1-6.5,13.8-9.6,20.8
	c-1.7,4.1-3.8,8.6-5.2,13.1c-2.8,9.6-0.2,22.7,2.1,31.9c0.2,0.9,0.7,1.7,1,2.6c0.7,2.2,2.2,5.2,4,6.7c0.9,0.9,2.4,1.2,3.4,2.1
	c1.2,1,2.2,3.3,3.3,5.2c0.3,0.7,1,1.7,1.6,2.6c1.2,2.1,1.5,4-0.7,5.2c-1.7,0.9-4.3,1.2-6.7,1.4c-1,0.3-0.7,1.7-1.4,2.4
	c-0.3,0.3-2.1,1-2.9,1.4c-3.1,0.9-8.6,0.9-11,0c-1.2-0.5-2.6-1.4-2.9-2.4c-0.7-1.9,0.9-4.5-0.5-5.9c-0.7-0.7-1.9-0.5-3.1-1
	c-1.7-0.7-3.3-2.2-4-4.3c-1.9-4.8-0.7-12.2-0.9-18.1c0-1.7-0.3-3.6-0.3-5.5c-0.2-3.4-0.9-6.9-1.4-10.3c-0.2-1.7-0.7-3.1-1-4.6
	c-0.5-2.4-1-5.2-1.7-7.6c-0.9-2.8-0.9-5.3,0.2-7.7c0.2-0.7,0.9-1.2,1.4-2.1c0.5-1.4,0.7-2.9,0.7-4.1c-0.3-0.7-2.1-0.2-2.4-0.9
	c-1-7.6-2.1-15-2.8-22.9c-0.2-2.6-0.2-5.3-0.5-8.1c-0.5-5.3,0-10.8-0.5-16c-0.2-2.6-0.9-5-1.2-7.4c-0.9-6.9-2.8-15.7-1.4-22.9
	c0.9-4.6,2.6-8.3,5.2-11.7c1.9-2.4,3.8-4.6,6-6.7c2.1-2.1,4.5-4,7.1-5.9c1.6-1.2,3.3-2.6,5.2-3.3c4-1.9,9.1-3.4,14.6-3.6
	c5.5-0.2,11.7-0.3,17,0.7c5.2,0.9,10.3,1.9,15.5,2.9c5,1,9.8,2.4,14.6,3.6c0.7,0.2,1.2,0.5,1.7,0.7c1.5,0.3,3.3,0.5,4.8,1
	c4.5,1.2,10.2,1.7,15.5,1.7c5.9,0,11-0.2,15.8-1.4c0.7-0.2,1.2-0.5,2.1-0.9c0.7-0.3,1.7-0.2,2.4-0.5c0.5-0.2,1-0.7,1.5-0.9
	c2.8-1.4,5.2-2.6,7.6-4.3c1.9-1.4,3.6-2.6,6.2-3.6c1.2-0.5,2.2-1,3.4-1.4c2.4-0.9,5.2-1.6,7.1-2.8c2.9-1.9,5.2-4.6,7.6-6.7
	c2.6-2.2,5.2-4.3,7.9-6.5c5.5-4.3,11-8.3,16.2-12.4c2.6-2.1,5.5-4.1,8.6-5.9c6-3.4,12.1-7.4,20.7-8.1c3.4-0.2,6.9-0.3,10.3,0.2
	c0.9,0.2,2.2,0.7,3.1,0.5c0.9-0.2,1.5-1.6,2.2-2.8c1.2-2.2,2.2-3.8,3.3-6.5c0.7-1.7,0.3-3.4,2.1-3.3c1.7,0,1.5,4.6,1.5,6.4
	c0.2,2.1-0.2,4.8,0.2,6.2c0.2,1,1.5,2.4,2.9,2.4c1,0,1.5-0.7,2.4-1.4c0.9-0.5,1.7-0.9,2.4-1.4c1.4-1,3.1-2.8,4.5-4.3
	c1.2-1.2,3.1-4,5-3.8c3.4,0.3,0,5.3-0.7,7.1c-1.7,4-3.4,6.7-5.5,10.5c-0.9,1.5-2.8,3.6-2.8,5.2c0,1,0.9,1.9,1.4,2.9
	c0.2,0.5,0.3,1.2,0.5,1.7c1.2,2.8,2.1,6.5,2.9,9.6c0.9,2.6,1.4,5.5,2.4,8.1c0.9,2.6,2.2,5,3.3,7.4c0.3,0.7,0.3,1.6,0.5,2.1
	c2.2,5.5,4.3,11.9,6.9,17.2c1,2.2,2.6,4.8,2.6,8.1c0,3.4-1.9,5.2-3.4,7.7c-0.9,1.4-2.1,3.4-3.3,4c-0.9,0.3-2.1,0-2.9,0.2
	c-1.4,0.2-2.2,1-3.4,1.2c-3.3,0.3-6.2-2.1-7.1-4.5c-0.3-0.9-0.2-1.9-0.3-2.9c-0.7-3.8-2.6-5.7-5.3-8.3c-1.7-1.6-3.1-2.8-5.2-4
	c-3.1-1.6-6.4-2.6-9.6-4.3c-1.2-0.7-2.6-1.2-3.6-1c-1.7,0.3-3.4,3.1-4.8,4.8c-8.4,11-15.8,22.4-23.9,33.2
	c-5.3,7.2-11.2,14.5-15.5,22.7c-1,2.1-1.7,4.5-2.6,6.9c-0.9,2.4-1.2,5-2.1,7.4c-3.1,9-4.1,20-7.1,29.4c-0.3,1-0.3,2.1-0.7,3.3
	c-1.4,4.8-2.6,10.3-4.1,15.5c-1.2,3.8-1.5,9-1.7,13.9c-0.2,4.6-0.3,11.4,1.4,14.3c0.9,1.5,4.1,2.2,5.3,3.8c0.9,1.2,1.4,3.4,2.2,4.8
	c0.5,1,2.2,3.3,2.1,4.8c-0.2,1.2-1.2,2.1-2.1,2.4c-1,0.5-2.4,0.2-3.4,0.7C334.6,241.1,335.1,242.5,333.9,243.2z"/>
</svg>
