<svg width="1200" height="600" viewBox="0 0 1200 600" fill="none" xmlns="http://www.w3.org/2000/svg">
<path d="M837.187 176.073C830.175 176.073 825.76 181.008 824.201 204.902L850.433 199.968C848.615 183.865 844.2 176.073 837.187 176.073Z" fill="white"/>
<path d="M901.599 64.3929C828.876 21.5388 697.976 26.993 620.579 94.7804C633.565 84.6513 652.525 79.7165 667.069 82.5735C693.042 87.5082 697.457 119.714 679.017 136.336C655.901 157.373 624.475 135.037 601.879 126.207C541.104 102.312 447.604 115.818 422.151 184.644C449.422 139.453 482.407 148.543 492.276 166.464C500.847 182.307 493.835 205.162 471.239 211.136C445.786 217.629 357.221 209.318 311.25 289.312C341.637 251.133 375.401 246.458 393.062 264.379C410.464 282.3 403.711 315.025 367.869 321.258C274.889 337.101 221.126 359.697 171 397.617C283.979 332.946 347.871 400.214 356.701 408.525C365.532 416.836 409.944 459.43 458.772 469.3C507.34 478.91 536.949 458.392 546.299 452.937C559.804 444.886 576.686 440.99 584.218 455.015C589.932 465.664 585.257 481.767 563.181 493.454C543.442 503.843 489.16 511.635 462.928 501.505C474.096 519.426 511.496 536.568 573.31 531.114C635.124 525.919 667.069 503.324 680.315 489.818C689.406 480.468 697.976 477.351 706.028 482.286C712.781 486.442 713.56 496.571 708.365 504.103C704.21 510.336 681.094 532.412 642.656 531.633C654.083 542.282 702.132 568.254 780.828 561.242C875.626 552.671 1027.82 471.897 1029.9 281.78C1030.68 187.761 975.879 108.286 901.599 64.3929ZM837.187 157.633C845.758 157.633 866.017 162.568 869.393 209.058V209.837C869.393 210.357 869.133 210.617 868.614 210.617L862.381 211.655L823.682 219.707C823.682 221.005 823.682 222.044 823.682 223.343C823.682 259.964 831.214 264.119 836.928 264.119C844.2 264.119 848.615 256.328 850.433 240.744V240.225C850.433 239.965 850.693 239.705 851.212 239.446L867.835 235.81H868.094C868.354 235.81 868.614 235.81 868.614 236.069C868.874 236.329 868.874 236.589 868.874 236.848V237.887C866.276 267.496 855.628 282.3 836.668 282.3C828.876 282.3 803.943 278.144 803.943 223.343C804.462 165.944 824.981 157.633 837.187 157.633ZM528.897 401.512C521.625 415.018 509.158 424.887 496.172 427.225C493.835 427.744 491.757 427.744 489.419 427.744C466.824 427.744 453.318 406.187 453.318 370.086C453.318 369.567 453.578 369.307 454.097 369.307L477.212 365.151H477.472C477.732 365.151 477.732 365.151 477.992 365.411C478.251 365.671 478.251 365.671 478.251 365.93C478.251 366.19 477.992 399.694 493.575 399.694C494.094 399.694 494.874 399.694 495.653 399.435C501.367 398.396 505.782 395.279 508.639 390.085C513.833 380.475 514.093 368.268 507.6 352.165C502.665 339.439 494.874 326.453 486.822 312.428C480.849 302.298 474.615 291.65 469.161 280.742C455.136 252.951 467.083 231.654 481.628 222.044C485.264 219.707 492.276 215.551 501.367 215.551C512.275 215.551 527.339 221.785 535.65 251.653C535.65 251.912 535.65 252.432 535.131 252.692L515.911 261.522H515.651H515.392C515.132 261.522 515.132 261.262 514.872 261.003C508.379 239.446 500.847 239.705 497.731 239.705C496.432 239.705 495.133 239.965 493.835 240.744C487.342 244.64 483.186 253.99 493.835 273.729C496.951 279.443 501.367 287.235 506.042 295.546C515.132 311.908 525.781 330.348 529.417 339.179C538.767 361.515 538.767 383.851 528.897 401.512ZM603.178 183.086C603.178 183.346 602.918 183.865 602.658 183.865L575.647 190.358V344.633C575.647 344.893 575.387 345.412 575.128 345.412L557.726 349.568C557.467 349.568 557.467 349.568 557.207 349.308C556.947 349.048 556.947 348.789 556.947 348.789V194.773L530.975 201.007H530.715C530.456 201.007 530.456 201.007 530.196 200.747C529.936 200.487 529.936 200.228 529.936 200.228V182.567C529.936 182.307 530.196 181.787 530.456 181.787L602.918 164.386H602.658C602.918 164.386 602.918 164.386 603.178 164.646C603.437 164.905 603.437 165.165 603.437 165.425V183.086H603.178ZM614.865 195.812C620.579 195.812 625.514 200.487 625.514 206.461C625.514 212.175 620.839 217.11 614.865 217.11C609.151 217.11 604.217 212.435 604.217 206.461C604.217 200.487 609.151 195.812 614.865 195.812ZM606.294 337.88C606.035 337.88 606.035 337.88 605.775 337.621C605.515 337.361 605.515 337.101 605.515 337.101V232.173C605.515 231.914 605.775 231.394 606.035 231.394L623.176 227.239H623.436C623.696 227.239 623.696 227.239 623.956 227.498C624.215 227.758 624.215 228.018 624.215 228.018V332.946C624.215 333.205 623.956 333.725 623.696 333.725L606.294 337.88ZM672.524 469.56C666.81 476.312 659.018 479.689 649.408 479.689C649.149 479.689 648.629 479.689 648.11 479.689C641.357 479.429 634.604 476.053 628.89 470.079C616.683 457.093 609.411 432.419 610.19 407.486C611.229 372.164 629.41 343.335 651.226 341.776C652.006 341.776 652.525 341.776 653.304 341.776C668.368 341.776 677.978 354.762 681.354 379.955L681.614 380.994C681.614 381.514 681.354 381.774 681.094 381.774L664.992 384.89H664.732C664.472 384.89 664.472 384.89 664.212 384.63C663.953 384.63 663.953 384.371 663.953 384.111L663.693 382.812C661.615 368.268 658.239 361.515 652.265 361.515C651.486 361.515 650.707 361.515 649.928 361.775C640.837 363.593 630.449 380.475 629.669 407.486C629.15 419.953 631.487 432.419 635.643 442.289C639.539 451.119 644.474 456.573 648.889 456.833C649.149 456.833 649.408 456.833 649.668 456.833C653.304 456.833 656.421 455.535 658.758 452.937C665.511 445.665 665.511 429.822 664.732 420.472L644.733 424.628H644.474C644.214 424.628 644.214 424.628 643.954 424.368C643.694 424.368 643.694 424.108 643.694 423.848L642.136 408.005C642.136 407.746 642.396 407.226 642.656 407.226L681.874 399.175H682.133C682.393 399.175 682.393 399.175 682.653 399.435C682.912 399.435 682.912 399.694 682.912 399.954L683.172 401.253C684.731 409.304 689.406 450.34 672.524 469.56ZM681.874 320.998C669.147 320.998 646.551 309.571 646.551 246.198C646.551 188.8 662.914 164.646 680.575 164.646C681.354 164.646 682.133 164.386 682.653 164.386C695.119 164.386 709.404 176.853 712.781 205.162V205.942C712.781 206.461 712.521 206.721 712.261 206.721L695.639 210.097H695.379C695.119 210.097 695.119 210.097 694.86 209.837C694.6 209.578 694.6 209.578 694.6 209.318V208.539C692.262 187.242 686.549 184.644 681.874 184.644C672.524 184.644 666.031 203.604 666.031 246.198C666.031 282.04 672.004 300.48 681.874 300.48C688.107 300.48 692.522 296.585 694.6 277.105V276.586C694.6 276.326 694.86 276.067 695.119 275.807L712.521 271.651H712.781C713.3 271.651 713.56 271.911 713.56 272.43V272.69V273.729C708.365 314.765 691.483 320.998 681.874 320.998ZM723.949 451.899C723.949 452.158 723.689 452.678 723.429 452.678L707.067 456.573H706.807C706.547 456.573 706.547 456.573 706.287 456.314C706.028 456.054 706.028 455.794 706.028 455.535V336.842C706.028 336.582 706.287 336.062 706.547 336.062L722.91 332.167H723.169C723.429 332.167 723.429 332.167 723.689 332.426C723.949 332.686 723.949 332.686 723.949 332.946V451.899ZM733.299 306.973C733.039 306.973 733.039 306.973 732.779 306.714C732.519 306.454 732.519 306.194 732.519 306.194V101.533C732.519 101.273 732.779 100.754 733.039 100.754L751.219 96.3388H751.479C751.739 96.3388 751.739 96.3388 751.999 96.5985C752.258 96.8582 752.258 96.8582 752.258 97.1179V213.214L777.711 169.321C777.711 169.061 777.971 169.061 778.23 168.801L800.567 163.347H800.826C801.086 163.347 801.346 163.347 801.605 163.607C801.865 163.867 801.865 164.126 801.605 164.386L757.193 241.264L804.203 287.754C804.462 288.014 804.462 288.273 804.462 288.533C804.462 288.793 804.203 289.053 803.943 289.053L784.204 293.728H783.944C783.685 293.728 783.425 293.728 783.425 293.468L752.778 265.418V300.74C752.778 301 752.518 301.519 752.258 301.519L733.299 306.973ZM828.876 518.387C828.876 518.647 828.617 518.647 828.357 518.647L810.696 522.543H810.436C810.176 522.543 809.657 522.283 809.657 522.023L789.399 444.886L761.608 451.639L757.712 485.403C757.712 485.662 757.453 485.922 757.193 486.182L738.753 490.597H738.493C738.233 490.597 737.974 490.597 737.974 490.337C737.714 490.078 737.714 489.818 737.714 489.558L757.453 324.894C757.453 324.635 757.712 324.375 757.972 324.115L774.075 320.219H774.335C774.594 320.219 775.114 320.479 775.114 320.739L829.136 517.868C828.876 517.868 828.876 518.128 828.876 518.387ZM891.21 442.029C891.21 442.289 890.95 442.808 890.69 442.808L873.808 446.704H873.549C873.289 446.704 873.289 446.704 873.029 446.444C872.769 446.185 872.769 446.185 872.769 445.925V325.933C872.769 320.739 870.951 318.142 867.056 318.142C860.043 318.142 846.278 332.426 844.2 333.985V453.197C844.2 453.717 843.94 453.976 843.421 453.976L826.279 457.872H826.019C825.76 457.872 825.76 457.872 825.5 457.612C825.24 457.353 825.24 457.353 825.24 457.093V307.753C825.24 307.493 825.5 306.973 826.019 306.973L843.161 302.818H843.421C843.681 302.818 843.681 302.818 843.94 303.078C844.2 303.337 844.2 303.337 844.2 303.597V312.168C844.979 311.908 862.9 295.026 873.808 295.026C881.86 295.026 891.21 298.403 891.21 313.726V442.029V442.029ZM970.685 264.379C970.944 264.379 970.944 264.379 971.204 264.639C971.464 264.898 971.464 265.158 971.464 265.158V281.261C971.464 281.521 971.204 282.04 970.944 282.04L944.193 288.533V408.785C944.193 409.044 943.933 409.564 943.674 409.564L925.233 413.979H924.974C924.714 413.979 924.714 413.979 924.454 413.719C924.194 413.46 924.194 413.2 924.194 413.2V293.208L904.975 298.143H904.715C904.456 298.143 904.455 298.143 904.196 297.883C903.936 297.623 903.936 297.364 903.936 297.104V281.001C903.936 280.742 904.196 280.222 904.456 280.222L970.685 264.379ZM967.828 249.835C967.828 250.094 967.568 250.354 967.308 250.354L951.465 254.25H951.205C950.946 254.25 950.686 254.25 950.686 253.99L901.339 204.903V265.678C901.339 265.937 901.079 266.457 900.819 266.457L884.197 270.353H883.937C883.678 270.353 883.678 270.353 883.418 270.093C883.158 269.833 883.158 269.573 883.158 269.573V136.855C883.158 136.596 883.418 136.076 883.678 136.076L898.742 132.44C904.196 131.142 909.39 130.362 914.325 130.362C930.687 130.362 942.115 138.154 945.492 151.4C949.128 166.204 940.817 187.501 918.48 199.708C929.649 210.876 967.308 248.536 967.568 249.055C967.828 249.315 967.828 249.575 967.828 249.835Z" fill="white"/>
<path d="M929.129 157.893C928.35 150.362 922.376 145.946 913.546 145.946C909.91 145.946 905.754 146.725 901.079 148.284V187.502C921.078 182.567 930.428 168.542 929.129 157.893Z" fill="white"/>
<path d="M763.427 434.237L785.243 428.783L770.699 373.462L763.427 434.237Z" fill="white"/>
</svg>
