<svg width="1262" height="354" viewBox="0 0 1262 354" fill="none" xmlns="http://www.w3.org/2000/svg">
<g clip-path="url(#clip0)">
<path d="M1159.26 192.112C1159.06 185.165 1160.26 178.248 1162.81 171.78C1165.35 165.313 1169.18 159.429 1174.06 154.485C1178.94 149.541 1184.77 145.64 1191.2 143.018C1197.63 140.395 1204.53 139.106 1211.47 139.228C1241.54 139.228 1262 161.803 1262 194.837V200.69H1187.03C1188.7 213.441 1198.93 224.101 1216.06 224.101C1225.92 223.953 1235.43 220.41 1242.99 214.068L1254.69 231.208C1244.66 240.406 1228.79 245.209 1213.13 245.209C1182.44 245.205 1159.26 224.512 1159.26 192.112ZM1186.62 182.706H1236.31C1236.19 179.592 1235.44 176.536 1234.11 173.717C1232.78 170.897 1230.91 168.372 1228.59 166.288C1226.28 164.204 1223.57 162.605 1220.63 161.583C1217.69 160.562 1214.58 160.139 1211.47 160.34C1205.25 160.162 1199.2 162.385 1194.57 166.549C1189.95 170.712 1187.1 176.497 1186.62 182.706H1186.62ZM879.024 173.09C879.024 131.076 909.72 100.976 951.697 100.976C993.879 100.976 1024.59 131.076 1024.59 173.09C1024.59 215.105 993.891 245.201 951.697 245.201C909.72 245.205 879.02 215.105 879.02 173.09H879.024ZM909.512 173.09C909.512 199.01 926.008 218.864 951.693 218.864C977.378 218.864 994.084 199.006 994.084 173.09C994.084 146.962 977.378 127.313 951.693 127.313C926.008 127.313 909.508 146.962 909.508 173.09H909.512ZM663.104 192.112C663.104 162.221 683.364 139.228 713.434 139.228C720.563 138.866 727.67 140.279 734.119 143.34C740.569 146.402 746.16 151.016 750.391 156.77L739.946 166.386C737.123 162.2 733.287 158.797 728.796 156.494C724.305 154.192 719.305 153.064 714.261 153.217C692.753 153.217 679.388 169.734 679.388 192.1C679.388 214.466 692.753 231.189 714.261 231.189C719.297 231.295 724.28 230.147 728.764 227.848C733.247 225.55 737.089 222.173 739.946 218.02L750.391 227.635C746.161 233.392 740.57 238.009 734.119 241.073C727.669 244.136 720.56 245.551 713.43 245.19C683.36 245.205 663.1 222.212 663.1 192.112H663.104ZM545.539 192.112C545.539 162.844 566.421 139.228 595.234 139.228C625.722 139.228 643.696 163.057 643.696 193.366V197.338H562.036C563.289 216.359 576.653 232.246 598.37 232.246C610.021 232.28 621.212 227.696 629.496 219.495L637.014 229.749C631.717 234.897 625.436 238.921 618.546 241.579C611.657 244.236 604.303 245.472 596.924 245.213C567.043 245.205 545.539 223.675 545.539 192.112V192.112ZM562.036 185.841H628.228C628.019 170.791 617.984 152.188 595.025 152.188C573.521 152.188 562.871 170.373 562.036 185.841V185.841ZM1112.9 242.697V181.661C1112.9 167.66 1105.59 162.848 1094.32 162.848C1089.82 162.897 1085.41 164.001 1081.42 166.07C1077.43 168.139 1073.98 171.117 1071.35 174.763V242.697H1044.83V141.732H1071.35V154.901C1075.75 149.895 1081.19 145.902 1087.28 143.197C1093.37 140.491 1099.97 139.137 1106.64 139.228C1128.78 139.228 1139.42 151.77 1139.42 171.418V242.697H1112.9ZM840.601 242.697V176.226C840.601 158.478 831.413 153.233 817.84 153.233C812.017 153.488 806.322 155.025 801.161 157.734C795.999 160.444 791.498 164.26 787.979 168.91V242.697H772.313V103.275H787.975V156.376C792.499 151.19 798.041 146.993 804.256 144.044C810.471 141.095 817.226 139.458 824.1 139.236C845.187 139.236 856.259 149.49 856.259 171.426V242.705L840.601 242.697ZM491.455 242.697V118.743H447.394V103.275H553.056V118.743H508.767V242.697H491.455Z" fill="white"/>
<path d="M183.761 354L0 219.484L71.0105 0.698085L298.652 0L368.334 218.348L183.746 354.02L183.761 354ZM170.736 127.247V236.668H197.969V104.152H131.777V127.243L170.736 127.247ZM201.94 104.155L213.477 127.247H236.932V104.155H201.944H201.94Z" fill="white"/>
</g>
<defs>
<clipPath id="clip0">
<rect width="1262" height="354" fill="white"/>
</clipPath>
</defs>
</svg>
