<svg width="356" height="356" viewBox="0 0 356 356" fill="none" xmlns="http://www.w3.org/2000/svg">
<g clip-path="url(#clip0)">
<path fill-rule="evenodd" clip-rule="evenodd" d="M352.05 173C352.05 126.839 333.713 82.5688 301.072 49.9268C268.431 17.2868 224.16 -1.0502 178 -1.0502C131.839 -1.0502 87.5682 17.2868 54.9272 49.9268C22.2862 82.5688 3.94922 126.839 3.94922 173C3.94922 219.161 22.2862 263.431 54.9272 296.073C87.5682 328.713 131.839 347.05 178 347.05C224.16 347.05 268.431 328.713 301.072 296.073C333.713 263.431 352.05 219.161 352.05 173Z" fill="#231F20"/>
<path d="M178 2.58649C132.482 2.58649 89.6865 20.3125 57.4995 52.4985C25.3125 84.6865 7.58653 127.481 7.58653 172.999C7.58653 218.517 25.3125 261.312 57.4995 293.5C89.6875 325.686 132.482 343.412 178 343.412C223.517 343.412 266.311 325.686 298.501 293.5C330.688 261.312 348.413 218.517 348.413 172.999C348.413 127.482 330.688 84.6875 298.501 52.4985C266.311 20.3125 223.517 2.58649 178 2.58649ZM178 350.688C130.539 350.688 85.9175 332.206 52.3545 298.645C18.7935 265.083 0.311523 220.46 0.311523 172.999C0.311523 125.538 18.7935 80.9165 52.3545 47.3545C85.9165 13.7935 130.538 -4.68951 178 -4.68951C225.46 -4.68951 270.082 13.7935 303.645 47.3545C337.207 80.9175 355.689 125.539 355.689 172.999C355.689 220.46 337.207 265.082 303.645 298.645C270.081 332.206 225.46 350.688 178 350.688Z" fill="white"/>
<path fill-rule="evenodd" clip-rule="evenodd" d="M334.69 172.999C334.69 131.442 318.182 91.5885 288.797 62.2025C259.412 32.8175 219.557 16.3094 178 16.3094C136.443 16.3094 96.5886 32.8175 67.2036 62.2025C37.8176 91.5885 21.3096 131.442 21.3096 172.999C21.3096 214.556 37.8176 254.41 67.2036 283.796C96.5886 313.181 136.443 329.689 178 329.689C219.557 329.689 259.412 313.181 288.797 283.796C318.182 254.41 334.69 214.556 334.69 172.999Z" fill="#DA2128"/>
<path fill-rule="evenodd" clip-rule="evenodd" d="M233.138 320.557C234.473 320.112 252.278 312.099 261.182 306.758L206.874 239.096L251.388 243.993C251.388 243.993 272.755 246.218 277.652 243.993C282.103 242.212 306.141 208.381 306.141 208.381C306.141 208.381 237.144 164.757 213.551 140.72C216.222 100.211 210.435 46.3495 210.435 46.7935C193.075 64.1545 190.849 66.8256 173.489 82.8506C165.921 58.3676 162.36 49.9096 154.792 25.4276C132.09 44.1236 114.73 75.7285 102.266 112.675C73.3308 144.726 52.8548 197.698 36.3848 242.657C41.2808 252.005 51.9648 268.03 52.8548 268.921C67.5448 291.178 136.987 355.278 233.138 320.557Z" fill="white"/>
<path fill-rule="evenodd" clip-rule="evenodd" d="M174.824 166.092C189.958 163.867 201.087 171.88 211.325 179.447C203.313 181.672 202.422 182.117 194.41 184.343C185.953 179.447 178.384 176.776 171.263 177.666C172.152 173.215 173.489 170.099 174.824 166.092Z" fill="#231F20"/>
<path fill-rule="evenodd" clip-rule="evenodd" d="M201.977 132.707C195.301 126.03 181.946 117.572 181.946 117.572C181.946 117.572 179.275 101.992 177.495 96.205C189.513 84.631 191.294 82.85 202.868 71.723C203.758 93.979 203.313 105.553 201.977 132.707ZM206.874 239.096L251.388 243.992C251.388 243.992 272.755 246.218 277.651 243.992C282.103 242.212 306.141 208.38 306.141 208.38C306.141 208.38 237.144 164.757 213.551 140.72C216.222 100.211 210.435 46.3489 210.435 46.7939C193.074 64.1539 190.848 66.826 173.489 82.85C165.92 58.368 162.36 49.9099 154.792 25.4269C132.09 44.1229 114.73 75.728 102.266 112.675C73.331 144.725 52.41 198.143 35.939 243.102C40.836 252.45 46.622 261.353 52.854 269.365C66.209 212.833 82.679 144.725 109.387 124.694C123.188 100.656 127.193 65.0449 152.121 46.3489C158.353 65.0449 168.147 103.772 174.824 122.468C204.203 151.847 248.718 188.349 278.542 203.484C281.658 205.264 285.664 217.728 285.664 217.728L273.646 232.864L145.444 219.954C134.316 219.065 123.632 219.954 110.278 222.181C116.51 206.601 129.864 194.136 129.864 194.136C129.864 194.136 117.4 186.569 108.052 185.233C110.724 179.001 117.846 170.989 119.626 168.763C116.065 170.099 90.247 181.672 87.576 191.465C100.039 194.581 108.943 198.588 108.943 198.588C108.943 198.588 95.144 212.387 92.472 236.424C92.472 236.424 133.425 230.192 164.141 234.199C165.031 234.645 165.476 234.645 165.92 234.645L181.946 235.089L233.582 321.002C243.376 317.441 252.723 312.544 261.626 307.202L206.874 239.096Z" fill="#231F20"/>
</g>
<defs>
<clipPath id="clip0">
<rect width="355.38" height="355.38" fill="white"/>
</clipPath>
</defs>
</svg>
