<?xml version="1.0" encoding="utf-8"?>
<!-- Generator: Adobe Illustrator 25.0.0, SVG Export Plug-In . SVG Version: 6.00 Build 0)  -->
<svg version="1.1" id="Layer_9" xmlns="http://www.w3.org/2000/svg" xmlns:xlink="http://www.w3.org/1999/xlink" x="0px" y="0px"
	 viewBox="0 0 329.4 582.6" style="enable-background:new 0 0 329.4 582.6;" xml:space="preserve">
<style type="text/css">
	.st0{fill:#1B1A51;}
	.st1{fill:none;stroke:#EAAB00;stroke-width:2;stroke-miterlimit:10;}
	.st2{fill:#630001;stroke:#EAAB00;stroke-width:2;stroke-miterlimit:10;}
	.st3{fill:#001533;stroke:#EAAB00;stroke-width:2;stroke-miterlimit:10;}
	.st4{fill:#002664;}
	.st5{fill:#BB133E;}
	.st6{fill:none;}
	.st7{fill:#EAAB00;}
	.st8{fill:#FFF4F4;}
	.st9{font-family:'Impact';}
	.st10{font-size:92.71px;}
	.st11{font-size:41.39px;}
	.st12{letter-spacing:-1;}
	.st13{font-size:64.56px;}
	.st14{fill:#FFFFFF;stroke:#000000;stroke-width:3;stroke-miterlimit:10;}
	.st15{fill:#E42D40;stroke:#000000;stroke-width:3;stroke-miterlimit:10;}
	.st16{fill:#FFFFFF;stroke:#FFFFFF;stroke-width:0.25;stroke-miterlimit:10;}
	.st17{opacity:0.75;fill:#E9E9E9;stroke:#A0A0A0;stroke-width:3;enable-background:new    ;}
	.st18{fill:none;stroke:#000000;stroke-width:3;}
	.st19{fill:none;stroke:#000000;stroke-width:2;}
</style>
<path class="st0" d="M1.5,6.5c0-2.8,2.2-5,5-5h290c2.8,0,5,2.2,5,5v490c-0.2,3-1.8,5.8-4.4,7.4l-141.2,76.2c-2.8,1.3-6,1.3-8.8,0
	L5.9,503.9c-2.6-1.6-4.2-4.3-4.4-7.4V6.5z"/>
<path class="st1" d="M1.5,6.5c0-2.8,2.2-5,5-5h290c2.8,0,5,2.2,5,5v490c-0.2,3-1.8,5.8-4.4,7.4l-141.2,76.2c-2.8,1.3-6,1.3-8.8,0
	L5.9,503.9c-2.6-1.6-4.2-4.3-4.4-7.4V6.5z"/>
<polygon class="st2" points="186.6,225.2 223.2,226.1 223.2,280.2 186.6,271.5 "/>
<polygon class="st2" points="179.9,204.1 227.4,202.9 231.1,162.8 223.2,156.1 179.9,166.4 "/>
<polygon class="st3" points="140.2,195.4 77.8,187.5 77.8,278.6 140.2,264.4 "/>
<polygon class="st3" points="77.8,157.8 113.3,163 106.6,215.7 84.9,214.7 "/>
<line class="st1" x1="98.4" y1="256.6" x2="116.7" y2="252.9"/>
<polygon class="st4" points="77.5,157.6 72.3,160.6 72.3,275.8 77.5,278.8 "/>
<polygon class="st5" points="193.8,296.8 184.9,302.1 184.9,133.8 193.8,139.1 "/>
<polygon class="st5" points="228.6,277.5 223.4,280.6 223.4,156 228.6,159.1 "/>
<polygon class="st4" points="119.3,133.8 109.4,139.5 109.4,297.1 119.3,302.9 "/>
<path class="st4" d="M151.8,321.6l-35.3-20.3V191.1l-18,65.6l-13.3-4.1l-11.4-53.5v77.5l-11.7-6.8V166.5l14.8-8.5L92,217.3
	l20.2-79.7l39.6-22.8L151.8,321.6z"/>
<polygon class="st4" points="91.4,197.1 109.6,138.8 113.5,136.9 95.4,216.9 "/>
<polygon class="st4" points="77.4,158.2 69.4,162.3 86.8,216.5 100.6,222.3 "/>
<polygon class="st5" points="228.9,234.7 189.6,240.9 189.4,182.4 228.9,192.2 "/>
<path class="st5" d="M241.6,270.3l-15,8.7v-53.1l-34.7,2.4V299l-40.1,23V115.2l40,23.1v58.8l34.7,5.4v-44.2l15,8.7L241.6,270.3z"/>
<line class="st6" x1="70" y1="160.7" x2="81.2" y2="154.1"/>
<polygon class="st1" points="151.8,114.8 194.1,139.2 194.1,183.4 223.6,190.9 223.6,156.1 241.6,166.5 241.6,269.9 223.6,280.2 
	223.6,235.6 194.1,240.5 194.1,297.2 151.8,321.6 "/>
<polygon class="st1" points="151.8,114.8 109.6,138.8 91.4,197.1 77.4,157.8 62.1,166.5 62.1,269.9 77.4,278.6 77.5,216.3 
	85.3,252.5 98.5,256.7 109.4,217.1 109.6,297.2 151.8,321.6 "/>
<g id="Layer_3">
	<g id="Perspective_Text">
		<path class="st7" d="M136.4,222c-0.1,1.5-0.6,9.4-6.8,8.9c-5.9-0.5-6.6-7.6-6.6-15.1c0-9.1,1.9-14.7,6.8-15.2
			c6-0.7,6.5,6.2,6.6,8.7l-4.1,0.2c-0.1-1-0.1-4.6-2.5-4.4s-3,4.2-3,10.8c0,5.4,0.4,10.6,2.9,10.7c2.5,0.1,2.5-3.5,2.6-4.6
			L136.4,222z"/>
	</g>
	<g id="Perspective_Text-2">
		<path class="st7" d="M136.7,180.8c0,11.2-2.3,16.4-7.5,17.1c-4.5,0.6-6.6-3.5-6.6-13.9c0-10.1,2.5-15,6.8-16.4
			C134.2,166,136.7,170.1,136.7,180.8z M126.3,183.1c0,6.8,0.8,10.8,3,10.4c2.4-0.4,3.1-4.4,3.1-11.8c0-7-0.8-10.3-3.1-9.6
			S126.3,176.7,126.3,183.1L126.3,183.1z"/>
	</g>
	<g id="Perspective_Text-3">
		<path class="st7" d="M136.7,249.7c0,11.2-2.3,15.4-7.5,13.9c-4.5-1.3-6.6-6.4-6.6-16.7c0-10.1,2.5-13.9,6.8-13.5
			C134.2,233.9,136.7,239,136.7,249.7z M126.3,247.5c0,6.8,0.8,11.1,3,11.7c2.4,0.7,3.1-3.1,3.1-10.5c0-7-0.8-10.7-3.1-11
			S126.3,241.1,126.3,247.5z"/>
	</g>
	<g id="Perspective_Text-4">
		<path class="st7" d="M171.1,170l-1.1,7.2l-4.2-1.1l5.4-28.4l5.1,2.3l4.8,30.1l-3.8-1l-1-7.5L171.1,170z M175.5,166.8
			c-0.8-5.8-1.5-10.2-1.8-13.1h-0.1c-0.3,2.6-1,6.8-1.8,11.9L175.5,166.8z"/>
	</g>
	<g id="Perspective_Text-5">
		<path class="st7" d="M179.8,203.5c-0.1,1.4-0.5,8.7-6.3,8.4c-6.5-0.3-7.3-8-7.3-16.2c0-10,2.2-15.3,7.5-14c5.6,1.3,6,7.8,6.1,10.1
			l-3.7-0.7c-0.1-1-0.1-4.5-2.5-5s-3.1,3.5-3.1,10.3c0,5.6,0.4,11,3,11.1c2.3,0.2,2.5-3.3,2.6-4.4L179.8,203.5z"/>
	</g>
	<g id="Perspective_Text-6">
		<path class="st7" d="M166.9,216.5h4.1V230c1.2-2.8,4-9.6,5.7-13.3h4.2l-5.3,11.3l5.4,16.6l-4,0.7l-4-12.8l-2,4v9.9l-4.1,0.7
			L166.9,216.5z"/>
	</g>
	<g id="Perspective_Text-7">
		<path class="st7" d="M170.1,273.3c0.2,2.4,1,4.3,3,3.5s2.6-2.6,2.6-4.7c0-2.4-0.9-3.5-3.6-4.3c-3.9-1.2-5.5-2.9-5.5-7.5
			c0-4.9,2.4-8.8,6.5-9.6c4.8-1,5.9,3.1,6,6.7l-3.7,1c-0.1-1.6-0.5-4-2.4-3.5c-1.6,0.4-2.3,1.9-2.3,4s0.7,3,3.3,3.8
			c3.8,1.2,5.4,3,5.4,7.8c0,4.4-2,8.9-6.5,10.8c-5.2,2.1-6.9-1.7-7-6.3L170.1,273.3z"/>
	</g>
</g>
<text transform="matrix(1.1037 0 0 1 55.5601 407.2998)" class="st8 st9 st10">2021</text>
<text transform="matrix(1 0 0 1 53.92 444.55)" class="st8 st9 st11">HAC</text>
<text transform="matrix(1 0 0 1 120.83 444.55)" class="st8 st9 st11">K</text>
<text transform="matrix(1 0 0 1 143.87 444.55)" class="st8 st9 st11 st12">A</text>
<text transform="matrix(1 0 0 1 162.6 444.55)" class="st8 st9 st11">THON</text>
<text transform="matrix(1 0 0 1 53.49 501.66)" class="st8 st9 st13">SEASON</text>
<path class="st14" d="M44.3,2c0,0-5.7,55.3,2,75.7s20,21.3,20,21.3s61-41,60.7-39.7s-1-5-8-16.7S111.3,7.7,111.3,2"/>
<path class="st14" d="M127.3,60.5c0,0-9.1-11.2-38.4,6S63,96.6,66.4,98.9s11.1,5.6,41.1-6.6S127.3,60.5,127.3,60.5z"/>
<path class="st14" d="M86.4,101c0,0,74.4-61,75.9-61.7s4.7,0,4.7,0l-76,63.1L86.4,101z"/>
<path class="st14" d="M94.7,99c0,0-2-9.7-6.3-12.3s4,0,6.3,0s12.3,5.6,10.6,10.6s-10,6.7-16,3.7S94.7,99,94.7,99z M115.7,71.3
	c0.7,1.7,7.5,8.6,3.8,9.6s-2.4,9.5,4.9,7.6C131.7,86.6,134,77,127,73S115.7,71.3,115.7,71.3z M107.7,91.3c-1-3.3-2.2-6.6-3.7-9.7
	c-2.7-6,7,0,7,0s12,5.4,7.3,12.4s-11,1.8-12.8,0S103.3,89.7,107.7,91.3z"/>
<path class="st15" d="M170.7,31c0,0,23.6-6.1,58.9,35.7s94.3,31.8,95,31.6s-16.3,11.5-16.3,11.5s9.1,6.7,18.7,8.5
	s-56.4,26.4-100.5,5.7c-20.8-8.9-39-23.1-52.8-41c-4.1-5-16.9-22-34.7-24.8L170.7,31z"/>
<path class="st16" d="M177.7,42.6c-3,3.8-6.2,7.4-9.7,10.8c-8.5,7-1.3,8.9,2.4,6.1c2.2-1.5,4.5-3.1,4.5-3.1l4.6,5.2
	c0,0-1.9,2.3-3.4,4.2c-4.7,4.6,0.9,6.8,4.5,3.3c1.8-1.8,9.5-9,12.9-13.3c2.9-2.4,0-7.3-4.5-3.5c-2,1.3-5.7,4.2-5.7,4.2
	c-1.3-1.4-2.5-2.9-3.7-4.5c0.1-0.6,1.3-1.5,1.9-2.7C185.3,41.4,180.2,39.5,177.7,42.6z M198.7,61.7c2.8-2.4,4.8-2.1,6-1.4
	c0.5,0.3,0.8,1.7,0.9,3.1c-1.3,8-10.6,19.6-11.5,20.3c-3.5,2.4-6.9,0.2-3.9-2.9c1.6-1.9,3.3-3.6,3.3-3.6l-4.4-2.6
	c-6.9,5.5-8.8,1.1-5.5-1.2C186.9,70.8,194.9,64.8,198.7,61.7L198.7,61.7z M193,70.2l4.3,2.8c0,0,5-7.6,3.1-7.3L193,70.2L193,70.2z
	 M219.6,79.2c1.4-1.5,1.9-5.9-3-7.2c-6.6-2.9-13.9,7.4-13.9,7.4s-3.5,5-3.5,9.4s3.7,6,4.4,6.4c4.8,0.7,4.6-2.9,4-3.2
	c-0.9-0.5-2.2-0.9-2.9-2.1c-1.1-2.2,0.7-5.5,2-7.2c2.3-2.8,7.1-8.2,9.5-5.3C217,80.4,218.8,80,219.6,79.2L219.6,79.2z M223.6,80.8
	c-2.7,3-2.9,7.2-8.7,12.6c-1.4,1.3-4.4,3.5-4.8,3.9c-2.9,2.3-0.5,5.4,5.4,1.9c1.4-1,2.6-2.1,3.7-3.4l1.6,0.5c0,0-1.3,6.5-2.1,9.1
	s3,5.9,5.2,1.1c0.7-2.4,1.1-5,1.2-7.5c0,0,0.2-2.4-0.4-3c0,0,7-2.6,8.4-4.3s1.1-3.5-4.2-2s-6.1,2.3-6.1,2.3c1.5-2.1,2.9-4.3,3.9-6.7
	C228.4,82.4,225.9,78.5,223.6,80.8L223.6,80.8z M241,94.4c-2.3,0.8-4.7,3.3-6.5,7.9c-2.8,6.8-1.6,11.8,3.5,13.1s5.5-2.5,5.2-2.8
	s-0.3-0.7-2.5-0.8s-3.4-1.6-3.3-5.1c0.1-2.3,1.4-6.5,3.8-7.9c0.4-0.3,1-0.5,1.5-0.5c0.8-0.1,1.5,0.3,1.9,1c1.7,2.9,3.1,1.1,2.9-1
	C246.7,95.1,244.6,93.6,241,94.4L241,94.4z M250.7,101c1.1-2.5,4.6-3.4,3.1,2.7c-0.5,4.2-2,11.8-2.5,12.9c0,0,1.2,1.4,5.8,2.4
	c0,0,2,0.7,1.1,1.6c-0.6,0.6-1.4,0.8-2.2,0.6c-0.3,0-10.6-2.3-10.2-3.7s1-1.9,2.3-6.2C249.2,105.6,249.6,103.5,250.7,101L250.7,101z
	 M261.9,105.1c0.6-1.9,3-2.2,3.2,0.2c0.2,1.9-1.8,9-1.7,12.4c0.3,1.4,1.8,2.3,2.9,1.6c1.6-1.3,2.7-5.3,3.5-8.8
	c0.2-1.3,0.6-2.6,1.2-3.7c1.5-2.7,3.6-1,3.4,2.4c-0.6,3.6-2.4,9.1-3.6,10.7s-2.7,3.6-5.3,3.1c-3.6-0.8-6-4.3-5.3-7.9
	C261,109,261.3,107,261.9,105.1L261.9,105.1z M280.4,106.2c3.9-0.4,6.5-0.1,8.1,1.4c0.8,1.1,0.6,3.2-0.3,4.6c-0.6,0.7-1.3,1.4-2,2
	c1,0.6,1.6,1.7,1.6,2.9c-0.1,7.3-4,6.9-8.8,6.3c-1.5-0.3-3.1-0.9-2.9-1.5c0.3-1,1.9-13.9,1.9-13.9C278,107.3,278,106.3,280.4,106.2
	L280.4,106.2z M280.7,108.8l-0.1,4.3c0,0,4.5,0.2,4.9-2S283.1,108.9,280.7,108.8z M280,116.1c0,0-1,4.9-0.8,4.6s5.7,0.6,5.8-2.7
	S280,116.1,280,116.1L280,116.1z"/>
<path class="st17" d="M39.7,266.8H264c0.6,0,1.1,0.5,1.1,1.1v28c0,0.6-0.5,1.1-1.1,1.1H39.7c-0.6,0-1.1-0.5-1.1-1.1v-28
	C38.5,267.3,39,266.8,39.7,266.8z"/>
<circle class="st18" cx="53.3" cy="280.1" r="4.4"/>
<line class="st18" x1="55.3" y1="283.5" x2="59.8" y2="290.2"/>
<path d="M69.6,279.3h2.3l2.3,6.4l2.3-6.4h2.3l-3.5,9.2h-2L69.6,279.3z M79.7,275.7H82v2.3h-2.3V275.7z M79.7,279.3H82v9.2h-2.3
	V279.3z M84.2,279.3h2.1l0.1,1c0.3-0.3,0.6-0.6,1-0.8c0.4-0.2,0.9-0.4,1.3-0.4c0.1,0,0.3,0,0.4,0l-0.2,2.3c-0.2-0.1-0.5-0.1-0.8-0.1
	c-0.4,0-0.7,0.1-1.1,0.3c-0.3,0.2-0.5,0.4-0.7,0.6v6.3H84v-9.2H84.2z M93.3,288.8c-0.8,0-1.4-0.2-1.8-0.7s-0.6-1.1-0.6-1.7v-5.1
	h-1.3l0.2-1.9h1.1v-2l2.3-0.2v2.3h2v1.9h-2v4.2c0,0.5,0,0.8,0.1,1s0.2,0.3,0.4,0.4c0.2,0,0.5,0.1,1,0.1h0.6l-0.2,1.9h-1.8V288.8z
	 M104.6,279.3v9.2h-2.1v-0.6c-0.3,0.2-0.6,0.4-1,0.5s-0.7,0.2-1.1,0.2c-1.4,0-2.4-0.4-3-1.2c-0.6-0.8-0.9-1.9-0.9-3.3v-5h2.3v5
	c0,0.9,0.1,1.5,0.4,1.9s0.8,0.6,1.4,0.6c0.7,0,1.3-0.3,1.7-0.8v-6.7h2.3V279.3z M108.8,288.8c-0.8,0-1.4-0.2-1.9-0.7s-0.8-1.2-0.8-2
	s0.3-1.4,0.9-1.9s1.3-0.8,2-1c0.8-0.2,1.5-0.3,2.3-0.4c0-0.5-0.2-0.9-0.4-1.2c-0.2-0.2-0.7-0.4-1.2-0.4c-0.4,0-0.8,0.1-1.2,0.2
	c-0.4,0.1-0.8,0.3-1.3,0.5L107,280c1.1-0.5,2.2-0.8,3.4-0.8c1.1,0,1.9,0.3,2.5,0.9s0.9,1.5,0.9,2.8v2.5c0,0.5,0,0.8,0.1,1
	c0,0.2,0.1,0.3,0.2,0.4c0.1,0,0.3,0.1,0.5,0.1h0.3l-0.2,1.9h-0.8c-0.5,0-0.9-0.1-1.3-0.3c-0.3-0.2-0.6-0.5-0.8-0.8
	c-0.3,0.3-0.7,0.6-1.2,0.8C109.9,288.7,109.3,288.8,108.8,288.8z M109.7,287c0.2,0,0.5-0.1,0.8-0.2s0.6-0.3,0.8-0.5v-2.1
	c-0.7,0-1.4,0.2-2,0.5s-0.8,0.7-0.8,1.2c0,0.4,0.1,0.7,0.3,0.8C109,286.9,109.3,287,109.7,287z M118.3,288.8c-0.8,0-1.4-0.2-1.8-0.7
	s-0.6-1-0.6-1.8v-11.6h2.3v10.7c0,0.5,0,0.8,0.1,1.1c0.1,0.2,0.2,0.3,0.3,0.4c0.1,0,0.4,0.1,0.7,0.1l-0.2,1.9h-0.8V288.8z"/>
<path class="st19" d="M126,271.6V293"/>
</svg>
