<svg width="400" height="400" viewBox="0 0 400 400" fill="white" xmlns="http://www.w3.org/2000/svg">
<path fill-rule="evenodd" clip-rule="evenodd" d="M0 200C0 89.5433 89.5433 0 200 0C310.457 0 400 89.5433 400 200C400 310.457 310.457 400 200 400C89.5433 400 0 310.457 0 200Z" fill="url(#paint0_linear)"/>
<path d="M236.085 105L232.951 108.625C253.572 114.097 272.799 123.868 289.367 137.297C268.326 125.519 245.182 117.962 221.238 115.052C206.062 113.227 186.762 113.227 171.585 115.052C153.848 117.07 136.537 121.852 120.282 129.223C111.869 133.178 106.921 135.814 106.921 135.814C124.306 122.355 144.393 112.8 165.812 107.801L163.502 105C140.382 106.143 118.189 114.435 99.9922 128.729C79.1196 169.599 67.8371 214.681 67 260.555C74.8502 271.464 85.2521 280.29 97.2992 286.264C109.346 292.238 122.673 295.179 136.119 294.83L151.13 276.044C135.224 272.024 121.221 262.582 111.539 249.35C111.539 249.35 113.849 250.997 117.973 253.304H118.798L120.942 254.458C126.242 257.395 131.757 259.929 137.438 262.038C148.112 266.287 159.157 269.542 170.431 271.76C189.835 275.413 209.752 275.413 229.157 271.76C240.499 269.829 251.573 266.566 262.149 262.038C271.31 258.579 280.053 254.101 288.213 248.69C278.592 262.367 264.459 272.226 248.292 276.539C255.055 285.107 263.139 294.83 263.139 294.83C276.611 295.206 289.972 292.279 302.05 286.304C314.128 280.328 324.556 271.488 332.422 260.555C331.545 214.686 320.265 169.613 299.43 128.729C281.257 114.505 259.139 106.22 236.085 105Z" fill="white"/>
<path d="M240.092 239.691C253.072 239.691 263.594 228.344 263.594 214.346C263.594 200.348 253.072 189 240.092 189C227.112 189 216.59 200.348 216.59 214.346C216.59 228.344 227.112 239.691 240.092 239.691Z" fill="url(#paint1_linear)"/>
<path d="M159.502 239.691C172.482 239.691 183.005 228.344 183.005 214.346C183.005 200.348 172.482 189 159.502 189C146.522 189 136 200.348 136 214.346C136 228.344 146.522 239.691 159.502 239.691Z" fill="url(#paint2_linear)"/>
<defs>
<linearGradient id="paint0_linear" x1="200" y1="0" x2="200" y2="400" gradientUnits="userSpaceOnUse">
<stop/>
<stop offset="1" stop-color="#545454"/>
</linearGradient>
<linearGradient id="paint1_linear" x1="240.092" y1="189" x2="240.092" y2="239.691" gradientUnits="userSpaceOnUse">
<stop/>
<stop offset="1" stop-color="#545454"/>
</linearGradient>
<linearGradient id="paint2_linear" x1="159.502" y1="189" x2="159.502" y2="239.691" gradientUnits="userSpaceOnUse">
<stop/>
<stop offset="1" stop-color="#545454"/>
</linearGradient>
</defs>
</svg>
