<svg width="400" height="400" viewBox="0 0 400 400" fill="white" xmlns="http://www.w3.org/2000/svg">
<path d="M400 200C400 89.5313 310.469 0 200 0C89.5313 0 0 89.5313 0 200C0 310.469 89.5313 400 200 400C201.172 400 202.344 400 203.516 399.922V244.297H160.547V194.219H203.516V157.344C203.516 114.609 229.609 91.3281 267.734 91.3281C286.016 91.3281 301.719 92.6562 306.25 93.2812V137.969H280C259.297 137.969 255.234 147.812 255.234 162.266V194.141H304.844L298.359 244.219H255.234V392.266C338.828 368.281 400 291.328 400 200Z" fill="url(#paint0_linear)"/>
<defs>
<linearGradient id="paint0_linear" x1="200" y1="0" x2="200" y2="400" gradientUnits="userSpaceOnUse">
<stop/>
<stop offset="1" stop-color="#545454"/>
</linearGradient>
</defs>
</svg>
