<svg width="400" height="400" viewBox="0 0 400 400" fill="white" xmlns="http://www.w3.org/2000/svg">
<path d="M200 0C89.5599 0 0 89.5599 0 200C0 310.44 89.5599 400 200 400C310.44 400 400 310.44 400 200C400 89.5599 310.44 0 200 0ZM141.882 302.344H93.1732V155.801H141.882V302.344ZM117.529 135.791H117.212C100.867 135.791 90.2954 124.539 90.2954 110.477C90.2954 96.0968 101.19 85.1562 117.853 85.1562C134.515 85.1562 144.769 96.0968 145.087 110.477C145.087 124.539 134.515 135.791 117.529 135.791ZM317.517 302.344H268.814V223.947C268.814 204.245 261.761 190.808 244.138 190.808C230.682 190.808 222.668 199.872 219.147 208.621C217.859 211.752 217.545 216.129 217.545 220.508V302.344H168.839C168.839 302.344 169.476 169.55 168.839 155.801H217.545V176.55C224.017 166.565 235.599 152.362 261.441 152.362C293.488 152.362 317.517 173.306 317.517 218.317V302.344Z" fill="url(#paint0_linear)"/>
<defs>
<linearGradient id="paint0_linear" x1="200" y1="0" x2="200" y2="400" gradientUnits="userSpaceOnUse">
<stop/>
<stop offset="1" stop-color="#545454"/>
</linearGradient>
</defs>
</svg>
