<svg width="400" height="400" viewBox="0 0 400 400" fill="white" xmlns="http://www.w3.org/2000/svg">
<g clip-path="url(#clip0)">
<path d="M200.001 400C310.458 400 400.001 310.457 400.001 200C400.001 89.543 310.458 0 200.001 0C89.544 0 0.000976562 89.543 0.000976562 200C0.000976562 310.457 89.544 400 200.001 400Z" fill="url(#paint0_linear)"/>
<path d="M200 83.7574C135.801 83.7574 83.7574 135.801 83.7574 200C83.7574 264.199 135.801 316.243 200 316.243C264.199 316.243 316.243 264.199 316.243 200C316.243 135.801 264.199 83.7574 200 83.7574ZM287.6 151.143C291.729 158.519 294.89 166.38 297.023 174.568H257.942C256.497 166.614 254.374 158.77 251.56 151.143H287.6ZM247.214 216.708L236.268 183.339L243.253 180.252L251.039 206.235L257.069 189.644H264.756L270.786 206.235L278.572 180.252L285.556 183.339L274.609 216.708L267.733 219.747L260.912 196.983L254.091 219.747L247.214 216.708ZM248.033 225.431C246.474 233.373 244.184 241.187 241.148 248.75H204.867V225.431H248.033ZM270.897 129.103C274.753 132.958 278.248 137.076 281.382 141.41H247.54C240.88 126.894 231.602 113.382 219.704 101.66C238.975 105.48 256.692 114.898 270.897 129.103ZM204.867 101.378C218.562 112.766 229.175 126.455 236.706 141.41H204.867V101.378ZM204.867 151.143H241.105C244.162 158.739 246.467 166.589 248.033 174.568H204.867V151.143ZM195.133 101.5V141.41H163.441C170.945 126.508 181.509 112.864 195.133 101.5ZM152.113 174.568C153.68 166.59 155.984 158.74 159.041 151.144H195.133V174.568H152.113ZM163.732 183.34L152.786 216.708L145.909 219.748L139.089 196.983L132.268 219.748L125.391 216.708L114.445 183.34L121.43 180.252L129.215 206.235L135.245 189.645H142.932L148.963 206.235L156.748 180.252L163.732 183.34ZM129.103 129.103C143.352 114.854 161.135 105.424 180.476 101.627C168.562 113.356 159.273 126.88 152.606 141.41H118.618C121.752 137.076 125.248 132.958 129.103 129.103ZM112.4 151.143H148.586C145.772 158.77 143.649 166.614 142.205 174.568H102.978C105.11 166.38 108.272 158.52 112.4 151.143ZM112.341 248.75C108.242 241.405 105.1 233.58 102.978 225.432H142.205C143.643 233.35 145.752 241.158 148.547 248.75H112.341ZM129.103 270.897C125.216 267.01 121.694 262.857 118.541 258.484H152.558C159.227 273.053 168.533 286.616 180.476 298.373C161.135 294.576 143.352 285.146 129.103 270.897ZM195.133 298.5C181.477 287.109 170.894 273.427 163.387 258.484H195.133V298.5ZM195.133 248.75H158.998C155.963 241.188 153.672 233.373 152.114 225.432H195.133V248.75ZM199.943 196.983L193.122 219.747L186.246 216.708L175.3 183.339L182.285 180.252L190.07 206.235L196.1 189.644H203.787L209.818 206.235L217.602 180.252L224.588 183.339L213.641 216.708L206.765 219.747L199.943 196.983ZM204.867 298.622V258.484H236.76C229.226 273.48 218.595 287.207 204.867 298.622ZM270.897 270.897C256.692 285.102 238.975 294.52 219.704 298.339C231.631 286.589 240.925 273.039 247.588 258.484H281.459C278.306 262.857 274.784 267.01 270.897 270.897ZM287.659 248.75H251.6C254.394 241.157 256.504 233.349 257.942 225.432H297.022C294.9 233.58 291.758 241.405 287.659 248.75Z" fill="white"/>
</g>
<defs>
<linearGradient id="paint0_linear" x1="200.001" y1="400" x2="200.001" y2="6.66537e-06" gradientUnits="userSpaceOnUse">
<stop stop-color="#545454"/>
<stop offset="1"/>
</linearGradient>
<clipPath id="clip0">
<rect width="400" height="400" fill="white"/>
</clipPath>
</defs>
</svg>
