<svg width="400" height="400" viewBox="0 0 400 400" fill="white" xmlns="http://www.w3.org/2000/svg">
<rect width="400" height="400" fill="white"/>
<path fill-rule="evenodd" clip-rule="evenodd" d="M200 0C310.383 0 400 89.6172 400 200C400 310.383 310.383 400 200 400C89.6172 400 0 310.383 0 200C0 89.6172 89.6172 0 200 0ZM319.777 139.827C316.902 129.07 308.432 120.6 297.676 117.725C278.177 112.5 200 112.5 200 112.5C200 112.5 121.823 112.5 102.324 117.725C91.5703 120.6 83.0977 129.07 80.2227 139.827C75 159.323 75 200.002 75 200.002C75 200.002 75 240.679 80.2227 260.173C83.0977 270.93 91.5703 279.403 102.324 282.277C121.823 287.5 200 287.5 200 287.5C200 287.5 278.177 287.5 297.676 282.277C308.432 279.403 316.902 270.93 319.777 260.173C325 240.679 325 200.002 325 200.002C325 200.002 325 159.323 319.777 139.827ZM174.999 237.502V162.501L239.95 200.002L174.999 237.502Z" fill="url(#paint0_linear)"/>
<defs>
<linearGradient id="paint0_linear" x1="200" y1="0" x2="200" y2="400" gradientUnits="userSpaceOnUse">
<stop/>
<stop offset="1" stop-color="#545454"/>
</linearGradient>
</defs>
</svg>
