<svg id="Layer_5" data-name="Layer 5" xmlns="http://www.w3.org/2000/svg" xmlns:xlink="http://www.w3.org/1999/xlink" viewBox="0 0 1920 1080"><defs><style>.cls-1{fill:none;}.cls-2{clip-path:url(#clip-path);}.cls-3{fill:#28246c;}.cls-4,.cls-5{fill:#ecfdff;isolation:isolate;}.cls-4{opacity:0.5;}.cls-5{opacity:0.69;}.cls-6{fill:#001845;}.cls-7{fill:url(#radial-gradient);}.cls-8{fill:#001233;}.cls-9{fill:#002855;}.cls-10{fill:#000122;}</style><clipPath id="clip-path"><rect class="cls-1" width="1920" height="1080"/></clipPath><radialGradient id="radial-gradient" cx="1178.02" cy="63.54" r="930.84" gradientTransform="translate(2429.81 1080) rotate(180) scale(1.14 1)" gradientUnits="userSpaceOnUse"><stop offset="0" stop-color="#00a4bf"/><stop offset="0.34" stop-color="#0976a2"/><stop offset="1" stop-color="#1b1464"/></radialGradient></defs><g class="cls-2"><rect class="cls-3" x="-484.01" y="-40.13" width="3000" height="2200.13"/><g id="Layer_2" data-name="Layer 2"><g id="Layer_3" data-name="Layer 3"><circle class="cls-4" cx="1056.2" cy="540" r="124.5"/><circle class="cls-5" cx="1056.2" cy="540" r="185"/><circle class="cls-5" cx="1056.2" cy="540" r="246"/></g></g><path class="cls-6" d="M2457.77,1418c-455.83,610.9-2003.23,724.1-2658.85,154.9-34.19-29.7-426.56-377.7-301.9-628.7,45.28-91.1,164.1-180.5,295-206.5,115.51-23,159.19,19.5,306.48,21.2,183.89,2.1,248-62.7,425.42-106,296.08-72.3,311.17,60.9,640.41,11.9,257.08-38.3,501.47-139.8,698.74-120,36.13,3.7,73.41,12.7,114.36,28.9,71.13,28.2,170.62,85,363.66,145.8,33,10.4,60.38,18.3,77.76,23.1,124.31,34.8,159.53,33.4,179.55,43.7C2687.18,832.14,2629.66,1187.84,2457.77,1418Z"/><g id="Layer_2-2" data-name="Layer 2"><path class="cls-7" d="M1.91,1159.34c-160.33-32-400.71-81.2-400.26-145.3.8-115.3,780.28-221.4,1415.77-232.7,574.2-10.2,1537.1,47.9,1546.14,184C2574.53,1130.34,1182,1394.84,1.91,1159.34Z"/></g><g id="Layer_1" data-name="Layer 1"><path class="cls-8" d="M1566.57,886.64c245.53,52.1,446.58,55,587,47.2,173.14-9.6,312.66-38.7,313.91-69.5,1.6-40.9-241.64-36.2-303.62-160.5-10.75-21.5-52.95-118.4-71.7-155.3-7.78-15.4-18.53-32.3-34.65-51.7-15.1-18.3-116.42-140.4-215-126-45.4,6.6-65.53,38.5-96.63,87.7-3.09,9.9-7.44,25.1-11.44,43.8-12.58,59.3-6.86,85.6-30.87,106-10.41,8.9-25.16,15.6-30.42,18a179,179,0,0,1-41.63,13,52.81,52.81,0,0,1-11.44,26c-4,4.8-7.09,6.8-13.72,13-9.95,9.4-15.21,16.5-20.58,23-13.16,16.1-22.65,23.5-38.89,40-34,34.5-51.92,51.7-52.6,66C1492.81,839.44,1522,871.74,1566.57,886.64Z"/><path class="cls-9" d="M1494.87,880.84c29.39,1.9,53.75,4.1,70.56,5.8,125.45-30,162.5-50.7,161-65.3-2.63-26-127.06-26.6-135-68-4.8-25.2,36.48-51.1,41.17-54,52.72-33,103.38-8.3,121.22-33,18.87-26-31.67-61.2-10.29-108,7.78-17,18.18-20.7,21.73-39,4.69-24.2-8.12-46.4-19.44-61-39.23,58.7-62.79,89.4-77.42,106.4l-.35.3c-3.08,3.6-21.61,24.9-42.88,45.8-69.42,68.1-153.81,118.8-210.42,150-137.8,76-212.25,93.5-207.56,108.5C1212.52,886.14,1308,868.34,1494.87,880.84Z"/></g><g id="Layer_6" data-name="Layer 6"><path class="cls-10" d="M2315.79,957.81c30.32-20.46,90.73-67.59,142.91-51.7,59.42,18.09,93.55,113.48,71,188.6a163.37,163.37,0,0,1-39.46,66.4c-53.63,56.3-155.52,96.4-646.81,157-438.68,54.2-709.94,69-709.94,69-1037,0-1217.7,121.7-1391.87-13-98.8-76.4-189.95-230.9-159.64-384,4.34-22,25.73-134.9,132.65-208,121.34-82.9,277.55-63.4,457.44-41,198.64,24.7,201.16,62.3,390,79,186.29,16.4,331.41-7.2,336.21,15,5.26,24.5-158.5,56.9-154.38,87,4.47,32.73,202.21,34.54,393.39,42C1870.43,992.73,2120.05,1089.87,2315.79,957.81Z"/></g></g></svg>